<?xml version="1.0" encoding="UTF-8"?>
<svg id="Layer_2" data-name="Layer 2" xmlns="http://www.w3.org/2000/svg" viewBox="0 0 169.75 232">
  <defs>
    <style>
      .cls-1 {
        fill: #efc768;
      }

      .cls-1, .cls-2, .cls-3, .cls-4, .cls-5, .cls-6, .cls-7, .cls-8, .cls-9, .cls-10, .cls-11, .cls-12, .cls-13, .cls-14 {
        stroke-width: 0px;
      }

      .cls-2 {
        fill: #f4f4f2;
      }

      .cls-3 {
        fill: #ed9207;
      }

      .cls-4 {
        fill: #e5e5e5;
      }

      .cls-6 {
        fill: #94b7bf;
      }

      .cls-7 {
        fill: #1200ff;
      }

      .cls-8 {
        fill: #566431;
      }

      .cls-9 {
        fill: #c1ffff;
      }

      .cls-10 {
        fill: #fff;
      }

      .cls-11 {
        fill: #1800b9;
      }

      .cls-12 {
        fill: #94938e;
      }

      .cls-13 {
        fill: #92a542;
      }

      .cls-14 {
        fill: #b29966;
      }
    </style>
  </defs>
  <g id="Layer_3" data-name="Layer 3">
    <g>
      <path class="cls-12" d="M169.13,135.52v7.06h-1.14c-.94,0-1.71-.75-1.71-1.7v-.68c0-.47.15-.93.42-1.32l2.42-3.37Z"/>
      <path class="cls-12" d="M169.13,103.82v1.88c-.19-.05-.37-.1-.57-.13-.25-.06-.51-.11-.77-.12-.06,0-.12-.01-.19-.01-.25-.02-.52-.05-.79-.05s-.56.02-.82.05h-.02c-.07,0-.16.02-.23.02-.18.04-.36.05-.54.08t-.05.01c-.07.01-.15.04-.23.05-.17.05-.34.08-.51.15-.01,0-.04,0-.05.01-.06.01-.13.05-.21.07-.17.05-.34.12-.5.18-.01.01-.04.01-.06.02-.06.02-.11.06-.17.08-.17.07-.33.15-.48.23-.02.01-.05.01-.06.02-.06.04-.11.07-.17.11-.16.07-.3.17-.45.27-.02.01-.04.02-.06.04-.06.05-.12.1-.18.13-.12.1-.25.18-.39.29-.02.01-.05.04-.07.05-.06.06-.12.12-.19.17h-10.25l-1.48-3.61h19.49Z"/>
      <path class="cls-12" d="M169.13,99.41v2.86h-20.12l-.22-.55c-.12-.3-.4-.48-.71-.48h-3.56l-.44-2.59h24.02l1.03.76Z"/>
      <path class="cls-12" d="M166.03,97.09h-22.21l-.41-2.36c-.05-.27-.22-.48-.47-.59l-1.61-.67h19.83l4.87,3.62Z"/>
      <path class="cls-5" d="M163.77,147.13c.4-.16.85.04,1,.42.05.11,1.02,2.48,1.02,4.17,0,.44-.35.79-.77.79s-.77-.35-.77-.79c0-1.14-.64-2.97-.89-3.57-.16-.4.02-.86.42-1.02Z"/>
      <path class="cls-5" d="M158.06,163.17c.11-.08,2.67-2.06,5.14-1.15.45.17,2.62,1.28,1.89,6.78-.06.39-.39.68-.77.68h-6.25c-.86,0-1.64-.47-2.03-1.24-.29-.56-.34-1.17-.17-1.76.07-.22.18-.42.31-.62l1.73-2.53c.05-.06.1-.11.16-.17ZM158.06,167.93h5.56c.13-1.8-.06-4.12-.97-4.45-1.45-.55-3.16.56-3.56.85l-1.66,2.41c-.23.35-.11.67-.05.79s.25.4.67.4Z"/>
      <path class="cls-12" d="M159.1,164.33c.4-.29,2.1-1.39,3.56-.85.91.33,1.1,2.64.97,4.45h-5.56c-.41,0-.6-.28-.67-.4s-.18-.44.05-.79l1.66-2.41Z"/>
      <path class="cls-5" d="M160.89,151.64c.05-.42.42-.73.86-.68.16.01,1.51.23,1.77,2.54.06.42-.25.81-.68.86h-.08c-.39,0-.73-.29-.76-.69-.1-.85-.37-1.14-.47-1.19-.4-.07-.67-.44-.63-.85Z"/>
      <path class="cls-12" d="M161.25,182.22c-1.9,4.11-4.14,8.03-6.65,11.74-.3-.35-.68-.91-1-1.76-.25-.63.23-2.91,2.37-7.24.36-.74,1.03-1.3,1.83-1.54l2.71-.82s.1-.04.15-.06l.6-.31Z"/>
      <path class="cls-4" d="M150.83,119.3c.44,0,.77-.35.77-.78,0-.17.01-.33.04-.48.01-.05.01-.11.02-.16.01-.1.04-.21.06-.3.01-.06.02-.12.05-.18.02-.1.05-.18.08-.27.01-.07.04-.12.06-.19.05-.08.08-.18.13-.27.05-.11.11-.21.17-.31l.11-.18c.05-.07.1-.13.16-.21.04-.05.08-.1.13-.16s.1-.12.16-.18.12-.11.18-.17.13-.11.19-.17c.1-.07.21-.15.31-.22.04-.04.08-.06.13-.1.12-.06.23-.13.35-.19.04-.01.07-.02.11-.05.16-.07.33-.12.5-.17.02-.01.05-.02.07-.02.15-.04.29-.07.44-.1.05,0,.1-.01.15-.02.17-.01.34-.04.52-.04,1.27,0,2.44.58,3.23,1.57.05.06.08.1.13.13.01.01.02.01.04.02,0,0,.01.01.02.01,0,0,.01.02.02.02.05.02.08.05.13.06,0,.01.01.01.01.01.02,0,.04,0,.05.01.02,0,.04,0,.05.01.05,0,.08.01.12.01h.11s.02-.01.04-.01h.06s.01-.01.02-.01h.01s.05-.01.08-.04c.01,0,.04,0,.05-.01.02-.01.04-.01.05-.02.02-.01.06-.04.08-.06.01-.01.02-.01.02-.02.02-.01.04-.02.05-.04,0-.01.01-.01.01-.02.01,0,.01-.01.02-.01.02-.02.04-.05.05-.07,0,0,.01,0,.01-.01s.01-.01.01-.02h.01s.02-.05.02-.06t.02-.04s.01-.04.01-.06c.01,0,.01-.01.01-.02v-.02s.01-.01.01-.02c.01-.02.01-.04.01-.06t.01-.04h0v-.07h0v-.04s0-.08-.01-.11v-.04c-.15-.55-.22-1.11-.22-1.67,0-.16.01-.31.02-.47,0-.11.01-.22.02-.31.02-.13.05-.25.06-.39.02-.08.04-.17.05-.24.04-.16.07-.3.11-.46.02-.05.04-.11.05-.16l.18-.51s.04-.06.05-.1c.07-.17.16-.34.24-.51.01-.01.01-.04.04-.07.08-.16.18-.3.28-.46.02-.04.04-.06.06-.1.1-.13.19-.25.28-.38.05-.05.08-.11.13-.17.07-.08.16-.17.24-.27.07-.07.15-.15.22-.23.07-.07.16-.13.24-.21.07-.07.16-.13.24-.21s.18-.15.28-.22c.08-.05.15-.1.23-.16.11-.07.22-.13.34-.21.07-.04.13-.08.21-.12.12-.06.24-.12.37-.17.07-.04.13-.07.19-.11.13-.04.27-.1.41-.13.06-.02.13-.05.21-.07.13-.04.28-.07.41-.11.07-.02.15-.04.22-.05.15-.04.3-.05.45-.07.07-.01.13-.02.21-.04.22-.02.44-.04.67-.04.22,0,.44.02.67.04.07.01.13.02.21.04.16.01.3.04.45.07.08.01.16.02.24.05.13.04.28.07.41.11.07.02.15.05.23.07.04.01.07.04.12.05v19.3h-5.31c-.28,0-.53.16-.67.38h-4.82c-.18-.62-.62-1.78-1.44-2.99-1.16-1.74-3.86-1.11-5.26-.46-.08.05-.17.11-.24.18l-1.44,1.53-1.05-2.89,1.62-3.14c.1.04.19.06.3.06Z"/>
      <path class="cls-12" d="M157.78,113.25c-.12-.05-.24-.08-.36-.13-.02,0-.05-.01-.06-.02-.08-.01-.16-.04-.23-.06-.16-.04-.31-.06-.47-.08l-.22-.04c-.23-.04-.47-.05-.7-.05-.56,0-1.09.08-1.6.23-.01,0-.02,0-.02.01-.21.06-.41.13-.6.22h-.01l-1.75-4.34h8.25s-.01.01-.01.02c-.02.04-.04.06-.05.08-.13.19-.25.39-.36.58t-.01.02s-.01.04-.02.05c-.11.21-.22.42-.31.65h0s-.02.06-.04.08c-.08.21-.17.44-.24.65,0,0,0,.02-.01.04,0,.04-.01.07-.02.11-.06.19-.12.4-.16.61,0,.02-.01.05-.01.07-.02.05-.02.12-.04.18-.02.17-.06.34-.07.52-.01.04-.01.08-.01.11-.01.1-.01.18-.02.28,0,.1-.01.18-.02.28v.29s-.11-.06-.16-.08c-.11-.06-.23-.12-.34-.17-.04-.02-.07-.04-.11-.06-.06-.01-.12-.05-.18-.06Z"/>
      <path class="cls-5" d="M150.5,126.96c2.97,1.56,5.33.79,6.3.33-.19-.56-.56-1.47-1.19-2.41-.57-.85-2.5-.25-3.2.04l-1.91,2.05ZM149.4,126.88h-.86c.02-.1.08-.19.17-.28l1.25-1.33,1.44-1.53c.07-.07.16-.13.24-.18,1.4-.65,4.1-1.28,5.26.46.82,1.21,1.26,2.37,1.44,2.99h-.67v.53h.81c.05.28-.07.58-.31.75-.11.07-1.69,1.15-4.12,1.15-1.33,0-2.91-.33-4.64-1.32v-1.25Z"/>
      <path class="cls-1" d="M163.34,148.15c.25.61.89,2.43.89,3.57,0,.44.35.79.77.79s.77-.35.77-.79c0-1.68-.97-4.06-1.02-4.17-.16-.39-.6-.58-1-.42s-.58.62-.42,1.02ZM160.89,151.64c-.04.41.23.78.63.85.1.05.37.34.47,1.19.04.4.37.69.76.69h.08c.42-.05.74-.44.68-.86-.25-2.31-1.61-2.53-1.77-2.54-.44-.05-.81.25-.86.68ZM140.89,139.61c.01-.07.02-.15.01-.22-.05-.45-.41-.75-.91-.73-.33.01-.65.06-1.03.1.04-.63.07-1.22.1-1.8.11-2.37.22-4.74.31-7.11.01-.24.11-.34.33-.36.3-.04.6-.07.89-.13.52-.11.79-.44.76-.87h8.04v-.35c1.73.99,3.31,1.32,4.64,1.32,2.43,0,4.01-1.08,4.12-1.15.24-.17.36-.47.31-.75h4.58c.06.36.39.64.76.64h5.31v4.68l-3.66,5.12c-.47.65-.71,1.42-.71,2.23v.68c0,1.79,1.45,3.25,3.24,3.25h1.14v2.46c0,7.79-1.05,15.33-3.06,22.48l-.99-.28c.74-5.5-1.44-6.61-1.89-6.78-2.47-.91-5.03,1.07-5.14,1.15-.06.06-.11.11-.16.17l-1.73,2.53c-.13.19-.24.4-.31.62l-1.09-.33c.3-.94.48-1.94.57-2.97.1-1.13.16-2.25.22-3.38.01-.22.07-.35.28-.44.4-.17.79-.36,1.16-.57.44-.23.58-.69.39-1.09-.21-.41-.65-.57-1.1-.38-.18.08-.35.17-.56.25,0-.17-.01-.3,0-.42.1-1.66.21-3.32.3-4.97.11-1.68.22-3.37.3-5.05.02-.36.12-.61.46-.79.46-.24.88-.55,1.32-.82.41-.28.52-.74.29-1.13s-.73-.51-1.16-.25c-.23.13-.45.28-.71.45v-.31c.06-1.08.13-2.14.19-3.22.13-2.34-.76-4.19-2.6-5.61l-.29-.22c.12-.22.23-.41.34-.59s.22-.38.33-.56c.28-.5.18-.97-.25-1.21-.42-.24-.87-.08-1.15.39-.25.42-.51.85-.75,1.27-1.84-.5-3.58-.38-5.2.59-1.61.97-2.6,2.4-3.02,4.26-.21-.13-.37-.24-.54-.35-.45-.29-.94-.22-1.2.17-.1.15-.15.29-.15.45l-1.34-.06Z"/>
      <path class="cls-10" d="M152.41,124.92c.7-.29,2.64-.88,3.2-.04.63.94.99,1.85,1.19,2.41-.97.46-3.33,1.24-6.3-.33l1.91-2.05Z"/>
      <path class="cls-5" d="M151.79,147.74c-.44-.39-.85-.8-1.23-1.24-.27-.29-.21-.75.07-1.03.28-.29.73-.36,1.03-.11.44.39.85.81,1.25,1.24.1.11.12.29.22.53-.15.21-.27.47-.48.64-.25.19-.59.18-.85-.04Z"/>
      <path class="cls-5" d="M150.78,157.34c.3-.16.6-.12.85.1.37.34.74.69,1.06,1.08.28.3.23.78-.05,1.07-.29.29-.75.34-1.06.06-.39-.34-.75-.71-1.1-1.09-.11-.12-.13-.31-.17-.4.01-.44.18-.67.47-.81Z"/>
      <path class="cls-5" d="M148.93,153.87c-.42-.01-.68-.15-.82-.45-.13-.3-.15-.62.08-.86.36-.4.75-.79,1.15-1.15.31-.28.77-.23,1.06.05s.34.78.07,1.08c-.36.4-.75.79-1.15,1.15-.12.11-.31.15-.4.18Z"/>
      <path class="cls-5" d="M149.32,166.38c-.35.33-.85.33-1.16.02-.33-.31-.34-.8-.01-1.16.3-.31.62-.63.94-.93.27-.25.58-.3.91-.15.3.13.45.39.48.84-.06.11-.15.33-.28.48-.28.31-.58.61-.88.9Z"/>
      <path class="cls-12" d="M148.57,90.76c.12.15.28.23.45.28l4.5.88h-15.94l-5.36-2.22c-.08-.33-.23-.84-.39-1.41h14.75l1.98,2.46Z"/>
      <path class="cls-5" d="M148.78,141.74c-.34.31-.79.27-1.1-.04-.3-.3-.34-.76-.04-1.1.39-.42.8-.84,1.23-1.22.12-.12.33-.17.41-.21.44.01.69.16.83.46s.13.63-.11.88c-.4.42-.8.84-1.23,1.22Z"/>
      <path class="cls-5" d="M141.58,66.69c.19.36.04.84-.33,1.04-.12.06-.24.08-.36.08-.28,0-.54-.15-.67-.41-.47-.9-.7-1.87-.7-2.88,0-3.42,2.77-6.2,6.18-6.2.53,0,1.06.07,1.57.21-.01-.23-.02-.47-.02-.71,0-4.85,3.93-8.79,8.75-8.79,1.19,0,2.33.23,3.41.69.39.17.58.62.41,1.02h0c-.17.4-.63.58-1.02.41-.88-.38-1.83-.57-2.81-.57-3.98,0-7.22,3.25-7.22,7.24,0,.59.07,1.17.22,1.74,0,.02,0,.04.01.05v.24s-.01.05-.01.07c-.01.02-.01.06-.01.07-.01.04-.04.06-.05.08,0,.01,0,.02-.01.05t-.01.01s-.04.04-.05.07c-.02.01-.02.04-.05.05-.01.01-.02.04-.05.05s-.04.04-.06.06c-.01.01-.04.02-.05.02-.04.02-.05.04-.07.05s-.04.01-.06.02c-.02,0-.06.01-.08.02h-.01s-.02.01-.04.01c-.04.01-.08.02-.13.02h-.05c-.07,0-.15-.02-.22-.05-.01,0-.02-.01-.02-.01-.05-.01-.07-.02-.1-.05-.67-.35-1.43-.55-2.19-.55-2.55,0-4.64,2.08-4.64,4.65,0,.76.18,1.49.53,2.17Z"/>
      <path class="cls-5" d="M143.51,197.56c-.42-.05-.73-.44-.67-.86.27-2.02,1.37-4.11,2.03-4.76.31-.31.8-.3,1.1,0,.3.29.3.79,0,1.09-.35.35-1.37,2.06-1.6,3.86-.05.4-.39.68-.76.68-.05,0-.07,0-.11-.01Z"/>
      <path class="cls-12" d="M142.42,83.14l2.93,3.62h-14c-.47-1.38-.75-1.82-.97-2.05-.45-.48-1.9-1.08-3.31-1.57h15.36Z"/>
      <path class="cls-5" d="M145.07,172.62c-.25.23-.56.3-.88.15-.31-.16-.47-.4-.48-.88.06-.08.12-.29.27-.45.3-.33.63-.65.96-.97.37-.35.85-.36,1.19-.04.34.34.34.8-.02,1.17-.33.35-.67.69-1.02,1.02Z"/>
      <path class="cls-2" d="M141.25,67.73c.36-.21.52-.68.33-1.04-.35-.68-.53-1.41-.53-2.17,0-2.57,2.09-4.65,4.64-4.65.76,0,1.52.19,2.19.55.02.02.05.04.1.05,0,0,.01.01.02.01.07.02.15.05.22.05h.05s.1-.01.13-.02c.01,0,.02,0,.04-.01h.01s.06-.02.08-.02c.02-.01.04-.01.06-.02s.04-.02.07-.05c.01,0,.04-.01.05-.02.02-.02.04-.05.06-.06s.04-.04.05-.05c.02-.01.02-.04.05-.05.01-.04.04-.05.05-.07t.01-.01s.01-.04.01-.05c.01-.02.04-.05.05-.08,0-.01,0-.05.01-.07,0-.02.01-.05.01-.07v-.24s-.01-.02-.01-.05c-.15-.57-.22-1.15-.22-1.74,0-4,3.24-7.24,7.22-7.24.98,0,1.92.19,2.81.57.39.17.85-.01,1.02-.4h0s2.64,1.54,2.64,1.54c2.21,5.18,3.88,10.59,5.01,16.15h-6.05c-.36,0-.65.24-.75.57l-19.78-1.09v-.08c.12,0,.24-.02.36-.08Z"/>
      <polygon class="cls-12" points="140.02 80.16 141.17 81.58 125.05 81.58 125.01 77.97 136 77.97 140.02 80.16"/>
      <path class="cls-11" d="M140.58,127.75c.41.02.7.27.76.64.01.02.01.06.01.08h-.77v-.73Z"/>
      <path class="cls-1" d="M145.16,164.21c.08,2.19-1.58,4.17-3.75,4.47-.75.1-1.49.18-2.22.27-.53.07-1.06.12-1.63.18.01-.39.02-.71.05-1.05.01-.31.04-.64.05-.96,1.12-.13,1.43-.29,1.41-.8-.02-.87-.7-.87-1.34-.87.23-4.77.45-9.51.68-14.27.35.05.64.07.92.11.59.1,1.04-.18,1.1-.7.06-.48-.29-.86-.88-.92-.34-.04-.69-.08-1.05-.12,0-.13-.01-.24,0-.34.07-1.64.15-3.27.22-4.89.06-1.17.13-2.34.16-3.5.01-.34.16-.44.46-.45.27-.01.52-.05.79-.07.41-.05.71-.33.79-.68l1.34.06c0,.27.16.55.45.74.34.24.68.48,1.04.69.27.16.35.36.36.65.12,2.56.24,5.11.37,7.67.02.63.06,1.26.08,1.94-.21-.11-.36-.21-.53-.28-.42-.21-.87-.07-1.09.3-.24.4-.12.85.29,1.11.28.17.56.38.86.48.5.19.6.55.63,1.03.07,2.06.19,4.13.29,6.19.02.59,0,1.19,0,1.79-.16-.08-.34-.18-.53-.28-.51-.27-.98-.17-1.22.25-.24.44-.06.91.46,1.2.41.23.83.44,1.22.68.12.07.23.24.24.36Z"/>
      <path class="cls-13" d="M150.63,145.47c-.28.28-.34.74-.07,1.03.39.44.8.85,1.23,1.24.25.22.59.23.85.04.22-.17.34-.44.48-.64-.1-.24-.12-.42-.22-.53-.4-.42-.81-.85-1.25-1.24-.3-.25-.75-.18-1.03.11ZM150.48,158.55c.35.38.71.75,1.1,1.09.31.28.77.23,1.06-.06.28-.29.33-.76.05-1.07-.33-.39-.69-.74-1.06-1.08-.24-.22-.54-.25-.85-.1-.29.15-.46.38-.47.81.04.08.06.28.17.4ZM138.3,171.99c-.29-.24-.74-.13-.99.15s-.3.73-.06,1.02c.27.31.57.62.88.88.25.21.59.23.85.04.22-.16.34-.42.51-.64-.02-.02-.05-.05-.06-.07-.05-.13-.05-.3-.13-.39-.31-.34-.63-.69-.99-.98ZM146.07,138.64c.96-2.03,3.17-3.13,5.39-2.63,2.09.46,3.68,2.42,3.62,4.61-.05,1.88-.19,3.75-.31,5.62l-.25,4.11c-.18,2.77-.35,5.56-.53,8.35-.1,1.56-.15,3.14-.31,4.7-.36,3.38-1.87,6.18-4.43,8.39-2.43,2.11-5.26,3.16-8.48,3.19-.85.01-1.71,0-2.55,0-1.09,0-2.18,0-3.26.01-.25,0-.4-.08-.5-.31-.42-.98-.46-1.99-.07-2.99.17-.42.5-.62.97-.67,2.09-.22,4.18-.41,6.26-.71,3.2-.46,5.37-3.27,5.19-6.58-.17-2.98-.29-5.95-.45-8.93-.21-4.29-.44-8.59-.65-12.88-.05-1.11-.12-2.23.37-3.28ZM147.68,141.7c.31.3.76.35,1.1.04.44-.39.83-.8,1.23-1.22.24-.25.25-.58.11-.88s-.4-.45-.83-.46c-.08.04-.29.08-.41.21-.44.39-.85.8-1.23,1.22-.3.34-.27.8.04,1.1ZM148.19,152.56c-.23.24-.22.56-.08.86.15.3.4.44.82.45.08-.04.28-.07.4-.18.4-.36.79-.75,1.15-1.15.27-.3.22-.8-.07-1.08s-.75-.33-1.06-.05c-.4.36-.79.75-1.15,1.15ZM148.14,165.24c-.33.36-.31.85.01,1.16.31.3.81.3,1.16-.02.3-.29.6-.58.88-.9.13-.16.22-.38.28-.48-.04-.45-.18-.7-.48-.84-.33-.16-.64-.11-.91.15-.33.3-.64.62-.94.93ZM144.19,172.76c.33.16.63.08.88-.15.35-.33.69-.67,1.02-1.02.36-.38.36-.84.02-1.17-.34-.33-.81-.31-1.19.04-.33.31-.65.64-.96.97-.15.16-.21.36-.27.45.01.48.17.73.48.88Z"/>
      <path class="cls-5" d="M137.31,172.13c.25-.28.7-.39.99-.15.36.29.68.64.99.98.08.08.08.25.13.39.01.02.04.05.06.07-.17.22-.29.48-.51.64-.25.19-.59.17-.85-.04-.31-.27-.62-.57-.88-.88-.24-.29-.19-.74.06-1.02Z"/>
      <path class="cls-5" d="M133.32,39.09c.44,0,.77.35.77.78s-.34.78-.77.78h-3.51c-.44,0-.77-.35-.77-.78s.34-.78.77-.78h3.51Z"/>
      <path class="cls-12" d="M129.13,74.12c.06.08.16.17.25.22l3.78,2.08h-8.17l-.05-3.62h3.23l.96,1.32Z"/>
      <path class="cls-5" d="M127.28,39.09c.42,0,.77.35.77.78s-.35.78-.77.78h-6.78c-.44,0-.77-.35-.77-.78s.34-.78.77-.78h6.78Z"/>
      <polygon class="cls-12" points="124.9 68.24 127.07 71.25 124.94 71.25 124.9 68.24"/>
      <path class="cls-13" d="M132.27,158.27c-.1,2.97-.18,5.94-.27,8.9-.02.55.27.9.71.94.5.05.88-.29.89-.81.06-1.24.1-2.48.15-3.72.19-6.42.39-12.83.58-19.25.12-3.89.23-7.78.33-11.68.13-5.22.25-10.44.39-15.66.01-.52.01-1.04-.01-1.56-.01-.24.06-.36.29-.45.39-.13.75-.3,1.11-.47.47-.22.65-.67.46-1.1-.19-.41-.64-.58-1.1-.4-.29.12-.58.25-.92.4-.27-1.56-.65-3.06-1.55-4.48.19.08.31.12.41.18,3.17,1.87,4.74,4.6,4.6,8.3-.12,2.81-.25,5.61-.39,8.41-.21,4.22-.41,8.43-.6,12.65-.13,2.8-.25,5.6-.39,8.41-.18,4-.36,7.99-.56,12-.15,3.17-.3,6.36-.45,9.53-.02.29-.05.58-.06.91-.25.02-.48.07-.71.08-1.35.07-2.1.88-2.47,2.07-.37,1.25-.31,2.51.19,3.72.4.96,1.05,1.54,2.16,1.43.15-.01.29,0,.48,0-.36,7.78-.73,15.53-1.09,23.29h-1.83c0-.64-.02-1.26,0-1.88.11-3.75.24-7.5.35-11.25.08-2.65.17-5.29.25-7.95.01-.5-.17-.81-.56-.93-.33-.11-.71,0-.89.31-.11.17-.16.4-.16.61-.08,1.97-.15,3.96-.22,5.94,0,.11-.01.22-.02.38-.13-.07-.24-.12-.35-.18-.4-.21-.86-.07-1.09.3-.21.36-.11.84.24,1.08.3.22.63.39.92.61.11.08.23.25.22.39-.12,4.15-.25,8.31-.39,12.46,0,.02-.01.05-.02.11h-2.64c-.02-.29-.05-.58-.06-.88-.11-3.43-.22-6.87-.33-10.3-.13-4.32-.28-8.65-.41-12.97-.12-3.63-.23-7.28-.34-10.91-.17-5.39-.35-10.77-.51-16.16-.12-3.74-.22-7.47-.33-11.22-.01-.38-.1-.69-.42-.87-.56-.33-1.22.07-1.21.75,0,.91.05,1.82.07,2.74.04,1.37.08,2.74.12,4.13-.15-.05-.27-.1-.37-.13-.41-.1-.79.07-.96.42-.18.36-.08.78.25,1.02.3.21.63.38.93.58.11.08.21.23.21.35.11,3.06.21,6.12.3,9.17v.3c-.13-.06-.22-.1-.3-.15-.44-.23-.88-.12-1.12.28-.23.38-.12.85.29,1.13.3.19.62.4.93.58.19.11.28.24.28.48.07,2.73.16,5.45.24,8.18.07,2.46.16,4.92.24,7.38v.42c-.18-.04-.31-.08-.45-.11-.4-.04-.73.17-.86.55-.13.36,0,.75.34.94.24.15.48.28.75.39.21.08.29.21.3.45.06,2.17.13,4.34.21,6.5.01.69,0,1.39,0,2.11-.06-.02-.16-.07-.25-.12-.4-.17-.82-.04-1.05.34-.21.35-.12.8.22,1.04.33.23.68.41.98.65.12.08.24.27.24.41.12,3.36.22,6.72.31,10.08.02.81.01,1.62.01,2.46h-1.8c-.04-.58-.06-1.16-.08-1.74-.23-4.82-.46-9.64-.69-14.47-.16-3.5-.31-7.01-.48-10.53-.17-3.86-.35-7.73-.53-11.59-.23-4.86-.46-9.73-.69-14.58-.22-4.52-.45-9.05-.65-13.57-.17-3.52-.31-7.04-.47-10.56-.08-1.83-.21-3.65-.27-5.47-.13-3.68,1.44-6.43,4.62-8.28.08-.05.19-.08.22-.1-.34.91-.75,1.84-1.03,2.8-.48,1.7-.56,3.45-.53,5.21.04,1.66.07,3.32.11,4.98v.46c-.17-.1-.28-.17-.4-.23-.4-.21-.88-.08-1.1.28-.22.35-.12.82.23,1.09.33.23.65.46,1,.67.24.15.34.31.34.61.06,2.52.13,5.03.21,7.53.02.57.44.91.94.82.45-.07.69-.39.68-.91-.04-1.47-.08-2.93-.12-4.41-.08-4.01-.16-8.01-.27-12.02-.01-.53.12-.85.65-.99.31-.08.62-.25.91-.4.45-.21.62-.64.44-1.07s-.63-.59-1.09-.41c-.19.07-.39.16-.64.27.21-1.3.56-2.47,1.26-3.52.51-.74,1.12-1.36,2.02-1.57.28-.07.63-.01.89.1.94.39,1.56,1.14,2.03,2.02.74,1.38,1.08,2.88,1.11,4.42.05,2.54-.02,5.08-.05,7.61,0,.04-.01.07-.04.16-.13-.08-.25-.16-.39-.23-.41-.25-.88-.16-1.14.22-.24.35-.15.86.24,1.14.28.19.56.41.86.56.34.18.41.42.4.8-.1,2.96-.17,5.91-.24,8.85-.01.1-.02.18-.02.28-.17-.02-.31-.06-.46-.06-.4-.02-.74.23-.82.59-.08.4.08.78.45.94l.07.04c.71.29.73.29.7,1.07-.07,2.46-.15,4.92-.23,7.38,0,.06-.01.11-.02.21-.12-.06-.22-.11-.33-.16-.4-.17-.85-.01-1.05.35-.21.38-.11.81.27,1.07.28.19.59.35.87.55.1.07.21.24.19.35-.07,3.11-.17,6.21-.27,9.31,0,.07-.02.13-.04.25-.15-.08-.25-.16-.37-.22-.42-.23-.88-.11-1.12.28-.22.38-.12.84.27,1.1.29.19.57.39.87.55.24.13.33.29.31.57Z"/>
      <path class="cls-5" d="M122.91,19.45c-.28-.31-.25-.81.06-1.09l1.22-1.11c.31-.29.81-.27,1.1.05.28.33.25.81-.06,1.1l-1.22,1.11c-.16.13-.34.19-.52.19-.21,0-.42-.08-.58-.25Z"/>
      <path class="cls-1" d="M121.1,157.23h.52v.55h-.5s-.01-.11-.01-.16c0-.13,0-.25-.01-.39Z"/>
      <path class="cls-5" d="M154.6,193.96c2.52-3.71,4.75-7.63,6.65-11.74l-.6.31s-.1.05-.15.06l-2.71.82c-.8.24-1.46.8-1.83,1.54-2.14,4.34-2.62,6.61-2.37,7.24.33.85.7,1.41,1,1.76ZM164.66,174.69c-7.76,21.97-23.93,39.81-44.5,49.47l-.35-.73c.51-9.64-8.39-22.57-15.91-25.74-2.76-1.17-5.54-2.68-8.27-4.46-5.57-3.65-9.41-9.1-10.8-15.36-2.54-11.48,3.68-20.46,9.34-25.97,3.52-3.43,6.4-6.26,8.74-8.65.3.19.6.38.89.58.07.05.15.15.19.24-2.41,2.54-5.3,5.49-8.8,8.9-7.81,7.61-10.8,15.86-8.89,24.52,1.29,5.86,4.9,10.97,10.12,14.4,2.65,1.72,5.36,3.19,8.03,4.31,7.84,3.31,16.93,16.1,16.88,26.44,7.45-3.6,14.28-8.26,20.31-13.77-.59-.62-1.2-1.02-1.41-.98-.07.06-.13.1-.21.13l-3.63,1.62c-.1.05-.19.07-.31.07h-10.6c-.42,0-.77-.35-.77-.78s.35-.78.77-.78h10.45l3.39-1.53c.3-.22.68-.33,1.09-.29.88.07,1.8.86,2.37,1.45,4.03-3.83,7.67-8.04,10.88-12.58-.46-.46-1.06-1.25-1.55-2.51-.51-1.33.3-4.19,2.43-8.49.56-1.13,1.56-1.97,2.77-2.34l2.64-.8,2.3-1.2c.76-1.74,1.46-3.51,2.1-5.32l.31.11Z"/>
      <path class="cls-5" d="M120.38,59.05c.3-.3.79-.3,1.09,0l1.93,1.94c.3.3.3.79,0,1.09-.15.16-.35.23-.54.23s-.4-.07-.54-.23l-1.93-1.93c-.3-.3-.3-.8,0-1.1Z"/>
      <path class="cls-5" d="M115.12,45.83c.21-.38.68-.52,1.05-.31l4.05,2.23c.39.19.52.67.31,1.05-.15.25-.41.4-.68.4-.13,0-.25-.04-.37-.1l-4.05-2.22c-.37-.21-.52-.68-.31-1.05Z"/>
      <path class="cls-1" d="M114.02,148.32c.05-.81.08-1.54.13-2.27.12-2.56.24-5.1.39-7.64,0-.15.15-.34.28-.42.41-.27.85-.48,1.28-.73.48-.28.65-.76.41-1.19-.24-.41-.73-.51-1.22-.23-.22.11-.42.22-.65.35v-.31c.07-1.5.17-2.99.21-4.48.01-.31,0-.61-.04-.9.24-.47.39-.84.48-1.14h3.41c.15.02.29.05.45.07.73.12.65-.05.69.78.13,2.66.25,5.32.37,7.98.01.18,0,.36,0,.57-.33-.04-.62-.07-.91-.1-.57-.04-.93.23-.97.71-.05.52.27.85.85.91.36.04.74.08,1.14.13.15,3.06.28,6.08.42,9.11-.36.05-.67.1-.98.12-.69.06-1.04.41-.97.96.06.52.52.78,1.16.67.27-.04.54-.05.87-.08.1,2.02.18,4.03.28,6.04h-1.87c-.08-.36-.4-.61-.87-.67-.44-.05-.87-.1-1.32-.16-1.68-.25-3.12-1.8-3.19-3.52-.02-.81.04-1.62.07-2.43.01-.1.13-.23.23-.29.45-.29.92-.53,1.37-.82.42-.25.53-.73.3-1.11-.22-.39-.69-.51-1.12-.28-.21.11-.41.23-.68.38Z"/>
      <path class="cls-5" d="M118.47,129.31c-.44-.11-.67-.47-.6-.91.05-.28.22-.5.45-.59h1.02c.06,0,.12.01.18.02.35.07.59.38.59.75,0,.42-.34.78-.77.78h-.63c-.08-.01-.16-.02-.23-.05Z"/>
      <path class="cls-1" d="M119.23,157.51c.01-.1.01-.19,0-.28h1.87c.01.13.01.25.01.39l-1.89-.08v-.02Z"/>
      <path class="cls-1" d="M121.13,157.78h-1.98s.01-.04.02-.06c.02-.06.04-.12.05-.18h.01l1.89.08s0,.11.01.16Z"/>
      <path class="cls-1" d="M119.17,157.72c.02-.06.04-.12.05-.18-.01.06-.02.12-.05.18Z"/>
      <path class="cls-1" d="M119.17,157.72s-.01.04-.02.06h-.01s.02-.04.04-.06Z"/>
      <path class="cls-10" d="M119.13,157.78h.01s-.05.1-.08.13c.02-.04.05-.08.07-.13Z"/>
      <path class="cls-5" d="M118.31,127.81c.11-.06.24-.08.39-.07.22.01.44.04.63.07h-1.02Z"/>
      <path class="cls-1" d="M119.13,157.78h-.65v-.55h.75c.01.08.01.18,0,.28v.02h-.01c-.01.06-.02.12-.05.18-.01.02-.02.04-.04.06Z"/>
      <path class="cls-5" d="M117.32,34.63c-.29,0-.58-.17-.71-.47-.16-.4.02-.85.42-1.02l1.28-.53c.39-.17.85.02,1,.41.16.41-.02.86-.42,1.02l-1.27.53c-.1.05-.19.06-.3.06Z"/>
      <path class="cls-5" d="M114.8,130.5c-.12-1.02-.5-1.9-1.1-2.69h4.61c-.23.1-.4.31-.45.59-.06.44.17.8.6.91.07.02.15.04.23.05h-3.41c-.1.3-.24.67-.48,1.14Z"/>
      <path class="cls-5" d="M112.8,140.2v-.05c.01-.28.02-.55.04-.82.05-1.08.1-2.14.16-3.22.04-.85.08-1.71.13-2.56,0-.11,0-.21.01-.31h0c.81-1.16,1.33-2.05,1.67-2.74.04.29.05.58.04.9-.04,1.49-.13,2.98-.21,4.48v.31c.23-.13.44-.24.65-.35.5-.28.98-.18,1.22.23.24.42.07.91-.41,1.19-.44.24-.87.46-1.28.73-.13.08-.28.28-.28.42-.15,2.54-.27,5.09-.39,7.64-.05.73-.08,1.45-.13,2.27.27-.15.47-.27.68-.38.44-.23.91-.11,1.12.28.23.39.12.86-.3,1.11-.45.29-.92.53-1.37.82-.1.06-.22.19-.23.29-.04.81-.1,1.62-.07,2.43.07,1.72,1.51,3.27,3.19,3.52.45.06.88.11,1.32.16.47.06.79.3.87.67h-.75v.55h.65s-.05.1-.07.13-.07.08-.11.11c-.18.16-.45.22-.76.17-.83-.15-1.71-.21-2.48-.5-.13-.05-.27-.1-.39-.16-.25-.12-.5-.25-.73-.4-.11-.07-.22-.16-.33-.24-.22-.17-.41-.35-.6-.55-.94-1.02-1.5-2.39-1.46-3.85.04-1.71.15-3.42.23-5.12.12-2.27.23-4.53.34-6.8.01-.13.01-.25.02-.38Z"/>
      <path class="cls-5" d="M114.15,187.24c.36-.24.85-.13,1.06.24.1.15,2.25,3.59,2.77,8.88.05.44-.27.81-.69.86h-.07c-.39,0-.73-.29-.77-.7-.48-4.91-2.52-8.18-2.54-8.21-.22-.36-.12-.85.24-1.07Z"/>
      <path class="cls-5" d="M114.24,87.73c-.4-.15-.59-.58-.45-.99l3.1-8.26c.15-.4.59-.61.99-.46s.6.59.45,1.01l-3.08,8.26c-.12.31-.41.51-.73.51-.1,0-.19-.01-.28-.06Z"/>
      <path class="cls-5" d="M113.22,131.65c.02-.36,0-.73-.06-1.07.23-.48.41-.87.53-1.19h-.93c-.33-.64-.8-1.19-1.38-1.59h2.32c.6.79.98,1.67,1.1,2.69-.34.69-.86,1.57-1.67,2.73.02-.52.06-1.05.08-1.57Z"/>
      <path class="cls-5" d="M113.24,28.23c-.28-.33-.25-.81.06-1.1l7.67-6.95c.31-.29.8-.25,1.09.06.28.31.25.8-.06,1.09l-7.67,6.96c-.15.12-.33.19-.52.19-.21,0-.41-.08-.57-.25Z"/>
      <path class="cls-5" d="M113.16,158.38c.24-.3.68-.42.98-.19.39.3.73.69,1.06,1.05.08.08.08.23.08.25.02.45-.13.69-.42.85-.3.16-.62.13-.88-.1-.3-.27-.58-.56-.85-.86-.25-.29-.23-.71.02-1.01Z"/>
      <path class="cls-5" d="M97.1,178.83l1.03.23c.16.04.31.13.42.25l.86,1.02h7.58c.62,0,1.23-.13,1.8-.38l4.34-1.91-.73-4.37c-.07-.46-.35-.85-.75-1.07l-2.15-1.15c-.08-.05-.17-.12-.23-.19l-1.5-1.8c-.44-.52-1.16-.73-1.8-.48l-6.98,2.52c-.5.18-.89.56-1.1,1.05l-1.79,4.38c-.16.39-.13.82.06,1.19.19.38.53.63.93.71ZM112.4,171.22c.81.46,1.39,1.27,1.54,2.19l.82,4.98c.06.35-.12.69-.45.84l-4.9,2.13c-.76.35-1.58.52-2.42.52h-7.93c-.23,0-.45-.1-.59-.28l-.92-1.09-.77-.17c-.85-.19-1.57-.74-1.97-1.51s-.45-1.68-.12-2.48l1.8-4.4c.36-.9,1.1-1.6,2-1.93l6.98-2.52c1.26-.46,2.67-.07,3.52.96l1.4,1.68,2.02,1.08Z"/>
      <path class="cls-4" d="M109.1,106.4c1.5,0,2.96.44,4.21,1.26.02.01.04.01.05.02.02.01.06.02.08.04.01.01.04.01.05.01.01.01.02.01.04.02.02,0,.04.01.06.01.02.01.06.01.08.01h.17s.04,0,.05-.01h.04s.11-.04.16-.06c0,0,.01,0,.01-.01.01,0,.02-.01.02-.01.01-.01.04-.02.05-.02l.04-.04s.04-.02.05-.04c0-.01.01-.01.02-.02s.02-.02.04-.05.05-.05.06-.08c.01,0,.01-.01.01-.01,0-.01.01-.02.01-.04.01-.02.04-.05.05-.08,0-.02,0-.04.01-.05t.01-.05s.01-.04.01-.05c.01-.04.01-.06.01-.08v-.05c.1-5.33,4.47-9.67,9.79-9.67,3.51,0,6.76,1.9,8.5,4.93.22.38.69.51,1.06.29.06-.04.12-.08.17-.13l10.57,7.98,4.32,11.96,1.05,2.89-1.25,1.33c-.08.08-.15.18-.17.28h-7.96v.87c-.08-.01-.18-.01-.28,0-.25.02-.52.07-.82.11.05-.87.08-1.71.12-2.54.07-1.74.16-3.5.23-5.24,0-.25.1-.38.35-.45.42-.11.83-.27,1.26-.41.45-.17.67-.61.51-1.04-.15-.44-.57-.64-1.03-.5-.31.08-.62.18-.98.3.24-2.97-.53-5.57-2.41-7.86.3-.29.59-.56.87-.84.36-.38.39-.86.07-1.2-.33-.34-.85-.34-1.21.05-.29.28-.53.61-.75.85-4.67-3.37-9.2-3.37-13.79-.02-.27-.28-.53-.59-.82-.86-.35-.34-.85-.34-1.16-.02-.33.31-.33.81.02,1.19.22.23.44.46.68.67.18.17.16.29.01.47-1.57,2-2.32,4.28-2.24,6.82.01.23,0,.47,0,.71-.04,0-.06.01-.08.01-.28-.08-.56-.18-.83-.27-.48-.15-.92.07-1.06.51-.13.46.08.87.58,1.04.34.12.68.27,1.04.34.4.08.5.3.51.69.07,1.72.17,3.44.24,5.16.02.81,0,1.62,0,2.43-.04,0-.07-.01-.11-.01-.06-.01-.12-.02-.18-.02-.19-.04-.41-.06-.63-.07-.15-.01-.28.01-.39.07h-4.61c-.28-.38-.6-.71-.99-1.04-.18-.15-.36-.28-.57-.42.18-.33.35-.64.52-.94.22-.45.11-.9-.29-1.13-.42-.24-.87-.12-1.14.33-.16.27-.3.52-.44.8-.11.24-.24.28-.51.22-2.29-.51-4.56.41-5.88,2.19h-9.77v-.34h-30.4v-.07s-.01-.07-.01-.12c.01-.13.01-.28-.06-.42-.28-.67-.41-1.38-.41-2.12,0-2.98,2.42-5.41,5.41-5.41,1.56,0,3.05.67,4.08,1.85.02.01.04.02.05.04l.02.02c.07.06.15.1.22.13,0,0,.01.01.02.01.08.02.17.04.25.04h.01s.04.01.06.01t.01-.01s.05,0,.08-.01c.02,0,.04-.01.07-.01.01,0,.04-.01.06-.02s.05-.01.07-.04c.02-.01.04-.02.05-.04.02-.01.06-.04.07-.05s.01-.01.02-.01c0-.01.01-.02.04-.04.01-.02.04-.05.05-.06.02-.02.04-.05.05-.06l.04-.07s.02-.04.04-.06.01-.05.02-.07c0-.02.01-.05.01-.07s.01-.05.01-.07v-.13c-.01-.17-.02-.34-.02-.51,0-4.42,3.59-8.02,7.99-8.02,2.66,0,5.15,1.33,6.64,3.56.01.02.04.06.06.08l.02.02c.07.07.15.12.23.17t.01.01c.1.04.18.05.28.06h.01c.1,0,.19-.02.28-.05h.01c.06-.02.11-.05.16-.08.04-.01.06-.05.08-.07t.01-.01c1.45-1.37,3.35-2.13,5.33-2.13,1.61,0,3.14.5,4.46,1.42,2.01,1.42,3.19,3.65,3.26,6.09.01.42.36.75.77.75h.02c.44-.01.77-.36.75-.79-.07-2.77-1.41-5.38-3.59-7.06.06-4.23,3.49-7.64,7.73-7.64Z"/>
      <path class="cls-5" d="M112.63,51.28c.3-.3.8-.3,1.1,0l5.54,5.56c.3.3.3.79,0,1.09-.15.16-.35.23-.54.23s-.4-.07-.54-.23l-5.55-5.56c-.3-.3-.3-.79,0-1.09Z"/>
      <path class="cls-5" d="M113.16,130.59c-.07-.42-.21-.82-.4-1.19h.93c-.12.31-.3.7-.53,1.19Z"/>
      <path class="cls-13" d="M112.76,129.4c.19.36.33.76.4,1.19-.44.84-1.08,1.95-2.04,3.38-1.17,1.73-2.96,3.83-5.66,6.67-.1-1.77-.21-3.52-.33-5.29.73-.55,1.37-1.08,1.93-1.56.18-.01.36-.1.53-.24.31-.29.62-.59.91-.91.12-.15.18-.34.23-.45,0-.01.01-.01.01-.02,1.17-1.22,1.81-2.19,2.12-2.76h1.9Z"/>
      <path class="cls-10" d="M112.83,139.33c-.01.28-.02.55-.04.82l-.02-.23.06-.59Z"/>
      <path class="cls-12" d="M111.66,172.6c.4.22.68.61.75,1.07l.73,4.37-4.34,1.91c-.57.24-1.19.38-1.8.38h-7.58l-.86-1.02c-.11-.12-.27-.22-.42-.25l-1.03-.23c-.4-.08-.74-.34-.93-.71-.19-.36-.22-.8-.06-1.19l1.79-4.38c.21-.5.6-.87,1.1-1.05l6.98-2.52c.64-.24,1.37-.04,1.8.48l1.5,1.8c.06.07.15.15.23.19l2.15,1.15Z"/>
      <path class="cls-5" d="M111.24,124.6c.27-.45.71-.57,1.14-.33.4.23.51.68.29,1.13-.17.3-.34.62-.52.94.21.15.39.28.57.42.39.33.71.67.99,1.04h-2.32c-.67-.45-1.48-.71-2.36-.7-.85.01-1.62.27-2.27.7h-2.33c1.32-1.78,3.59-2.7,5.88-2.19.27.06.4.02.51-.22.13-.28.28-.53.44-.8Z"/>
      <path class="cls-5" d="M110.93,191.49c.36-.24.85-.16,1.09.21.21.29,2.02,3.02,2.1,4.89.02.42-.3.79-.73.81h-.05c-.41,0-.75-.33-.77-.75-.05-1.21-1.34-3.37-1.84-4.08-.24-.36-.15-.84.19-1.08Z"/>
      <path class="cls-8" d="M109.02,127.11c.88-.01,1.69.25,2.36.7h-4.63c.65-.44,1.43-.69,2.27-.7Z"/>
      <path class="cls-5" d="M110.52,20.05c.39.19.56.65.37,1.04l-1.15,2.42c-.12.29-.41.45-.7.45-.11,0-.22-.02-.33-.07-.39-.17-.56-.64-.36-1.03l1.14-2.43c.18-.39.64-.55,1.03-.38Z"/>
      <path class="cls-5" d="M111.2,140.34c-.33.18-.64.13-.92-.1-.3-.27-.58-.56-.85-.86-.23-.25-.25-.58-.11-.88.16-.3.4-.45.77-.44h.04c.45.04,1.46,1.05,1.49,1.49.02.34-.12.61-.42.79Z"/>
      <path class="cls-5" d="M110.77,59.3c.16.39-.02.85-.41,1.02-.1.04-.21.06-.3.06-.3,0-.59-.18-.71-.47l-.4-.94c-.16-.4.02-.85.41-1.02.4-.16.86.02,1.02.41l.4.94Z"/>
      <path class="cls-5" d="M111.01,152.58c.27.31.23.71-.02,1.02-.23.27-.68.42-.96.21-.42-.35-.8-.76-1.17-1.17-.07-.07-.07-.21-.1-.31l-.07-.07c.18-.23.31-.5.54-.67.25-.19.59-.15.85.07.33.29.64.61.93.93Z"/>
      <path class="cls-13" d="M107.15,146.71c.15.3.4.45.82.45.07-.02.25-.05.37-.15.34-.3.67-.62.97-.97.24-.28.18-.78-.08-1.04s-.76-.33-1.06-.06c-.33.28-.63.59-.92.91-.22.25-.23.56-.1.86ZM113.14,159.39c.27.3.54.59.85.86.27.23.58.25.88.1.29-.16.45-.4.42-.85,0-.02,0-.17-.08-.25-.34-.36-.68-.75-1.06-1.05-.3-.23-.74-.11-.98.19-.25.29-.28.71-.02,1.01ZM112.77,140.58c-.11,2.27-.22,4.53-.34,6.8-.08,1.71-.19,3.42-.23,5.12-.04,1.47.52,2.83,1.46,3.85.19.19.39.38.6.55.11.08.22.17.33.24.23.15.47.28.73.4.12.06.25.11.39.16.77.29,1.64.35,2.48.5.31.05.58-.01.76-.17.04-.02.08-.07.11-.11.04-.04.06-.08.08-.13h1.98c.06,1.3.12,2.58.18,3.88.01.15.01.28.02.42-.16.01-.24.02-.33.02-1.11,0-2.22.01-3.34,0-1.44-.02-2.85-.27-4.18-.82-3.89-1.65-6.34-4.53-7.17-8.7-.23-1.14-.24-2.31-.31-3.48l-.44-6.72c3.8-4.12,6.13-7.06,7.57-9.14-.01.11-.01.21-.01.31-.05.85-.1,1.71-.13,2.56-.06,1.08-.11,2.14-.16,3.22l-.06.59.02.23v.05c-.01.12-.01.24-.02.38ZM110.28,140.24c.28.23.59.28.92.1.3-.18.45-.45.42-.79-.02-.44-1.04-1.45-1.49-1.49h-.04c-.37-.01-.62.13-.77.44-.15.3-.12.63.11.88.27.3.54.59.85.86ZM110.98,153.6c.25-.3.29-.7.02-1.02-.29-.33-.6-.64-.93-.93-.25-.22-.59-.27-.85-.07-.23.17-.36.44-.54.67l.07.07c.02.11.02.24.1.31.37.41.75.82,1.17,1.17.28.22.73.06.96-.21Z"/>
      <path class="cls-3" d="M101.62,29.83c5.51,0,10,4.51,10,10.04s-4.49,10.03-10,10.03-9.99-4.51-9.99-10.03,4.47-10.04,9.99-10.04Z"/>
      <path class="cls-13" d="M105.37,129.36h3.64c-.35.52-.87,1.24-1.61,2.07h-.01c-.33.33-.65.64-.97.98-.06.07-.11.15-.15.22t-.01.02c-.37.35-.79.74-1.23,1.13-.05-.79-.11-1.57-.13-2.36-.02-.74.15-1.45.47-2.06Z"/>
      <path class="cls-5" d="M107.97,147.16c-.42,0-.68-.15-.82-.45-.13-.3-.12-.61.1-.86.29-.31.59-.63.92-.91.3-.27.79-.22,1.06.06s.33.76.08,1.04c-.3.35-.63.67-.97.97-.12.1-.3.12-.37.15Z"/>
      <path class="cls-13" d="M112.76,129.4h-1.9c-.3.57-.94,1.54-2.12,2.76-.02-.44-.17-.69-.47-.84-.31-.16-.62-.11-.87.11.74-.84,1.26-1.55,1.61-2.07h-3.64c.31-.63.8-1.16,1.38-1.55h4.63c.58.4,1.05.94,1.38,1.59Z"/>
      <path class="cls-5" d="M107.13,52.67c.39-.17.85.01,1.02.41l1.35,3.21c.16.39-.01.85-.42,1.02-.1.04-.19.06-.29.06-.3,0-.59-.18-.71-.47l-1.35-3.21c-.17-.4.01-.85.41-1.02Z"/>
      <path class="cls-5" d="M107.06,133.78c.65-.58,1.21-1.11,1.67-1.6-.05.11-.11.3-.23.45-.29.31-.59.62-.91.91-.17.15-.35.23-.53.24Z"/>
      <path class="cls-5" d="M107.06,133.78c-.23.01-.46-.07-.63-.24-.24-.25-.3-.58-.17-.88t.01-.02c.41-.42.79-.82,1.11-1.19h.01c.25-.23.56-.28.87-.12.3.15.45.4.47.84,0,.01-.01.01-.01.02-.46.48-1.02,1.02-1.67,1.6Z"/>
      <path class="cls-5" d="M106.42,132.41c.31-.34.64-.65.97-.97-.33.36-.7.76-1.11,1.19.04-.07.08-.15.15-.22Z"/>
      <path class="cls-5" d="M104.42,127.81h2.33c-.58.39-1.06.92-1.38,1.55h-1.78c.19-.57.47-1.09.82-1.55Z"/>
      <path class="cls-13" d="M105.03,133.78c.45-.39.86-.78,1.23-1.13-.13.3-.07.63.17.88.17.17.4.25.63.24-.57.48-1.21,1.02-1.93,1.56v-.06c-.02-.5-.06-1.01-.1-1.5Z"/>
      <path class="cls-13" d="M113.14,133.24c-1.44,2.08-3.77,5.03-7.57,9.14-.02-.45-.06-.91-.08-1.36-.01-.13-.01-.25-.02-.39,2.7-2.85,4.49-4.94,5.66-6.67.97-1.43,1.61-2.54,2.04-3.38.06.34.08.7.06,1.07-.02.52-.06,1.05-.08,1.57h0Z"/>
      <path class="cls-5" d="M106.42,94.64c-.15.25-.4.39-.67.39-.13,0-.27-.02-.39-.1-.37-.22-.51-.7-.29-1.07l1.43-2.45c.22-.38.69-.51,1.05-.29.36.23.5.69.28,1.07l-1.41,2.45Z"/>
      <path class="cls-5" d="M105.48,141.03c.02.45.06.91.08,1.36-.5.55-1.02,1.1-1.57,1.7-.05-.1-.12-.19-.19-.24-.29-.21-.59-.39-.89-.58.93-.94,1.78-1.82,2.55-2.62.01.13.01.25.02.39Z"/>
      <path class="cls-5" d="M132.71,168.12c-.45-.05-.74-.4-.71-.94.08-2.97.17-5.94.27-8.9.01-.28-.07-.44-.31-.57-.3-.16-.58-.35-.87-.55-.39-.27-.48-.73-.27-1.1.24-.39.7-.51,1.12-.28.12.06.23.13.37.22.01-.12.04-.18.04-.25.1-3.1.19-6.2.27-9.31.01-.11-.1-.28-.19-.35-.28-.19-.59-.35-.87-.55-.37-.25-.47-.69-.27-1.07.21-.36.65-.52,1.05-.35.11.05.21.1.33.16.01-.1.02-.15.02-.21.08-2.46.16-4.92.23-7.38.02-.78.01-.78-.7-1.07l-.07-.04c-.36-.17-.53-.55-.45-.94.08-.36.42-.62.82-.59.15,0,.29.04.46.06,0-.1.01-.18.02-.28.07-2.94.15-5.9.24-8.85.01-.38-.06-.62-.4-.8-.3-.15-.58-.36-.86-.56-.39-.28-.48-.79-.24-1.14.25-.38.73-.47,1.14-.22.13.07.25.15.39.23.02-.08.04-.12.04-.16.02-2.53.1-5.06.05-7.61-.04-1.54-.37-3.04-1.11-4.42-.47-.88-1.09-1.64-2.03-2.02-.27-.11-.62-.17-.89-.1-.89.22-1.51.84-2.02,1.57-.7,1.05-1.05,2.23-1.26,3.52.25-.11.45-.19.64-.27.46-.18.91-.01,1.09.41s.01.86-.44,1.07c-.29.15-.59.31-.91.4-.53.15-.67.46-.65.99.11,4.01.18,8.01.27,12.02.04,1.48.08,2.94.12,4.41.01.52-.23.84-.68.91-.51.08-.92-.25-.94-.82-.07-2.51-.15-5.01-.21-7.53,0-.29-.1-.46-.34-.61-.35-.21-.68-.44-1-.67-.35-.27-.45-.74-.23-1.09.22-.36.7-.48,1.1-.28.12.06.23.13.4.23v-.46c-.04-1.66-.07-3.32-.11-4.98-.02-1.76.05-3.51.53-5.21.28-.96.69-1.89,1.03-2.8-.02.01-.13.05-.22.1-3.18,1.85-4.75,4.6-4.62,8.28.06,1.83.18,3.65.27,5.47.16,3.52.3,7.04.47,10.56.21,4.52.44,9.05.65,13.57.23,4.86.46,9.73.69,14.58.18,3.86.36,7.73.53,11.59.17,3.51.33,7.03.48,10.53.23,4.83.46,9.65.69,14.47.02.58.05,1.16.08,1.74h1.8c0-.84.01-1.65-.01-2.46-.1-3.36-.19-6.72-.31-10.08,0-.15-.12-.33-.24-.41-.3-.24-.65-.42-.98-.65-.34-.24-.42-.69-.22-1.04.23-.38.65-.51,1.05-.34.1.05.19.1.25.12,0-.71.01-1.42,0-2.11-.07-2.17-.15-4.34-.21-6.5-.01-.24-.1-.36-.3-.45-.27-.11-.51-.24-.75-.39-.34-.19-.47-.58-.34-.94.13-.38.46-.58.86-.55.13.02.27.07.45.11v-.42c-.08-2.46-.17-4.92-.24-7.38-.08-2.73-.17-5.45-.24-8.18,0-.24-.08-.38-.28-.48-.31-.18-.63-.39-.93-.58-.41-.28-.52-.75-.29-1.13.24-.4.69-.51,1.12-.28.08.05.17.08.3.15v-.3c-.1-3.05-.19-6.1-.3-9.17,0-.12-.1-.27-.21-.35-.3-.21-.63-.38-.93-.58-.34-.24-.44-.65-.25-1.02.17-.35.54-.52.96-.42.11.04.23.08.37.13-.04-1.39-.08-2.76-.12-4.13-.02-.92-.07-1.83-.07-2.74-.01-.68.65-1.08,1.21-.75.33.18.41.5.42.87.11,3.74.21,7.47.33,11.22.16,5.39.34,10.77.51,16.16.11,3.63.22,7.28.34,10.91.13,4.32.28,8.65.41,12.97.11,3.43.22,6.87.33,10.3.01.3.04.59.06.88h2.64c.01-.06.02-.08.02-.11.13-4.15.27-8.31.39-12.46.01-.13-.11-.3-.22-.39-.29-.22-.62-.39-.92-.61-.35-.24-.45-.71-.24-1.08.23-.38.69-.51,1.09-.3.11.06.22.11.35.18.01-.16.02-.27.02-.38.07-1.97.13-3.96.22-5.94,0-.21.05-.44.16-.61.18-.31.57-.42.89-.31.39.12.57.44.56.93-.08,2.65-.17,5.29-.25,7.95-.11,3.75-.24,7.5-.35,11.25-.02.62,0,1.24,0,1.88h1.83c.36-7.76.73-15.52,1.09-23.29-.19,0-.34-.01-.48,0-1.11.11-1.77-.47-2.16-1.43-.51-1.21-.57-2.47-.19-3.72.36-1.19,1.11-2,2.47-2.07.23-.01.46-.06.71-.08.01-.33.04-.62.06-.91.15-3.17.3-6.36.45-9.53.19-4.01.37-8.01.56-12,.13-2.81.25-5.61.39-8.41.19-4.22.4-8.43.6-12.65.13-2.8.27-5.6.39-8.41.15-3.69-1.43-6.43-4.6-8.3-.1-.06-.22-.1-.41-.18.89,1.42,1.28,2.92,1.55,4.48.34-.15.63-.28.92-.4.46-.18.91-.01,1.1.4.19.44.01.88-.46,1.1-.36.17-.73.34-1.11.47-.23.08-.3.21-.29.45.02.52.02,1.04.01,1.56-.13,5.22-.25,10.44-.39,15.66-.1,3.9-.21,7.79-.33,11.68-.19,6.42-.39,12.83-.58,19.25-.05,1.24-.08,2.48-.15,3.72-.01.52-.4.86-.89.81ZM140.77,174.98c3.22-.02,6.05-1.08,8.48-3.19,2.55-2.22,4.06-5.01,4.43-8.39.17-1.56.22-3.14.31-4.7.18-2.79.35-5.57.53-8.35l.25-4.11c.12-1.87.27-3.74.31-5.62.06-2.19-1.52-4.15-3.62-4.61-2.22-.5-4.44.59-5.39,2.63-.5,1.05-.42,2.17-.37,3.28.22,4.29.45,8.59.65,12.88.16,2.98.28,5.95.45,8.93.18,3.31-1.98,6.12-5.19,6.58-2.08.3-4.17.5-6.26.71-.47.05-.8.24-.97.67-.39,1.01-.35,2.01.07,2.99.1.23.24.31.5.31,1.09-.01,2.18-.01,3.26-.01.85,0,1.71.01,2.55,0ZM112.97,164.83c-.41-.19-.57-.65-.37-1.1.12-.29.25-.57.4-.87-1.43-.58-2.71-1.33-3.85-2.3s-2.08-2.11-2.87-3.4c-.37.13-.73.27-1.09.4-.48.17-.94.01-1.11-.41-.19-.46.02-.91.54-1.11.29-.12.58-.23.88-.34-.19-.61-.45-1.15-.56-1.73-.21-1.08-.4-2.16-.48-3.26-.18-2.14-.28-4.3-.41-6.44,0-.06-.02-.11-.06-.17.56-.59,1.08-1.15,1.57-1.7l.44,6.72c.07,1.16.08,2.34.31,3.48.83,4.17,3.28,7.05,7.17,8.7,1.33.56,2.74.8,4.18.82,1.11.01,2.22,0,3.34,0,.08,0,.17-.01.33-.02-.01-.15-.01-.28-.02-.42-.06-1.3-.12-2.58-.18-3.88h.5v-.55h-.52c-.1-2.01-.18-4.02-.28-6.04-.33.04-.6.05-.87.08-.64.11-1.1-.15-1.16-.67-.07-.55.28-.9.97-.96.31-.02.62-.07.98-.12-.15-3.03-.28-6.04-.42-9.11-.4-.05-.77-.1-1.14-.13-.58-.06-.89-.39-.85-.91.04-.48.4-.75.97-.71.29.02.58.06.91.1,0-.21.01-.39,0-.57-.12-2.66-.24-5.32-.37-7.98-.04-.82.04-.65-.69-.78-.16-.02-.3-.05-.45-.07h.63c.44,0,.77-.35.77-.78,0-.38-.24-.68-.59-.75.04,0,.07.01.11.01,0-.81.02-1.62,0-2.43-.07-1.72-.17-3.44-.24-5.16-.01-.39-.11-.61-.51-.69-.36-.07-.7-.22-1.04-.34-.5-.17-.71-.58-.58-1.04.15-.44.58-.65,1.06-.51.28.08.56.18.83.27.02,0,.05-.01.08-.01,0-.24.01-.48,0-.71-.08-2.54.67-4.82,2.24-6.82.15-.18.17-.3-.01-.47-.24-.21-.46-.44-.68-.67-.35-.38-.35-.87-.02-1.19.31-.31.81-.31,1.16.02.29.27.56.58.82.86,4.58-3.34,9.12-3.34,13.79.02.22-.24.46-.57.75-.85.36-.39.88-.39,1.21-.05.31.34.29.82-.07,1.2-.28.28-.57.55-.87.84,1.87,2.29,2.65,4.89,2.41,7.86.36-.12.67-.22.98-.3.46-.15.88.06,1.03.5.16.44-.06.87-.51,1.04-.42.15-.83.3-1.26.41-.25.07-.35.19-.35.45-.07,1.74-.16,3.5-.23,5.24-.04.84-.07,1.67-.12,2.54.3-.04.57-.08.82-.11.1-.01.19-.01.28,0v.73h.77c.02.44-.24.76-.76.87-.29.06-.59.1-.89.13-.22.02-.31.12-.33.36-.1,2.37-.21,4.74-.31,7.11-.02.58-.06,1.17-.1,1.8.37-.04.7-.08,1.03-.1.5-.02.86.28.91.73.01.07,0,.15-.01.22-.07.35-.37.63-.79.68-.27.02-.52.06-.79.07-.3.01-.45.11-.46.45-.02,1.16-.1,2.33-.16,3.5-.07,1.62-.15,3.26-.22,4.89-.01.1,0,.21,0,.34.36.04.71.08,1.05.12.59.06.94.44.88.92-.06.52-.51.8-1.1.7-.28-.04-.57-.06-.92-.11-.23,4.76-.45,9.5-.68,14.27.64,0,1.32,0,1.34.87.01.51-.29.67-1.41.8-.01.31-.04.64-.05.96-.02.34-.04.67-.05,1.05.57-.06,1.1-.11,1.63-.18.74-.08,1.48-.17,2.22-.27,2.16-.3,3.83-2.28,3.75-4.47-.01-.12-.12-.29-.24-.36-.39-.24-.81-.45-1.22-.68-.52-.29-.7-.76-.46-1.2.24-.42.71-.52,1.22-.25.19.1.37.19.53.28,0-.61.02-1.2,0-1.79-.1-2.06-.22-4.13-.29-6.19-.02-.48-.13-.84-.63-1.03-.3-.11-.58-.31-.86-.48-.41-.27-.53-.71-.29-1.11.22-.38.67-.51,1.09-.3.17.07.33.17.53.28-.02-.68-.06-1.31-.08-1.94-.13-2.56-.25-5.11-.37-7.67-.01-.29-.1-.5-.36-.65-.36-.21-.7-.45-1.04-.69-.29-.19-.45-.47-.45-.74,0-.16.05-.3.15-.45.25-.39.75-.46,1.2-.17.17.11.34.22.54.35.42-1.87,1.41-3.29,3.02-4.26,1.62-.97,3.36-1.09,5.2-.59.24-.42.5-.85.75-1.27.28-.47.73-.63,1.15-.39.44.24.53.71.25,1.21-.11.18-.22.38-.33.56s-.22.38-.34.59l.29.22c1.84,1.42,2.73,3.27,2.6,5.61-.06,1.08-.13,2.14-.19,3.22v.31c.27-.17.48-.31.71-.45.44-.25.93-.13,1.16.25s.12.85-.29,1.13c-.44.28-.86.58-1.32.82-.34.18-.44.42-.46.79-.08,1.68-.19,3.37-.3,5.05-.1,1.65-.21,3.31-.3,4.97-.01.12,0,.25,0,.42.21-.08.37-.17.56-.25.45-.19.89-.04,1.1.38.19.4.05.86-.39,1.09-.37.21-.76.4-1.16.57-.21.08-.27.22-.28.44-.06,1.13-.12,2.25-.22,3.38-.08,1.03-.27,2.02-.57,2.97-.58,2-1.6,3.8-3.01,5.44-.1.12-.19.23-.31.38.28.23.54.46.81.69.4.35.46.86.16,1.21-.29.35-.81.38-1.21.04-.3-.24-.58-.5-.87-.74-.02-.01-.05-.02-.11-.05-2.5,2.08-5.39,3.26-8.72,3.49v1.02c-.01.52-.33.85-.81.85-.47-.01-.79-.33-.79-.84-.01-.33-.01-.65-.01-1.02-.87,0-1.71,0-2.54.01-.06,0-.17.11-.17.18-.05.97-.08,1.95-.13,2.97.3,0,.57-.01.85,0,.5.01.81.34.81.81s-.31.76-.8.79c-.3.02-.74-.06-.89.11-.16.18-.07.59-.08.91-.11,2.19-.22,4.38-.31,6.58-.01.11,0,.23,0,.4h.56c.57,0,.94.33.96.81,0,.48-.37.81-.93.82h-.68c-.15,2.98-.28,5.92-.42,8.93h4.63c.59,0,.93.3.92.81,0,.5-.33.8-.89.8h-21.5c-.57,0-.91-.31-.91-.8-.01-.5.34-.81.92-.81h3.85c-.15-2.98-.28-5.92-.42-8.93h-.73c-.52-.01-.88-.34-.89-.8,0-.46.37-.82.91-.84.18-.01.37,0,.62,0v-.42c-.11-2.4-.22-4.78-.33-7.18-.01-.28-.08-.42-.39-.39-.22.02-.44.01-.65,0-.41-.04-.73-.36-.75-.78-.01-.41.31-.79.74-.82.3-.02.6,0,.94,0-.16-3.34-.3-6.63-.46-9.96-.37,0-.71,0-1.05-.01-.52-.01-.87-.33-.87-.8.01-.47.36-.8.87-.8h.97c-.06-1.51-.13-2.98-.21-4.49h-.47c-1.55-.04-3.1-.05-4.63-.1-.47-.01-.93-.12-1.39-.22-.24-.06-.39-.04-.48.23s-.24.53-.37.79c-.22.42-.69.59-1.09.4Z"/>
      <path class="cls-6" d="M89.79,149.98c.17,0,.35-.06.48-.17,1.32-1.07,2.21-1.65,2.24-1.66.35-.23.45-.71.22-1.08-.23-.35-.71-.46-1.06-.23-.05.04-.97.63-2.35,1.74-.34.28-.39.76-.12,1.09.15.21.36.3.59.3ZM66.24,174.78c0,.12-.15,3.26,1.58,7.38.12.29.41.47.71.47.1,0,.21-.02.3-.07.39-.16.58-.61.41-1.01-1.57-3.75-1.46-6.65-1.46-6.7.01-.44-.3-.79-.74-.81-.42-.02-.79.3-.81.74ZM105.49,209.18c.18,0,.35-.06.5-.18.33-.27.37-.75.11-1.09-1.55-1.87-2.78-2.79-2.83-2.82-.34-.25-.82-.18-1.08.17-.25.34-.18.82.17,1.08.01,0,1.14.85,2.54,2.57.16.18.37.28.59.28ZM61.57,164.2c.22-.36.12-.85-.24-1.08s-.83-.12-1.06.24c-.16.24-3.83,6.08-3.41,13.21.01.41.35.73.76.73h.05c.42-.02.75-.39.73-.81-.37-6.61,3.14-12.23,3.18-12.29ZM58.93,183.95c.71,1.32,1.62,2.59,2.7,3.78.16.16.36.25.57.25.19,0,.39-.07.53-.21.31-.29.33-.78.05-1.09-1-1.1-1.84-2.27-2.49-3.48-.21-.38-.68-.52-1.05-.3-.37.19-.52.67-.3,1.04ZM83.47,212.61c.4,0,.74-.31.77-.71.74-9.77-1.71-16.05-8.42-21.65-1.54-1.27-2.88-2.69-4.01-4.2-.25-.35-.74-.41-1.08-.16s-.41.74-.16,1.08c1.21,1.62,2.64,3.13,4.27,4.48,6.28,5.23,8.55,11.13,7.85,20.32-.02.44.29.8.71.84h.06ZM81.83,223.1c.36,0,.68-.25.75-.61.33-1.5.59-2.86.82-4.17.07-.41-.21-.81-.63-.88-.41-.07-.81.21-.89.63-.22,1.27-.48,2.62-.8,4.09-.1.41.17.82.58.91.06.02.12.02.17.02ZM77.96,163.89c-.12.41.12.85.53.97.07.02.15.02.22.02.33,0,.64-.22.74-.56,1.1-3.77,3.63-7.72,7.32-11.4.31-.29.31-.79.01-1.1-.3-.29-.79-.29-1.1,0-3.93,3.92-6.53,7.98-7.71,12.06ZM119.81,223.43c-2.45,1.13-4.98,2.14-7.57,3.03.02-4.83-.92-9.33-2.83-13.32-.18-.38-.64-.55-1.03-.35-.39.18-.54.64-.36,1.03,1.87,3.92,2.78,8.35,2.67,13.15-7.59,2.46-15.65,3.84-24,4.01,4.99-6.43,3.97-12.25,3.92-12.5-.08-.42-.48-.7-.91-.62-.41.07-.69.48-.62.91.01.05,1.02,6-4.43,12.23-8.1-.04-15.94-1.22-23.36-3.43,1.91-2.28,6.34-8.38,5.65-15.35-.48-4.83-3.34-9.08-8.5-12.62-5.28-3.62-9.08-7.69-11.28-12.11-2.6-5.22-2.39-11.45.53-16.67,3.97-7.03,13.33-19.54,31.65-24.35,11.91-3.14,19.49-6.84,24.24-10.04.07,1.17.15,2.36.22,3.55.04.63.07,1.27.11,1.96-.19-.11-.33-.19-.45-.27-.47-.28-.94-.19-1.21.21-.25.41-.13.88.34,1.17.11.07.21.13.31.19-2.35,2.39-5.22,5.22-8.74,8.65-5.66,5.51-11.87,14.49-9.34,25.97,1.39,6.26,5.22,11.71,10.8,15.36,2.73,1.78,5.51,3.28,8.27,4.46,7.52,3.17,16.42,16.1,15.91,25.74Z"/>
      <path class="cls-5" d="M105.13,135.28v.06c-.48.35-.99.71-1.55,1.09-.04-.46-.06-.92-.08-1.37.18-.15.36-.28.53-.42.35-.29.69-.57,1-.86.04.5.07,1.01.1,1.5Z"/>
      <path class="cls-5" d="M104.42,127.81c-.35.46-.63.98-.82,1.55h-10.08c-.42,0-.77-.35-.77-.78,0-.24.11-.45.27-.58h1.64v-.19h9.77Z"/>
      <path class="cls-1" d="M91.66,167.07h2.61c.65,0,1.31-.17,1.87-.52l2.73-1.67c1.16-.7,1.78-2.08,1.54-3.42l-.23-1.27c-.07-.38-.4-.64-.77-.64h-3.12c-.98,0-1.95.34-2.71.97-3.99,3.23-4.04,3.78-4.09,4.17-.07.59.12,1.2.53,1.66s1,.73,1.63.73ZM94.8,178.83c.4.78,1.12,1.32,1.97,1.51l.77.17.92,1.09c.15.18.36.28.59.28h7.93c.83,0,1.66-.17,2.42-.52l4.9-2.13c.33-.15.51-.48.45-.84l-.82-4.98c-.15-.92-.73-1.73-1.54-2.19l-2.02-1.08-1.4-1.68c-.85-1.03-2.26-1.42-3.52-.96l-6.98,2.52c-.89.33-1.63,1.03-2,1.93l-1.8,4.4c-.33.8-.28,1.71.12,2.48ZM113.91,188.3s2.06,3.31,2.54,8.21c.05.41.39.7.77.7h.07c.42-.05.74-.42.69-.86-.52-5.29-2.67-8.73-2.77-8.88-.22-.38-.7-.48-1.06-.24-.36.22-.46.7-.24,1.07ZM109.14,160.55c1.14.97,2.42,1.72,3.85,2.3-.15.3-.28.58-.4.87-.19.45-.04.91.37,1.1.4.19.87.02,1.09-.4.13-.25.28-.52.37-.79s.24-.29.48-.23c.46.1.92.21,1.39.22,1.54.05,3.08.06,4.63.1h.47c.07,1.51.15,2.98.21,4.49h-.97c-.51,0-.86.33-.87.8,0,.47.35.79.87.8.34.01.68.01,1.05.01.16,3.33.3,6.61.46,9.96-.34,0-.64-.02-.94,0-.42.04-.75.41-.74.82.02.41.34.74.75.78.22.01.44.02.65,0,.3-.04.37.11.39.39.11,2.4.22,4.78.33,7.18v.42c-.24,0-.44-.01-.62,0-.53.01-.91.38-.91.84.01.46.37.79.89.8h.73c.15,3,.28,5.95.42,8.93h-3.85c-.58,0-.93.31-.92.81,0,.48.34.8.91.8h21.5c.57,0,.89-.3.89-.8.01-.51-.33-.81-.92-.81h-4.63c.15-3,.28-5.95.42-8.93h.68c.56-.01.93-.34.93-.82-.01-.48-.39-.81-.96-.81h-.56c0-.17-.01-.29,0-.4.1-2.19.21-4.38.31-6.58.01-.31-.07-.73.08-.91.16-.17.59-.08.89-.11.48-.02.8-.33.8-.79s-.31-.8-.81-.81c-.28-.01-.54,0-.85,0,.05-1.02.08-2,.13-2.97,0-.07.11-.18.17-.18.83-.01,1.67-.01,2.54-.01,0,.36,0,.69.01,1.02,0,.51.31.82.79.84.48,0,.8-.33.81-.85v-1.02c3.33-.23,6.22-1.41,8.72-3.49.06.02.08.04.11.05.29.24.57.5.87.74.4.34.92.31,1.21-.04.3-.35.24-.86-.16-1.21-.27-.23-.53-.46-.81-.69.12-.15.22-.25.31-.38,1.41-1.64,2.43-3.44,3.01-5.44l1.09.33c-.17.58-.12,1.2.17,1.76.39.76,1.17,1.24,2.03,1.24h6.25c.39,0,.71-.29.77-.68l.99.28c-.51,1.85-1.09,3.69-1.73,5.5s-1.34,3.57-2.1,5.32l-2.3,1.2-2.64.8c-1.21.36-2.21,1.21-2.77,2.34-2.13,4.3-2.94,7.16-2.43,8.49.48,1.26,1.09,2.05,1.55,2.51-3.22,4.54-6.86,8.76-10.88,12.58-.57-.59-1.49-1.38-2.37-1.45-.41-.04-.79.07-1.09.29l-3.39,1.53h-10.45c-.42,0-.77.34-.77.78s.35.78.77.78h10.6c.12,0,.22-.02.31-.07l3.63-1.62c.07-.04.13-.07.21-.13.22-.04.82.36,1.41.98-6.03,5.51-12.87,10.17-20.31,13.77.05-10.34-9.05-23.13-16.88-26.44-2.67-1.13-5.38-2.59-8.03-4.31-5.22-3.43-8.83-8.54-10.12-14.4-1.91-8.66,1.08-16.91,8.89-24.52,3.51-3.42,6.4-6.36,8.8-8.9.04.06.06.11.06.17.13,2.14.23,4.3.41,6.44.08,1.1.28,2.18.48,3.26.11.58.36,1.13.56,1.73-.3.11-.59.22-.88.34-.52.21-.74.65-.54,1.11.17.42.63.58,1.11.41.36-.13.71-.27,1.09-.4.79,1.3,1.73,2.43,2.87,3.4ZM110.74,192.57c.5.71,1.79,2.87,1.84,4.08.02.42.36.75.77.75h.05c.42-.02.75-.39.73-.81-.08-1.88-1.9-4.6-2.1-4.89-.24-.36-.73-.45-1.09-.21-.34.24-.44.71-.19,1.08ZM145.98,193.03c.3-.3.3-.8,0-1.09-.3-.3-.79-.31-1.1,0-.67.65-1.77,2.74-2.03,4.76-.06.42.24.81.67.86.04.01.06.01.11.01.37,0,.71-.28.76-.68.23-1.8,1.25-3.51,1.6-3.86Z"/>
      <path class="cls-5" d="M105.13,135.35c.12,1.77.23,3.52.33,5.29-.77.8-1.62,1.67-2.55,2.62-.11-.06-.21-.12-.31-.19-.47-.29-.59-.76-.34-1.17.27-.4.74-.48,1.21-.21.12.07.25.16.45.27-.04-.69-.07-1.33-.11-1.96-.07-1.19-.15-2.37-.22-3.55.56-.38,1.06-.74,1.55-1.09Z"/>
      <path class="cls-5" d="M105.99,209c-.15.12-.31.18-.5.18-.22,0-.44-.1-.59-.28-1.4-1.72-2.53-2.57-2.54-2.57-.35-.25-.42-.74-.17-1.08.25-.35.74-.42,1.08-.17.05.04,1.28.96,2.83,2.82.27.34.22.82-.11,1.09Z"/>
      <polygon class="cls-12" points="102.55 89.17 100.52 91.41 77.89 91.41 76.5 87.79 100.79 87.79 102.55 89.17"/>
      <path class="cls-5" d="M101.62,130.65c.22-.4.71-.53,1.15-.3.16.07.31.17.5.28.08-.34.13-.64.22-.94.04-.11.06-.22.11-.31h1.78c-.33.61-.5,1.32-.47,2.06.02.79.08,1.57.13,2.36-.31.29-.65.57-1,.86-.17.15-.35.28-.53.42-.05-.71-.08-1.43-.12-2.14-.02-.28-.11-.44-.35-.57-.36-.18-.71-.39-1.05-.59-.42-.25-.57-.71-.35-1.11Z"/>
      <path class="cls-5" d="M102.4,12.46v2.82c0,.44-.34.79-.77.79s-.76-.36-.76-.79v-2.82c0-.44.34-.79.76-.79s.77.35.77.79Z"/>
      <path class="cls-5" d="M100.86,64.41c0-.44.34-.78.76-.78s.77.34.77.78v4.76c0,.44-.34.78-.77.78s-.76-.34-.76-.78v-4.76Z"/>
      <path class="cls-5" d="M101.62,59.15c.44,0,.77.35.77.78v.69c0,.42-.34.76-.77.76s-.76-.34-.76-.76v-.69c0-.42.34-.78.76-.78Z"/>
      <path class="cls-5" d="M91.65,165.52h2.61c.37,0,.75-.11,1.08-.3l2.73-1.67c.62-.36.94-1.1.81-1.8l-.11-.64h-2.48c-.63,0-1.25.22-1.74.62-2.39,1.96-3.33,2.91-3.52,3.21,0,.18.08.31.15.39.12.12.29.21.47.21ZM99.41,159.55c.37,0,.7.27.77.64l.23,1.27c.24,1.33-.37,2.71-1.54,3.42l-2.73,1.67c-.57.35-1.22.52-1.87.52h-2.61c-.63,0-1.22-.27-1.63-.73s-.6-1.07-.53-1.66c.05-.39.1-.93,4.09-4.17.76-.63,1.73-.97,2.71-.97h3.12Z"/>
      <polygon class="cls-12" points="99.1 92.96 96.39 95.94 95 96.57 79.89 96.57 78.49 92.96 99.1 92.96"/>
      <path class="cls-12" d="M98.88,161.74c.13.7-.19,1.44-.81,1.8l-2.73,1.67c-.33.19-.7.3-1.08.3h-2.61c-.18,0-.35-.08-.47-.21-.06-.07-.15-.21-.15-.39.19-.3,1.12-1.25,3.52-3.21.5-.4,1.11-.62,1.74-.62h2.48l.11.64Z"/>
      <polygon class="cls-12" points="98.82 86.24 75.54 86.24 65.14 83.27 64.91 82.62 94.2 82.62 98.82 86.24"/>
      <path class="cls-5" d="M95.78,104.11c-.3-.3-.3-.8,0-1.1l7.36-7.38c.29-.3.79-.3,1.09,0s.3.79,0,1.09l-7.36,7.39c-.15.15-.34.23-.54.23-.19,0-.4-.08-.54-.23Z"/>
      <path class="cls-5" d="M94.86,24.18c.39-.17.85.01,1.02.4l1.29,2.98c.17.39-.01.85-.4,1.02-.11.05-.21.07-.31.07-.3,0-.58-.18-.7-.47l-1.31-2.98c-.17-.39.02-.85.41-1.02Z"/>
      <path class="cls-7" d="M94.65,127.81v.19h-1.64c.13-.12.31-.19.51-.19h1.14Z"/>
      <path class="cls-5" d="M94.59,23.56c-.1.05-.19.06-.3.06-.3,0-.58-.17-.71-.46l-.91-2.1c-.17-.4.01-.85.41-1.02.39-.17.85,0,1.02.4l.91,2.1c.17.39-.01.85-.41,1.02Z"/>
      <path class="cls-5" d="M93.65,54.71c.19-.39.64-.56,1.03-.39.39.18.56.64.39,1.03l-1.64,3.62c-.12.29-.41.46-.7.46-.11,0-.21-.01-.31-.06-.4-.18-.57-.64-.39-1.03l1.63-3.63Z"/>
      <polygon class="cls-12" points="92.22 81.07 64.38 81.07 63.13 77.45 87.6 77.45 92.22 81.07"/>
      <polygon class="cls-12" points="91.65 98.14 82.19 102.51 80.49 98.14 91.65 98.14"/>
      <path class="cls-5" d="M89.79,149.98c-.23,0-.45-.1-.59-.3-.27-.33-.22-.81.12-1.09,1.38-1.11,2.3-1.71,2.35-1.74.35-.23.83-.12,1.06.23.23.36.13.85-.22,1.08-.02.01-.92.59-2.24,1.66-.13.11-.31.17-.48.17Z"/>
      <path class="cls-5" d="M82.93,130.17c.18,0,.36.07.51.19l3.52,3.05c.35.3.63.69.82,1.13l.76,1.84c.46,1.08.17,2.33-.73,3.09l-.44.38c-.63.53-1.41.82-2.24.82-.13,0-.29-.01-.44-.04l-2.93-.38h-6.35c-1,0-1.89-.73-2.09-1.71l-.34-1.55c-.18-.85.04-1.71.57-2.37s1.34-1.05,2.2-1.05h1.93l1.26-1.95c.58-.91,1.57-1.45,2.65-1.45h1.32ZM75.43,138.72h6.49l2.97.39c.53.07,1.06-.08,1.46-.44l.45-.38c.37-.33.51-.86.31-1.31l-.77-1.84c-.1-.21-.23-.4-.41-.56l-3.3-2.86h-1.03c-.54,0-1.05.28-1.35.74l-1.48,2.31c-.15.22-.39.35-.65.35h-2.36c-.4,0-.75.17-1,.47-.24.3-.34.7-.25,1.09l.33,1.54c.06.28.31.48.59.48Z"/>
      <path class="cls-5" d="M88.33,34.87l-1.26-.52c-.39-.17-.57-.63-.41-1.02.17-.4.62-.58,1-.41l1.26.53c.4.16.58.62.42,1.01-.13.29-.42.48-.71.48-.11,0-.21-.04-.3-.07Z"/>
      <path class="cls-5" d="M91.64,39.87c0,5.52,4.47,10.03,9.99,10.03s10-4.51,10-10.03-4.49-10.04-10-10.04-9.99,4.51-9.99,10.04ZM111.7,50.35c-.15.15-.35.23-.54.23s-.4-.08-.54-.23l-1.58-1.59c-.65.55-1.37,1.02-2.13,1.42l.15.33c.17.4-.01.85-.41,1.02-.1.04-.21.06-.3.06-.3,0-.59-.17-.71-.46l-.15-.34c-.97.35-2,.57-3.07.64v6.35c0,.42-.34.78-.77.78s-.76-.35-.76-.78v-6.35c-1.28-.08-2.5-.38-3.63-.85l-1.28,2.82c-.12.28-.41.45-.7.45-.11,0-.22-.01-.33-.06-.39-.18-.56-.64-.39-1.03l1.31-2.87c-.92-.53-1.74-1.19-2.48-1.94l-3.49,3.71c-.15.16-.35.24-.56.24-.18,0-.39-.07-.52-.21-.31-.3-.34-.79-.04-1.1l3.6-3.82c-.5-.67-.92-1.39-1.26-2.16l-2.56,1.03c-.1.05-.19.06-.29.06-.3,0-.59-.18-.71-.48-.16-.4.02-.85.42-1.01l2.6-1.05c-.23-.8-.39-1.65-.45-2.52h-3.23c-.44,0-.79-.34-.79-.78s.35-.78.79-.78h3.23c.07-1.11.3-2.18.67-3.19l-.39-.16c-.39-.17-.58-.62-.41-1.02.17-.39.62-.58,1-.41l.42.17c.45-.86,1.02-1.66,1.66-2.39l-7.12-5.98c-.33-.28-.36-.78-.1-1.1.28-.33.76-.36,1.09-.1l7.26,6.09c1.83-1.55,4.12-2.54,6.66-2.71v-9.93c0-.42.34-.78.77-.78s.77.35.77.78v9.93c1.08.07,2.12.3,3.1.64l1.85-3.94c.18-.39.64-.55,1.03-.38.39.19.56.65.37,1.04l-1.83,3.9c.76.4,1.48.87,2.13,1.43l1.68-1.53c.31-.28.8-.27,1.09.06.29.31.27.81-.06,1.09l-1.6,1.45c.82.9,1.5,1.94,2.01,3.06l2.77-1.14c.4-.17.85.02,1.02.41.16.4-.02.86-.42,1.02l-2.82,1.17c.23.8.37,1.62.44,2.48h4.93c.42,0,.77.35.77.78s-.35.78-.77.78h-4.93c-.06,1.01-.27,1.97-.57,2.91l1.29.7c.37.21.51.68.3,1.05-.13.25-.41.4-.68.4-.12,0-.25-.02-.37-.08l-1.14-.63c-.5.99-1.11,1.89-1.85,2.69l1.56,1.56c.3.31.3.8,0,1.1Z"/>
      <path class="cls-12" d="M84.9,139.11l-2.97-.39h-6.49c-.28,0-.53-.21-.59-.48l-.33-1.54c-.08-.39.01-.79.25-1.09.25-.3.6-.47,1-.47h2.36c.27,0,.51-.13.65-.35l1.48-2.31c.3-.46.81-.74,1.35-.74h1.03l3.3,2.86c.18.16.31.35.41.56l.77,1.84c.19.45.06.98-.31,1.31l-.45.38c-.4.35-.93.51-1.46.44Z"/>
      <path class="cls-5" d="M85.17,55.55c-.31-.3-.34-.79-.04-1.1l1.68-1.79c.29-.31.77-.33,1.09-.02.31.29.33.79.04,1.09l-1.68,1.79c-.16.16-.36.24-.57.24-.18,0-.37-.07-.52-.21Z"/>
      <path class="cls-9" d="M129.04,39.86c0,.42.34.78.77.78h3.51c.44,0,.77-.35.77-.78s-.34-.78-.77-.78h-3.51c-.44,0-.77.35-.77.78ZM122.86,62.31c.19,0,.4-.07.54-.23.3-.3.3-.79,0-1.09l-1.93-1.94c-.3-.3-.79-.3-1.09,0s-.3.8,0,1.1l1.93,1.93c.15.16.35.23.54.23ZM122.91,19.45c.16.17.37.25.58.25.18,0,.36-.06.52-.19l1.22-1.11c.31-.29.34-.78.06-1.1-.29-.31-.79-.34-1.1-.05l-1.22,1.11c-.31.28-.34.78-.06,1.09ZM109.35,57.95c-.39.17-.57.62-.41,1.02l.4.94c.12.29.41.47.71.47.1,0,.21-.02.3-.06.39-.17.57-.63.41-1.02l-.4-.94c-.16-.39-.62-.57-1.02-.41ZM108.72,23.89c.11.05.22.07.33.07.29,0,.58-.16.7-.45l1.15-2.42c.18-.39.01-.85-.37-1.04-.39-.17-.85-.01-1.03.38l-1.14,2.43c-.19.39-.02.86.36,1.03ZM108.07,56.89c.12.29.41.47.71.47.1,0,.19-.02.29-.06.41-.17.58-.63.42-1.02l-1.35-3.21c-.17-.4-.63-.58-1.02-.41-.4.17-.58.62-.41,1.02l1.35,3.21ZM101.62,59.15c-.42,0-.76.35-.76.78v.69c0,.42.34.76.76.76s.77-.34.77-.76v-.69c0-.42-.34-.78-.77-.78ZM100.86,69.17c0,.44.34.78.76.78s.77-.34.77-.78v-4.76c0-.44-.34-.78-.77-.78s-.76.34-.76.78v4.76ZM100.86,15.29c0,.42.34.79.76.79s.77-.35.77-.79v-2.82c0-.44-.34-.79-.77-.79s-.76.35-.76.79v2.82ZM94.86,24.18c-.39.17-.58.63-.41,1.02l1.31,2.98c.12.29.4.47.7.47.11,0,.21-.02.31-.07.39-.17.57-.63.4-1.02l-1.29-2.98c-.17-.39-.63-.57-1.02-.4ZM94.28,23.62c.11,0,.21-.01.3-.06.4-.17.58-.63.41-1.02l-.91-2.1c-.17-.4-.63-.57-1.02-.4-.4.17-.58.62-.41,1.02l.91,2.1c.13.29.41.46.71.46ZM94.68,54.32c-.39-.17-.83,0-1.03.39l-1.63,3.63c-.18.39-.01.85.39,1.03.11.05.21.06.31.06.29,0,.58-.17.7-.46l1.64-3.62c.17-.39,0-.85-.39-1.03ZM87.67,32.92c-.39-.17-.83.01-1,.41-.16.39.02.85.41,1.02l1.26.52c.1.04.19.07.3.07.29,0,.58-.19.71-.48.16-.39-.02-.85-.42-1.01l-1.26-.53ZM85.23,39.86c0-.42-.35-.78-.77-.78h-5.99c-.44,0-.77.35-.77.78s.34.78.77.78h5.99c.42,0,.77-.35.77-.78ZM85.69,55.75c.21,0,.41-.08.57-.24l1.68-1.79c.29-.3.28-.8-.04-1.09-.31-.3-.8-.29-1.09.02l-1.68,1.79c-.3.31-.28.8.04,1.1.15.13.34.21.52.21ZM84.96,33.38c.3,0,.58-.17.71-.47.16-.39-.02-.85-.41-1.02l-1.35-.57c-.39-.17-.85.02-1.02.41-.16.4.02.86.41,1.02l1.35.57c.1.05.21.06.3.06ZM119.73,39.86c0,.42.34.78.77.78h6.78c.42,0,.77-.35.77-.78s-.35-.78-.77-.78h-6.78c-.44,0-.77.35-.77.78ZM118.18,57.93c.15.16.35.23.54.23s.4-.07.54-.23c.3-.3.3-.79,0-1.09l-5.54-5.56c-.3-.3-.8-.3-1.1,0s-.3.79,0,1.09l5.55,5.56ZM116.61,34.16c.13.3.42.47.71.47.11,0,.21-.01.3-.06l1.27-.53c.4-.16.58-.61.42-1.02-.16-.39-.62-.58-1-.41l-1.28.53c-.4.17-.58.62-.42,1.02ZM36.83,47.57c.3,0,.59-.18.71-.47.3-.7.45-1.45.45-2.22,0-3.14-2.54-5.68-5.66-5.68-.53,0-1.05.07-1.55.21-.02-4.97-4.06-9-9.02-9-.19,0-.39.01-.58.02C36.63,12.38,59.51.93,85.02.93c22.46,0,43.58,8.78,59.49,24.73.86.87,1.69,1.74,2.5,2.64h-8.59c-.44,0-.79.34-.79.78s.35.78.79.78h9.98c5.9,6.76,10.62,14.32,14.05,22.42l-2.64-1.55c.17-.4-.02-.85-.41-1.02-1.08-.46-2.22-.69-3.41-.69-4.82,0-8.75,3.95-8.75,8.79,0,.24.01.48.02.71-.51-.13-1.04-.21-1.57-.21-3.41,0-6.18,2.79-6.18,6.2,0,1.02.23,1.99.7,2.88.12.27.39.41.67.41v.08l19.78,1.09c-.01.07-.02.13-.02.21,0,.42.34.78.77.78h6.34c.92,5.03,1.39,10.16,1.39,15.38v12.14l-7.27-5.4h-.02s-.07-.04-.1-.06c-.01-.01-.02-.01-.04-.02-.05-.02-.1-.04-.16-.05l-11.95-2.36-8.48-10.5c-.06-.07-.15-.15-.23-.19l-10.62-5.81-1.06-1.48-4.5-6.23s-.01-.01-.01-.01c-.05-.07-.12-.13-.19-.18-.01,0-.02,0-.02-.01-.07-.05-.16-.08-.24-.1h-.01s-.08-.02-.15-.02h-.01s-.06.01-.1.01c-.01.01-.02.01-.02.01-.1.01-.18.05-.25.08t-.02.01l-1.66,1.03-11.29,7.03c-.15.1-.27.24-.31.41l-3.68,11-3.14,3.4-17.44-13.68c-.08-.07-.18-.12-.29-.15l-6.06-1.45-2.74-5.23c-.08-.16-.22-.28-.37-.35l-3.56-1.55h-.01s-6.2-2.7-6.2-2.7v-6.35c0-.19-.07-.38-.19-.51l-12.44-14.04s-.01,0-.01-.01c-.02-.02-.05-.05-.08-.07l-.04-.04s-.1-.06-.13-.07h-.01s-.11-.04-.16-.05c-.01-.01-.04-.01-.05-.01-.02,0-.06-.01-.1-.01h-.04s-.04.01-.05.01c-.04.01-.06.01-.1.02-.02,0-.04.01-.06.01-.04.01-.06.02-.1.04-.02.01-.04.02-.05.04-.04.01-.06.04-.08.05-.01.01-.02.02-.04.02t-.01.02s-.06.05-.08.08l-.02.02-5.63,7.92h-3.74c-.25,0-.5.13-.64.35l-10.08,15.25-10.18,2.81c-.21.05-.36.18-.47.35l-4.12,7.16h-2.42c-.13,0-.25.02-.37.08l-14.51,7.98c.15-9.02,1.71-17.71,4.47-25.85h10.41c.42,0,.77-.35.77-.78,0-.18-.06-.34-.16-.47l13.52-1.82,6.63-7.59c.1.04.18.06.28.06ZM83.61,47.59c.1,0,.19-.04.29-.06l1.12-.46c.39-.16.58-.61.42-.99-.16-.4-.62-.59-1-.44l-1.12.45c-.4.16-.58.62-.42,1.01.12.3.41.5.71.5ZM81.16,21.11c-.28.33-.23.81.1,1.08l2.01,1.7c.15.11.33.17.5.17.22,0,.44-.08.59-.28.28-.33.23-.81-.1-1.09l-2.01-1.68c-.33-.27-.81-.23-1.09.11ZM79.41,20.64c.15.12.31.18.5.18.22,0,.44-.08.59-.28.27-.33.23-.81-.1-1.09l-1.23-1.03c-.33-.28-.81-.23-1.09.1-.27.34-.23.82.1,1.09l1.23,1.03ZM78.15,62.99c.15.13.34.21.52.21.21,0,.42-.08.57-.24l5.25-5.57c.29-.3.27-.8-.04-1.09-.3-.3-.8-.29-1.09.02l-5.25,5.57c-.3.31-.28.81.04,1.1ZM115.12,45.83c-.21.38-.06.85.31,1.05l4.05,2.22c.12.06.24.1.37.1.27,0,.53-.15.68-.4.21-.39.07-.86-.31-1.05l-4.05-2.23c-.37-.21-.85-.06-1.05.31ZM113.3,27.13c-.31.29-.34.78-.06,1.1.16.17.36.25.57.25.19,0,.37-.07.52-.19l7.67-6.96c.31-.29.34-.78.06-1.09-.29-.31-.77-.35-1.09-.06l-7.67,6.95ZM111.15,50.58c.19,0,.4-.08.54-.23.3-.3.3-.79,0-1.1l-1.56-1.56c.74-.8,1.35-1.7,1.85-2.69l1.14.63c.12.06.25.08.37.08.27,0,.54-.15.68-.4.21-.38.07-.85-.3-1.05l-1.29-.7c.3-.93.51-1.9.57-2.91h4.93c.42,0,.77-.34.77-.78s-.35-.78-.77-.78h-4.93c-.06-.86-.21-1.68-.44-2.48l2.82-1.17c.4-.16.58-.62.42-1.02-.17-.39-.62-.58-1.02-.41l-2.77,1.14c-.51-1.13-1.19-2.17-2.01-3.06l1.6-1.45c.33-.28.35-.78.06-1.09-.29-.33-.77-.34-1.09-.06l-1.68,1.53c-.65-.56-1.37-1.03-2.13-1.43l1.83-3.9c.18-.39.01-.85-.37-1.04-.39-.17-.85-.01-1.03.38l-1.85,3.94c-.98-.34-2.02-.57-3.1-.64v-9.93c0-.42-.35-.78-.77-.78s-.77.35-.77.78v9.93c-2.54.17-4.84,1.16-6.66,2.71l-7.26-6.09c-.33-.27-.81-.23-1.09.1-.27.33-.23.82.1,1.1l7.12,5.98c-.64.73-1.21,1.53-1.66,2.39l-.42-.17c-.39-.17-.83.02-1,.41-.17.4.02.85.41,1.02l.39.16c-.36,1.01-.59,2.07-.67,3.19h-3.23c-.44,0-.79.35-.79.78s.35.78.79.78h3.23c.06.87.22,1.72.45,2.52l-2.6,1.05c-.4.16-.58.61-.42,1.01.12.3.41.48.71.48.1,0,.19-.01.29-.06l2.56-1.03c.34.76.76,1.49,1.26,2.16l-3.6,3.82c-.3.31-.28.8.04,1.1.13.13.34.21.52.21.21,0,.41-.08.56-.24l3.49-3.71c.74.75,1.56,1.41,2.48,1.94l-1.31,2.87c-.17.39,0,.85.39,1.03.11.05.22.06.33.06.29,0,.58-.17.7-.45l1.28-2.82c1.12.47,2.35.76,3.63.85v6.35c0,.42.34.78.76.78s.77-.35.77-.78v-6.35c1.08-.07,2.1-.29,3.07-.64l.15.34c.12.29.41.46.71.46.1,0,.21-.02.3-.06.4-.17.58-.62.41-1.02l-.15-.33c.76-.4,1.48-.87,2.13-1.42l1.58,1.59c.15.15.35.23.54.23ZM76.21,39.86c0-.42-.34-.78-.77-.78h-4.72c-.42,0-.77.35-.77.78s.35.78.77.78h4.72c.44,0,.77-.35.77-.78ZM71.49,11.02c0-.44-.35-.79-.77-.79h-14.47c-.44,0-.77.35-.77.79s.34.78.77.78h14.47c.42,0,.77-.35.77-.78ZM54.49,20.76c0-.44-.35-.79-.77-.79h-13.65c-.42,0-.77.35-.77.79s.35.78.77.78h13.65c.42,0,.77-.35.77-.78Z"/>
      <path class="cls-12" d="M79.12,74.19l6.23,1.49.27.22h-23l-1.25-3.62h16.45l.8,1.53c.1.19.29.34.51.39Z"/>
      <path class="cls-5" d="M84.45,39.09c.42,0,.77.35.77.78s-.35.78-.77.78h-5.99c-.44,0-.77-.35-.77-.78s.34-.78.77-.78h5.99Z"/>
      <path class="cls-5" d="M83.61,47.59c-.3,0-.59-.19-.71-.5-.16-.39.02-.85.42-1.01l1.12-.45c.39-.16.85.04,1,.44.16.39-.04.84-.42.99l-1.12.46c-.1.02-.19.06-.29.06Z"/>
      <path class="cls-5" d="M82.89,31.73c.17-.39.63-.58,1.02-.41l1.35.57c.39.17.57.63.41,1.02-.13.3-.41.47-.71.47-.1,0-.21-.01-.3-.06l-1.35-.57c-.39-.16-.57-.62-.41-1.02Z"/>
      <path class="cls-5" d="M82.58,222.5c-.07.35-.39.61-.75.61-.05,0-.11,0-.17-.02-.41-.08-.68-.5-.58-.91.31-1.48.58-2.82.8-4.09.08-.42.48-.7.89-.63.42.07.7.47.63.88-.23,1.31-.5,2.66-.82,4.17Z"/>
      <path class="cls-5" d="M81.16,21.11c.28-.34.76-.38,1.09-.11l2.01,1.68c.33.28.37.76.1,1.09-.16.19-.37.28-.59.28-.17,0-.35-.06-.5-.17l-2.01-1.7c-.33-.27-.37-.75-.1-1.08Z"/>
      <path class="cls-5" d="M78.15,62.99c-.31-.29-.34-.79-.04-1.1l5.25-5.57c.29-.31.79-.33,1.09-.02.3.29.33.79.04,1.09l-5.25,5.57c-.15.16-.36.24-.57.24-.18,0-.37-.07-.52-.21Z"/>
      <path class="cls-5" d="M78.49,164.86c-.41-.12-.65-.56-.53-.97,1.19-4.08,3.78-8.14,7.71-12.06.31-.29.8-.29,1.1,0,.3.31.3.81-.01,1.1-3.69,3.68-6.22,7.63-7.32,11.4-.1.34-.41.56-.74.56-.07,0-.15,0-.22-.02Z"/>
      <path class="cls-5" d="M78.08,18.52c.28-.33.76-.38,1.09-.1l1.23,1.03c.33.28.36.76.1,1.09-.16.19-.37.28-.59.28-.18,0-.35-.06-.5-.18l-1.23-1.03c-.33-.27-.36-.75-.1-1.09Z"/>
      <path class="cls-12" d="M75.82,68.48l1.17,2.24h-16.16l-.06-.19c-.05-.16-.16-.29-.29-.39l-3.37-2.36v-.68h15.55l3.16,1.38Z"/>
      <path class="cls-5" d="M75.43,39.09c.44,0,.77.35.77.78s-.34.78-.77.78h-4.72c-.42,0-.77-.35-.77-.78s.35-.78.77-.78h4.72Z"/>
      <path class="cls-5" d="M111.13,105.06s.05.01.07.02c.27.05.54.13.81.23.07.01.13.04.21.06.28.11.56.21.82.34.01.01.02.01.02.01,0-.02.01-.05.02-.07.04-.31.1-.64.16-.94.01-.01.01-.02.01-.05.07-.31.16-.63.25-.94.01,0,.01-.02.01-.02.1-.3.21-.61.33-.9.01-.02.02-.06.04-.08.12-.29.25-.55.4-.82.01-.04.04-.07.06-.11.13-.27.29-.52.45-.76.04-.04.06-.08.08-.12.16-.24.34-.48.51-.71.02-.04.06-.07.08-.11.18-.23.39-.46.58-.67l.08-.08c.21-.22.44-.44.65-.64.02-.01.04-.02.05-.04.24-.22.48-.41.74-.61t.01-.01c.25-.18.51-.35.79-.52.02-.02.05-.04.07-.06.25-.15.52-.3.79-.44.04-.01.07-.04.12-.05.27-.15.53-.25.81-.36.05-.02.08-.04.13-.05.28-.11.56-.21.85-.29.05-.01.1-.02.15-.05.28-.08.58-.16.87-.21.05,0,.08-.02.12-.02.31-.05.63-.1.94-.13h.07c.34-.04.68-.05,1.02-.05,4.04,0,7.81,2.19,9.82,5.71.18.31.13.69-.11.93-.05.05-.11.1-.17.13-.37.22-.85.08-1.06-.29-1.74-3.03-4.99-4.93-8.5-4.93-5.32,0-9.7,4.34-9.79,9.67v.05s0,.05-.01.08c0,.01,0,.04-.01.05t-.01.05s-.01.02-.01.05c-.01.04-.04.06-.05.08,0,.01-.01.02-.01.04,0,0,0,.01-.01.01-.01.04-.05.06-.06.08s-.02.04-.04.05-.02.01-.02.02c-.01.01-.02.02-.05.04l-.04.04s-.04.01-.05.02c0,0-.01.01-.02.01,0,.01-.01.01-.01.01-.05.02-.11.04-.16.06h-.04s-.04.01-.05.01h-.17s-.06,0-.08-.01c-.02,0-.04-.01-.06-.01-.01-.01-.02-.01-.04-.02-.01,0-.04,0-.05-.01-.02-.01-.06-.02-.08-.04-.01-.01-.02-.01-.05-.02-1.25-.82-2.71-1.26-4.21-1.26-4.23,0-7.67,3.42-7.73,7.64,2.18,1.68,3.52,4.29,3.59,7.06.02.42-.31.78-.75.79h-.02c-.41,0-.76-.33-.77-.75-.07-2.45-1.26-4.68-3.26-6.09-1.32-.92-2.85-1.42-4.46-1.42-1.98,0-3.88.76-5.33,2.13t-.01.01s-.05.06-.08.07c-.05.04-.1.06-.16.08h-.01c-.08.02-.18.05-.28.05h-.01c-.1-.01-.18-.02-.28-.06t-.01-.01c-.08-.05-.16-.1-.23-.17l-.02-.02s-.05-.06-.06-.08c-1.49-2.23-3.98-3.56-6.64-3.56-4.4,0-7.99,3.6-7.99,8.02,0,.17.01.34.02.51v.13s-.01.05-.01.07-.01.05-.01.07c-.01.02-.01.05-.02.07s-.02.05-.04.06l-.04.07s-.02.04-.05.06c-.01.01-.04.04-.05.06-.02.01-.04.02-.04.04t-.02.01s-.05.04-.07.05c-.01.01-.02.02-.05.04-.02.02-.05.02-.07.04s-.05.02-.06.02c-.04,0-.05.01-.07.01-.04.01-.06.01-.08.01t-.01.01h-.07c-.08-.01-.17-.02-.25-.05-.01,0-.02-.01-.02-.01-.07-.04-.15-.07-.22-.13l-.02-.02s-.02-.02-.05-.04c-1.03-1.19-2.52-1.85-4.08-1.85-2.99,0-5.41,2.43-5.41,5.41,0,.74.13,1.45.41,2.12.07.15.07.29.06.42,0,.05.01.08.01.12v.07h-2.04v.53h1.75c-.13.11-.3.17-.48.17h-7.13c-.3,0-.57-.17-.69-.44h2.35v-.59h-2.38c.1-.3.39-.52.73-.52h6.14c-.17-.61-.27-1.24-.27-1.89,0-3.84,3.12-6.98,6.97-6.98,1.41,0,2.78.45,3.93,1.24.54-4.75,4.58-8.47,9.47-8.47,2.88,0,5.59,1.31,7.4,3.55,1.62-1.3,3.64-2,5.73-2,1.48,0,2.89.35,4.18,1.01.53-4.64,4.46-8.24,9.21-8.24.3,0,.62.01.92.05.07,0,.15.01.22.02.29.04.59.08.88.15Z"/>
      <path class="cls-5" d="M83.41,212.61c-.42-.04-.74-.4-.71-.84.7-9.19-1.57-15.09-7.85-20.32-1.63-1.36-3.06-2.86-4.27-4.48-.25-.34-.18-.82.16-1.08s.82-.19,1.08.16c1.14,1.51,2.48,2.93,4.01,4.2,6.71,5.6,9.15,11.87,8.42,21.65-.04.4-.37.71-.77.71h-.06Z"/>
      <path class="cls-5" d="M70.72,10.24c.42,0,.77.35.77.79s-.35.78-.77.78h-14.47c-.44,0-.77-.35-.77-.78s.34-.79.77-.79h14.47Z"/>
      <path class="cls-5" d="M66.24,174.78c.02-.44.39-.76.81-.74.44.02.75.38.74.81,0,.05-.11,2.94,1.46,6.7.17.4-.02.85-.41,1.01-.1.05-.21.07-.3.07-.3,0-.59-.18-.71-.47-1.73-4.12-1.58-7.26-1.58-7.38Z"/>
      <path class="cls-5" d="M68.07,103.34c.39-.18.85-.02,1.04.35l1.27,2.62c.18.39.02.86-.35,1.04-.11.06-.23.07-.34.07-.29,0-.57-.16-.7-.42l-1.28-2.62c-.18-.39-.02-.86.36-1.04Z"/>
      <path class="cls-12" d="M65.38,63.42c0,.31.17.59.46.71l3.25,1.42h-11.98v-3.62h8.27v1.49Z"/>
      <path class="cls-12" d="M65.38,56.88v3.51h-8.74l-2.15-2.88v-.74h10.51c.1,0,.17-.01.24-.04l.15.15Z"/>
      <polygon class="cls-12" points="60.69 51.6 63.91 55.22 54.49 55.22 54.49 51.6 60.69 51.6"/>
      <path class="cls-5" d="M60.91,144.37c-.36,0-.69-.27-.75-.64-.58-3.17,2.55-7.52,2.68-7.72.25-.34.74-.41,1.09-.17.34.25.41.74.16,1.1-.8,1.1-2.79,4.42-2.41,6.5.07.42-.22.82-.63.91-.05,0-.1.01-.15.01Z"/>
      <path class="cls-5" d="M60.27,163.36c.23-.36.7-.47,1.06-.24s.46.71.24,1.08c-.04.06-3.56,5.68-3.18,12.29.02.42-.3.79-.73.81h-.05c-.41,0-.75-.31-.76-.73-.42-7.13,3.25-12.97,3.41-13.21Z"/>
      <path class="cls-5" d="M59.23,182.91c.37-.22.85-.07,1.05.3.65,1.21,1.49,2.37,2.49,3.48.28.31.27.8-.05,1.09-.15.13-.34.21-.53.21-.21,0-.41-.1-.57-.25-1.08-1.19-1.98-2.46-2.7-3.78-.22-.38-.07-.85.3-1.04Z"/>
      <polygon class="cls-12" points="54.49 44.59 59.32 50.05 54.49 50.05 54.49 44.59"/>
      <path class="cls-5" d="M59.08,87.79l1.93,5.34,3.78,1.43c.21.07.36.23.45.44l1.5,3.72c.16.4-.02.86-.42,1.02-.1.04-.19.06-.29.06-.3,0-.59-.19-.71-.5l-1.39-3.42-3.8-1.43c-.21-.07-.37-.24-.46-.46l-2.06-5.68c-.13-.41.07-.85.47-.99s.85.06.99.47Z"/>
      <path class="cls-5" d="M58.3,138.35c.41.11.65.55.53.96,0,.02-.89,3.14-1.06,4.4-.06.38-.39.67-.77.67-.02,0-.07-.01-.11-.01-.41-.06-.71-.46-.65-.88.21-1.37,1.08-4.47,1.11-4.6.11-.4.54-.64.96-.52Z"/>
      <path class="cls-5" d="M58.93,210.07c.29.31.27.81-.06,1.09-1.66,1.48-4.18,4.42-3.88,5.98.08.42-.19.84-.6.92-.05,0-.1.01-.16.01-.35,0-.68-.25-.75-.62-.59-2.94,3.86-7,4.37-7.45.31-.29.81-.27,1.09.06Z"/>
      <path class="cls-5" d="M53.71,19.97c.42,0,.77.35.77.79s-.35.78-.77.78h-13.65c-.42,0-.77-.35-.77-.78s.35-.79.77-.79h13.65Z"/>
      <path class="cls-5" d="M52.42,204.7c.42,0,.77.35.77.79s-.35.76-.77.76h-2.39c-.42,0-.77-.34-.77-.76s.35-.79.77-.79h2.39Z"/>
      <path class="cls-5" d="M44.78,147l1.25.17v-10.22c-1.79,1.61-3.3,1.8-3.39,1.82h-.08c-.39,0-.73-.29-.76-.69-.05-.42.25-.8.68-.86.08-.01,1.74-.27,3.56-2.52v-1.7c-1.8,1.61-3.31,1.8-3.39,1.82h-.08c-.4,0-.73-.29-.76-.69-.05-.42.24-.8.67-.86.08-.01,1.74-.27,3.56-2.52v-1.7c-1.79,1.61-3.3,1.8-3.37,1.82h-.1c-.39,0-.73-.29-.76-.69-.05-.42.25-.8.68-.86.07-.01,1.23-.19,2.67-1.57l.21-.23,2.86.02.19.21c1.45,1.39,2.62,1.56,2.68,1.57.42.06.71.44.68.86-.06.4-.39.69-.77.69-.02,0-.06,0-.08-.01-.08,0-1.58-.19-3.36-1.79v1.7c1.81,2.24,3.46,2.5,3.53,2.51.44.05.73.44.68.86-.05.39-.37.68-.76.68h-.08c-.08,0-1.58-.21-3.37-1.79v1.7c1.81,2.24,3.47,2.48,3.54,2.5.42.06.73.45.68.87-.05.39-.37.68-.76.68h-.1c-.07-.01-1.58-.21-3.36-1.8v10.43l2.33.33h5.5c.42,0,.82.35.82.78s-.34.78-.77.78h-5.67l-4.99-.7-4.4,1.39c-.08.02-.16.04-.24.04-.33,0-.63-.22-.73-.55-.13-.4.1-.85.5-.97l4.57-1.44c.1-.04.23-.05.34-.02Z"/>
      <path class="cls-5" d="M50.61,220.65c-.28,0-.56-.16-.68-.42-1.2-2.4,1.52-6.71,1.84-7.18.24-.36.71-.46,1.08-.22.35.22.45.71.22,1.07-.99,1.54-2.36,4.42-1.75,5.63.19.39.04.85-.35,1.04-.11.06-.22.08-.35.08Z"/>
      <path class="cls-5" d="M50.36,71.51v6.84c0,.42-.35.78-.77.78s-.77-.35-.77-.78v-6.84c0-.44.35-.79.77-.79s.77.35.77.79Z"/>
      <path class="cls-5" d="M48.08,94.3c-.41-.04-.73-.42-.68-.85l1.43-12.45c.04-.42.42-.74.85-.68.42.05.73.44.68.86l-1.41,12.44c-.04.39-.39.69-.77.69-.01,0-.05,0-.08-.01Z"/>
      <path class="cls-5" d="M46.56,101.08c-.41-.11-.65-.53-.56-.94l.79-2.98c.11-.41.53-.65.94-.56.41.12.65.53.54.94l-.77,2.98c-.1.34-.4.58-.75.58-.06,0-.12-.01-.19-.02Z"/>
      <path class="cls-5" d="M47.52,61.42c-.15,0-.29-.05-.42-.13-.36-.23-.45-.71-.22-1.07l1.03-1.56c.24-.35.71-.45,1.08-.22.35.24.46.73.22,1.08l-1.04,1.56c-.13.22-.39.34-.64.34Z"/>
      <path class="cls-5" d="M46.14,122.66c.15-.18.35-.28.56-.29h.12c.22.01.42.11.57.29,1.86,2.43,3.63,2.69,3.69,2.7.44.06.73.45.68.86-.05.4-.37.69-.76.69h-.1c-.07-.01-1.58-.21-3.35-1.8v1.71c.1.11.18.22.28.33h-2.12c.1-.11.19-.23.3-.36v-1.68c-1.79,1.61-3.3,1.8-3.39,1.82h-.08c-.39,0-.73-.3-.77-.69-.04-.42.27-.8.68-.86.1-.01,1.84-.28,3.7-2.7Z"/>
      <path class="cls-8" d="M53.47,217.46c.07.36.4.62.75.62.06,0,.11-.01.16-.01.41-.08.69-.5.6-.92-.3-1.56,2.22-4.51,3.88-5.98.33-.28.35-.78.06-1.09-.28-.33-.77-.35-1.09-.06-.51.45-4.96,4.51-4.37,7.45ZM50.61,220.65c.13,0,.24-.02.35-.08.39-.19.54-.65.35-1.04-.6-1.21.76-4.09,1.75-5.63.23-.35.13-.85-.22-1.07-.36-.24-.83-.15-1.08.22-.31.47-3.04,4.78-1.84,7.18.12.27.4.42.68.42ZM45.1,220.86c-6.84-3.71-13.11-8.33-18.63-13.71l5.7-1.94c.59-.19,1.25-.19,1.84.01l3.95,1.39c.08.02.17.04.25.04h8.25c.44,0,.77-.34.77-.76s-.34-.78-.77-.78h-8.1l-3.26-1.16v-13.13c2.53,2.51,4.74,2.79,4.85,2.8h.08c.39,0,.73-.28.77-.68.05-.41-.25-.8-.68-.86-.02,0-2.47-.36-5.03-3.56v-3.04c2.53,2.51,4.74,2.79,4.85,2.8h.08c.39,0,.73-.29.77-.68.05-.42-.25-.81-.68-.86-.02,0-2.47-.36-5.03-3.57v-3.03c2.53,2.5,4.74,2.79,4.85,2.8h.08c.39,0,.73-.29.77-.68.01-.13,0-.25-.05-.36h3.12c.25,2.14.87,4.28,1.86,6.26,2.32,4.65,6.29,8.93,11.79,12.69,4.78,3.27,7.41,7.12,7.85,11.48.68,6.92-4.38,13.18-5.73,14.72-4.43-1.41-8.71-3.17-12.78-5.26-.15-1.84-1.49-4.19-1.66-4.48-.22-.36-.69-.5-1.05-.28-.37.22-.5.7-.28,1.07.4.68.93,1.78,1.23,2.76ZM53.19,205.49c0-.44-.35-.79-.77-.79h-2.39c-.42,0-.77.35-.77.79s.35.76.77.76h2.39c.42,0,.77-.34.77-.76Z"/>
      <path class="cls-14" d="M6.31,91.92c.13,0,.28-.04.42-.12l11.84-7.75c.36-.24.46-.73.23-1.08-.23-.36-.71-.46-1.06-.23l-11.86,7.75c-.35.24-.46.71-.22,1.08.15.23.39.35.65.35ZM69.69,107.43c.11,0,.23-.01.34-.07.37-.18.53-.65.35-1.04l-1.27-2.62c-.19-.38-.65-.53-1.04-.35s-.54.65-.36,1.04l1.28,2.62c.13.27.41.42.7.42ZM105.76,95.02c.27,0,.52-.13.67-.39l1.41-2.45c.22-.38.08-.84-.28-1.07-.36-.22-.83-.08-1.05.29l-1.43,2.45c-.22.36-.08.85.29,1.07.12.07.25.1.39.1ZM96.33,104.34c.21,0,.4-.08.54-.23l7.36-7.39c.3-.3.3-.79,0-1.09s-.8-.3-1.09,0l-7.36,7.38c-.3.3-.3.8,0,1.1.15.15.35.23.54.23ZM60.13,94.45l3.8,1.43,1.39,3.42c.12.3.41.5.71.5.1,0,.19-.02.29-.06.4-.16.58-.62.42-1.02l-1.5-3.72c-.08-.21-.24-.36-.45-.44l-3.78-1.43-1.93-5.34c-.15-.41-.59-.62-.99-.47s-.6.58-.47.99l2.06,5.68c.08.22.25.39.46.46ZM24.34,105.37c.25,0,.51-.13.65-.36,2.39-3.85,5.15-8.08,5.62-8.55.33-.25.4-.73.16-1.07-.25-.34-.74-.42-1.08-.17-.68.48-4.06,5.81-6.02,8.96-.22.36-.11.84.25,1.07.13.08.28.12.41.12ZM34.12,81.07c.27,0,.53-.13.68-.38l5.61-9.46,5.63-6.46c.29-.33.25-.81-.07-1.09-.31-.29-.81-.25-1.09.06l-5.68,6.53s-.06.07-.08.11l-5.65,9.51c-.22.36-.1.84.27,1.07.12.07.27.11.39.11ZM114.51,87.79c.31,0,.6-.19.73-.51l3.08-8.26c.16-.41-.05-.86-.45-1.01s-.85.06-.99.46l-3.1,8.26c-.15.41.05.85.45.99.08.05.18.06.28.06ZM21.25,82.62c.19,0,.39-.07.53-.21l3.1-2.96c.3-.29.33-.78.02-1.09-.29-.3-.79-.33-1.09-.02l-3.1,2.93c-.3.3-.33.79-.02,1.1.16.16.35.24.56.24ZM48.82,78.36c0,.42.35.78.77.78s.77-.35.77-.78v-6.84c0-.44-.35-.79-.77-.79s-.77.35-.77.79v6.84ZM55.61,127.15h-7.79c-.1-.11-.18-.22-.28-.33v-1.71c1.77,1.6,3.28,1.79,3.35,1.8h.1c.39,0,.71-.29.76-.69.05-.41-.24-.8-.68-.86-.06-.01-1.83-.27-3.69-2.7-.15-.18-.35-.28-.57-.29h-.12c-.21.01-.41.11-.56.29-1.86,2.42-3.6,2.69-3.7,2.7-.41.06-.71.44-.68.86.05.39.39.69.77.69h.08c.08-.01,1.6-.21,3.39-1.82v1.68c-.11.13-.21.25-.3.36h-10.51v-6.2c1.78,1.6,3.28,1.79,3.36,1.79h.08c.39,0,.73-.28.76-.68.01-.44-.29-.82-.71-.88-.07,0-1.73-.25-3.54-2.5v-1.7c1.78,1.6,3.29,1.79,3.37,1.79.02.01.05.01.08.01.39,0,.71-.3.76-.69.05-.42-.24-.8-.68-.86-.07-.01-1.72-.27-3.53-2.51v-1.7c1.78,1.6,3.28,1.79,3.36,1.79.04.01.06.01.08.01.39,0,.71-.29.76-.69.06-.42-.24-.8-.67-.86-.07-.01-1.73-.27-3.54-2.5v-1.71c1.78,1.61,3.29,1.79,3.36,1.8h.1c.39,0,.71-.28.76-.68.05-.42-.25-.81-.67-.86-.07-.01-1.84-.28-3.7-2.71-.15-.18-.35-.28-.56-.29h-.13c-.21.01-.41.11-.56.29-1.86,2.43-3.62,2.7-3.7,2.71-.42.05-.71.42-.67.85.04.4.36.69.76.69h.08c.07-.01,1.6-.21,3.39-1.82v1.7c-1.81,2.25-3.47,2.51-3.56,2.53-.42.05-.73.42-.68.85.04.4.37.69.76.69h.08c.08-.01,1.6-.21,3.39-1.82v1.7c-1.81,2.25-3.47,2.51-3.56,2.53-.42.05-.73.42-.68.85.05.4.37.69.77.69h.08c.07-.01,1.6-.19,3.37-1.82v1.7c-1.81,2.25-3.46,2.51-3.56,2.53-.41.05-.71.42-.67.85.04.4.37.69.76.69h.1c.07-.01,1.58-.19,3.37-1.8v6.21h-7.38c-1-1.64-2.15-2.6-2.24-2.68-.34-.27-.82-.22-1.09.1-.28.34-.23.82.1,1.1.01.01.65.55,1.34,1.48h-10.08l2.08-2.23s.1.02.15.02c.24,0,.48-.11.63-.33.82-1.17,1.26-2.56,1.26-4,0-3.84-3.12-6.98-6.95-6.98-.39,0-.76.04-1.12.1.23-.79.35-1.59.35-2.42,0-4.71-3.81-8.53-8.51-8.53-.42,0-.86.04-1.28.1v-17.09l15.1-8.33h2.66c.28,0,.53-.15.68-.39l4.18-7.27,10.16-2.79c.18-.06.34-.17.44-.33l10.02-15.15h3.71c.25,0,.5-.12.63-.31l4.47-6.29v12.79c0,.17.06.33.16.46l2.47,3.32v6.64c0,.25.13.48.34.63l3.49,2.46,4.4,12.89c.08.24.28.42.52.5l10.46,2.97,3.87,10.02h0s2.39,6.19,2.39,6.19c.07.21.23.36.44.45.08.02.18.05.29.05s.22-.02.31-.07l13.39-6.19s.01-.01.02-.01l1.68-.78c.08-.04.17-.11.24-.18l6.84-7.5,3.72-4.05c.07-.08.13-.18.17-.29l3.63-10.89,2.53-1.56,9.02-5.61.06,4.82h0s.06,5.16.06,5.16h0v.02l.06,5.14v.02h0s.01.69.01.69c0,.35.23.64.56.74,1.91.58,4.14,1.38,4.91,1.82.12.06.21.11.25.16.02.04.27.34.8,2,.42,1.3.76,2.68.76,2.69.06.24.23.45.46.53l5.86,2.42,4.82,2,.44,2.58s.01.04.02.06l.7,4.09c.06.38.39.64.76.64h3.68l.23.55h0s2.09,5.17,2.09,5.17v.02l2.27,5.62c-.27.22-.51.46-.73.71-.02.02-.06.06-.08.1-.08.11-.17.22-.24.33l-.11.15c-.07.1-.13.22-.19.33-.04.06-.07.12-.1.18-.06.1-.11.21-.16.31-.04.07-.06.16-.1.23-.04.1-.07.21-.11.3-.02.11-.06.19-.08.29-.02.08-.05.18-.07.28-.02.12-.04.24-.06.36-.01.07-.02.15-.02.22-.02.21-.05.41-.05.62,0,.31.19.59.47.71l-1.62,3.14-4.32-11.96-10.57-7.98c.24-.24.29-.62.11-.93-2.01-3.51-5.78-5.71-9.82-5.71-.34,0-.68.01-1.02.05h-.07c-.31.04-.63.08-.94.13-.04,0-.07.02-.12.02-.29.05-.59.12-.87.21-.05.02-.1.04-.15.05-.29.08-.57.18-.85.29-.05.01-.08.02-.13.05-.28.11-.54.22-.81.36-.05.01-.08.04-.12.05-.27.13-.53.29-.79.44-.02.02-.05.04-.07.06-.28.17-.53.34-.79.52t-.01.01c-.25.19-.5.39-.74.61-.01.01-.02.02-.05.04-.22.21-.45.42-.65.64l-.08.08c-.19.21-.4.44-.58.67-.02.04-.06.07-.08.11-.17.23-.35.47-.51.71-.02.04-.05.08-.08.12-.16.24-.31.5-.45.76-.02.04-.05.07-.06.11-.15.28-.28.53-.4.82-.01.02-.02.06-.04.08-.12.29-.23.59-.33.9,0,0,0,.02-.01.02-.1.31-.18.63-.25.94,0,.02,0,.04-.01.05-.06.3-.12.63-.16.94-.01.02-.02.05-.02.07,0,0-.01,0-.02-.01-.27-.13-.54-.23-.82-.34-.07-.02-.13-.05-.21-.06-.27-.1-.54-.18-.81-.23-.02-.01-.05-.02-.07-.02-.29-.06-.59-.11-.88-.15-.07-.01-.15-.02-.22-.02-.3-.04-.62-.05-.92-.05-4.75,0-8.68,3.6-9.21,8.24-1.29-.65-2.71-1.01-4.18-1.01-2.09,0-4.11.7-5.73,2-1.81-2.24-4.52-3.55-7.4-3.55-4.89,0-8.92,3.72-9.47,8.47-1.15-.79-2.52-1.24-3.93-1.24-3.85,0-6.97,3.14-6.97,6.98,0,.65.1,1.28.27,1.89h-6.14c-.34,0-.63.22-.73.52ZM48.16,94.31c.39,0,.74-.3.77-.69l1.41-12.44c.05-.42-.25-.81-.68-.86-.42-.06-.81.25-.85.68l-1.43,12.45c-.05.42.27.81.68.85.04.01.07.01.08.01ZM47.1,61.29c.13.08.28.13.42.13.25,0,.51-.12.64-.34l1.04-1.56c.24-.35.13-.84-.22-1.08-.36-.23-.83-.13-1.08.22l-1.03,1.56c-.23.35-.15.84.22,1.07ZM46.56,101.08c.07.01.13.02.19.02.35,0,.65-.24.75-.58l.77-2.98c.11-.41-.13-.82-.54-.94-.41-.1-.83.15-.94.56l-.79,2.98c-.1.41.15.84.56.94Z"/>
      <path class="cls-2" d="M21.77,31.95c4.11,0,7.45,3.36,7.47,7.47l-.07,1.11c-.02.28.12.56.35.71.24.15.54.16.79.01.63-.35,1.31-.52,2.03-.52,2.26,0,4.11,1.85,4.11,4.13,0,.56-.1,1.09-.31,1.61-.17.4.01.85.41,1.02h.01l-6.63,7.59-13.52,1.82c-.15-.18-.36-.3-.62-.3H5.91c1-2.79,2.16-5.5,3.43-8.15,2.83-5.8,6.3-11.24,10.31-16.21.68-.19,1.38-.3,2.1-.3Z"/>
      <path class="cls-5" d="M35.96,149.01c.44,0,.77.35.77.78s-.34.78-.77.78h-1.64c-.44,0-.77-.34-.77-.78s.34-.78.77-.78h1.64Z"/>
      <path class="cls-5" d="M35.2,127.74v3.23c0,.44-.35.78-.77.78s-.77-.34-.77-.78v-3.23h1.55Z"/>
      <path class="cls-5" d="M44.89,63.75c.28-.31.77-.35,1.09-.06.33.28.36.76.07,1.09l-5.63,6.46-5.61,9.46c-.15.24-.41.38-.68.38-.12,0-.27-.04-.39-.11-.36-.23-.48-.7-.27-1.07l5.65-9.51s.05-.08.08-.11l5.68-6.53Z"/>
      <path class="cls-5" d="M35.02,106.64c1.86,2.43,3.63,2.7,3.7,2.71.41.05.71.44.67.86-.05.4-.37.68-.76.68h-.1c-.07-.01-1.58-.19-3.36-1.8v1.71c1.81,2.23,3.47,2.48,3.54,2.5.42.06.73.44.67.86-.05.4-.37.69-.76.69-.02,0-.05,0-.08-.01-.08,0-1.58-.19-3.36-1.79v1.7c1.81,2.24,3.46,2.5,3.53,2.51.44.06.73.44.68.86-.05.39-.37.69-.76.69-.04,0-.06,0-.08-.01-.08,0-1.6-.19-3.37-1.79v1.7c1.81,2.24,3.47,2.5,3.54,2.5.42.06.73.45.71.88-.04.4-.37.68-.76.68h-.08c-.08,0-1.58-.19-3.36-1.79v6.2h-1.55v-6.21c-1.79,1.61-3.3,1.79-3.37,1.8h-.1c-.39,0-.73-.29-.76-.69-.05-.42.25-.8.67-.85.1-.02,1.74-.28,3.56-2.53v-1.7c-1.78,1.62-3.3,1.8-3.37,1.82h-.08c-.4,0-.73-.29-.77-.69-.05-.42.25-.8.68-.85.08-.02,1.74-.28,3.56-2.53v-1.7c-1.79,1.61-3.3,1.8-3.39,1.82h-.08c-.39,0-.73-.29-.76-.69-.05-.42.25-.8.68-.85.08-.02,1.74-.28,3.56-2.53v-1.7c-1.79,1.61-3.31,1.8-3.39,1.82h-.08c-.4,0-.73-.29-.76-.69-.05-.42.24-.8.67-.85.08-.01,1.84-.28,3.7-2.71.15-.18.35-.28.56-.29h.13c.21.01.41.11.56.29Z"/>
      <path class="cls-12" d="M30.38,138.47c.19-.1.42-.16.64-.16.37,0,.76.15,1.04.44l1.15,1.15c.27.28.28.71.01,1.01l-1.33,1.43-4.37.46c-.36-.24-.51-.7-.35-1.11l.62-1.53c.12-.33.36-.58.65-.74l1.93-.94Z"/>
      <path class="cls-5" d="M27.44,144.36s-.05.01-.08.01c-.12,0-.23-.02-.34-.08l-.08-.05c-1.15-.58-1.67-1.93-1.2-3.13l.6-1.54c.27-.67.77-1.22,1.43-1.54l1.92-.96c1.16-.57,2.55-.34,3.46.57l1.15,1.16c.87.87.89,2.25.05,3.15l-1.52,1.64c-.12.13-.29.23-.48.24l-4.9.52ZM33.22,140.91c.27-.29.25-.73-.01-1.01l-1.15-1.15c-.28-.29-.67-.44-1.04-.44-.22,0-.45.06-.64.16l-1.93.94c-.29.16-.53.41-.65.74l-.62,1.53c-.16.41-.01.87.35,1.11l4.37-.46,1.33-1.43Z"/>
      <path class="cls-5" d="M26.92,132.77c-.42,0-.77-.35-.77-.78,0-1.71-.64-3.16-1.33-4.25h1.79c.6,1.16,1.09,2.6,1.09,4.25,0,.42-.35.78-.77.78Z"/>
      <path class="cls-5" d="M26.47,207.15c5.53,5.38,11.79,10,18.63,13.71-.3-.98-.83-2.08-1.23-2.76-.22-.36-.1-.85.28-1.07.36-.22.83-.08,1.05.28.17.29,1.51,2.64,1.66,4.48,4.08,2.08,8.36,3.85,12.78,5.26,1.35-1.54,6.41-7.8,5.73-14.72-.44-4.36-3.07-8.21-7.85-11.48-5.5-3.77-9.47-8.04-11.79-12.69-.99-1.99-1.61-4.12-1.86-6.27-.45-4.02.36-8.18,2.44-11.86,4.08-7.24,13.72-20.13,32.59-25.09,12.88-3.38,20.42-6.71,24.6-9.87.02.45.05.91.08,1.37-4.75,3.2-12.33,6.9-24.24,10.04-18.32,4.81-27.68,17.32-31.65,24.35-2.93,5.22-3.13,11.45-.53,16.67,2.2,4.42,6,8.49,11.28,12.11,5.16,3.54,8.02,7.79,8.5,12.62.69,6.96-3.74,13.07-5.65,15.35,7.42,2.2,15.26,3.39,23.36,3.43,5.44-6.24,4.44-12.19,4.43-12.23-.07-.42.21-.84.62-.91.42-.08.82.19.91.62.05.25,1.08,6.07-3.92,12.5,8.36-.17,16.41-1.55,24-4.01.11-4.81-.8-9.23-2.67-13.15-.18-.39-.02-.85.36-1.03.39-.19.85-.02,1.03.35,1.91,4,2.85,8.49,2.83,13.32,2.59-.88,5.12-1.9,7.57-3.03l.35.73c-10.74,5.04-22.69,7.85-35.27,7.85-22.88,0-43.64-9.28-58.9-24.37l.48-.48Z"/>
      <path class="cls-5" d="M23.93,105.25c-.36-.23-.47-.7-.25-1.07,1.96-3.15,5.34-8.48,6.02-8.96.34-.25.82-.17,1.08.17.24.34.17.81-.16,1.07-.47.47-3.23,4.7-5.62,8.55-.15.23-.4.36-.65.36-.13,0-.28-.04-.41-.12Z"/>
      <path class="cls-5" d="M22.95,124.57c.27-.31.75-.36,1.09-.1.08.07,1.23,1.04,2.24,2.68h-1.89c-.69-.93-1.33-1.47-1.34-1.48-.33-.28-.37-.76-.1-1.1Z"/>
      <path class="cls-5" d="M19.41,180.94c-.37,0-.71-.28-.76-.65-.35-2.34,2.73-5.08,3.08-5.39.33-.27.82-.22,1.1.1.28.33.24.81-.08,1.09-.91.79-2.74,2.8-2.56,3.97.05.41-.23.81-.67.87-.04.01-.07.01-.11.01Z"/>
      <path class="cls-5" d="M20.92,129.58c.27-.33.76-.36,1.09-.08.34.28,2.03,1.79,1.75,3.19-.08.38-.4.63-.76.63-.05,0-.1-.01-.16-.02-.41-.08-.69-.5-.59-.91.05-.28-.56-1.13-1.23-1.71-.33-.27-.37-.76-.1-1.09Z"/>
      <path class="cls-5" d="M21.25,82.62c-.21,0-.4-.08-.56-.24-.3-.31-.28-.8.02-1.1l3.1-2.93c.3-.3.8-.28,1.09.02.3.31.28.8-.02,1.09l-3.1,2.96c-.15.13-.34.21-.53.21Z"/>
      <path class="cls-12" d="M20.48,195.88c.22.21.37.46.45.75l.29,1.1c.07.27-.05.57-.29.7l-1.54.9c-1.98-2.48-3.83-5.09-5.54-7.78l2.38.59,4.24,3.73Z"/>
      <path class="cls-5" d="M18.8,82.97c.23.35.13.84-.23,1.08l-11.84,7.75c-.15.08-.29.12-.42.12-.27,0-.51-.12-.65-.35-.24-.36-.13-.84.22-1.08l11.86-7.75c.35-.23.83-.13,1.06.23Z"/>
      <path class="cls-5" d="M21.77,30.4c4.96,0,9,4.03,9.02,9,.5-.13,1.02-.21,1.55-.21,3.12,0,5.66,2.54,5.66,5.68,0,.76-.15,1.51-.45,2.22-.12.29-.41.47-.71.47-.1,0-.18-.02-.28-.06h-.01c-.4-.17-.58-.62-.41-1.02.22-.52.31-1.05.31-1.61,0-2.28-1.85-4.13-4.11-4.13-.73,0-1.4.17-2.03.52-.24.15-.54.13-.79-.01-.23-.16-.37-.44-.35-.71l.07-1.11c-.02-4.12-3.36-7.47-7.47-7.47-.73,0-1.43.11-2.1.3-4.01,4.97-7.49,10.4-10.31,16.21l-.42-.21C22.81,19.65,51.6,0,84.89,0s64.85,21.6,77.89,52.46l-.31-.18c-3.43-8.1-8.15-15.66-14.05-22.42h-9.98c-.44,0-.79-.35-.79-.78s.35-.78.79-.78h8.59c-.81-.9-1.64-1.77-2.5-2.64C128.6,9.71,107.48.93,85.02.93c-25.51,0-48.39,11.45-63.84,29.49.19-.01.39-.02.58-.02Z"/>
      <path class="cls-5" d="M16.53,140.08c2.58,3.21,5.02,3.57,5.04,3.57.42.05.71.44.68.86-.05.39-.39.68-.77.68h-.08c-.11-.01-2.32-.29-4.86-2.8v3.03c2.58,3.22,5.02,3.57,5.04,3.57.42.05.71.44.68.86-.05.39-.39.68-.77.68h-.08c-.11-.01-2.32-.29-4.86-2.8v3.04c2.58,3.21,5.02,3.56,5.04,3.56.42.06.71.45.68.86-.05.4-.39.69-.77.69h-.08c-.11-.01-2.32-.3-4.86-2.81v3.04c2.58,3.21,5.02,3.57,5.04,3.57.42.05.71.44.68.86-.05.39-.39.68-.77.68h-.08c-.11-.01-2.32-.29-4.86-2.8v3.03c2.58,3.21,5.02,3.57,5.04,3.57.42.05.71.44.68.86-.05.39-.39.68-.77.68,0,.02-.02.02-.05.02-.11-.01-2.32-.29-4.86-2.8v13.18c0,.42-.35.76-.77.76s-.77-.34-.77-.76v-13.19c-2.54,2.52-4.76,2.8-4.89,2.81h-.08c-.39,0-.73-.29-.77-.68-.04-.44.27-.81.69-.86.06,0,2.5-.38,5.05-3.6v-3.03c-2.55,2.52-4.78,2.8-4.89,2.82h-.1c-.39,0-.71-.29-.76-.69-.05-.42.27-.81.68-.86.06,0,2.5-.38,5.05-3.6v-3.03c-2.54,2.52-4.78,2.81-4.89,2.82h-.08c-.39,0-.71-.29-.77-.69-.04-.42.27-.81.69-.86.06,0,2.5-.36,5.05-3.59v-3.03c-2.54,2.51-4.78,2.8-4.89,2.81h-.08c-.39,0-.73-.29-.77-.69-.04-.42.25-.81.69-.85.05,0,2.49-.38,5.04-3.6v-3.03c-2.54,2.52-4.76,2.8-4.87,2.81h-.1c-.39,0-.71-.29-.76-.68-.05-.44.25-.81.68-.86.05,0,2.49-.38,5.05-3.6v-3.03c-2.54,2.52-4.78,2.81-4.89,2.82h-.08c-.39,0-.73-.29-.77-.69-.05-.42.25-.81.69-.86.05,0,2.58-.39,5.19-3.77.15-.18.35-.28.57-.29h.11c.22.01.44.11.57.29,2.62,3.42,5.18,3.77,5.2,3.77.42.06.71.45.68.86-.05.4-.39.69-.77.69h-.08c-.11-.01-2.32-.3-4.86-2.81v3.04Z"/>
      <path class="cls-5" d="M10,179.82c.19-.38.64-.55,1.02-.36.06.04,1.49.71,1.9,2.57.1.41-.17.82-.59.92-.06.01-.11.02-.17.02-.35,0-.67-.25-.75-.61-.24-1.09-1.03-1.49-1.05-1.51-.37-.19-.53-.64-.35-1.03Z"/>
      <path class="cls-5" d="M13.86,191.56c1.71,2.69,3.56,5.29,5.54,7.78l1.54-.9c.24-.13.36-.44.29-.7l-.29-1.1c-.07-.29-.23-.55-.45-.75l-4.24-3.73-2.38-.59ZM25.27,205.94l6.45-2.17c.59-.21,1.23-.28,1.85-.21v-12.73c-2.54,2.52-4.76,2.81-4.89,2.82h-.08c-.39,0-.71-.29-.76-.69-.05-.42.25-.81.68-.86.06,0,2.5-.36,5.05-3.59v-3.04c-2.54,2.53-4.76,2.81-4.89,2.82h-.08c-.39,0-.73-.29-.76-.69-.05-.42.25-.8.68-.85.05,0,2.49-.38,5.05-3.6v-3.03c-2.55,2.52-4.78,2.8-4.89,2.81h-.1c-.39,0-.71-.28-.76-.68-.05-.44.25-.81.68-.86.06,0,2.5-.38,5.05-3.6v-3.03c-2.54,2.52-4.76,2.8-4.89,2.82h-.08c-.39,0-.73-.29-.77-.69-.04-.42.27-.81.69-.86.06,0,2.5-.38,5.05-3.6v-3.03c-2.55,2.52-4.78,2.81-4.89,2.82h-.08c-.39,0-.73-.29-.77-.69-.05-.42.27-.81.68-.86.06,0,2.5-.36,5.05-3.59v-3.03c-2.54,2.51-4.76,2.8-4.89,2.81h-.08c-.39,0-.71-.29-.76-.69-.05-.42.25-.8.68-.85.06,0,2.5-.38,5.05-3.6v-3.03c-2.54,2.52-4.76,2.8-4.89,2.81h-.08c-.39,0-.73-.29-.77-.68-.04-.44.25-.81.69-.86.05,0,2.59-.39,5.19-3.77.15-.18.35-.28.57-.3h.11c.22.02.42.12.57.3,2.62,3.4,5.18,3.77,5.2,3.77.42.06.73.45.68.86-.05.4-.39.68-.77.68h-.08c-.11-.01-2.32-.29-4.85-2.8v3.04c2.56,3.21,5.01,3.57,5.03,3.57.42.05.73.44.68.85-.05.4-.39.69-.77.69h-.08c-.11-.01-2.32-.3-4.85-2.8v3.03c2.56,3.22,5.01,3.57,5.03,3.57.42.05.73.44.68.86-.05.39-.39.68-.77.68h-.08c-.11-.01-2.32-.29-4.85-2.8v3.04c2.56,3.2,5.01,3.56,5.03,3.56.42.06.73.45.68.86-.05.4-.39.68-.77.68h-.08c-.11-.01-2.32-.29-4.85-2.8v3.04c2.56,3.21,5.01,3.57,5.03,3.57.3.04.53.24.63.5.05.11.06.23.05.36-.05.39-.39.68-.77.68h-.08c-.11-.01-2.32-.3-4.85-2.8v3.03c2.56,3.21,5.01,3.57,5.03,3.57.42.05.73.44.68.86-.05.39-.39.68-.77.68h-.08c-.11-.01-2.32-.29-4.85-2.8v3.04c2.56,3.2,5.01,3.56,5.03,3.56.42.06.73.45.68.86-.05.4-.39.68-.77.68h-.08c-.11-.01-2.32-.29-4.85-2.8v13.13l3.26,1.16h8.1c.44,0,.77.34.77.78s-.34.76-.77.76h-8.25c-.08,0-.17-.01-.25-.04l-3.95-1.39c-.59-.21-1.25-.21-1.84-.01l-5.7,1.94-.48.48c-6.51-6.43-12.02-13.92-16.25-22.2l.48-.25c.79,1.53,1.62,3.02,2.49,4.48l4.09,1.03c.12.04.24.08.33.17l4.38,3.85c.46.4.77.93.93,1.51l.29,1.1c.24.94-.17,1.95-1,2.45l-1.33.78c1.55,1.87,3.19,3.67,4.89,5.39Z"/>
      <path class="cls-8" d="M10.35,180.85s.81.42,1.05,1.51c.08.35.4.61.75.61.06,0,.11-.01.17-.02.42-.1.69-.51.59-.92-.41-1.85-1.84-2.53-1.9-2.57-.37-.18-.82-.01-1.02.36-.18.39-.02.84.35,1.03ZM60.91,144.37s.1-.01.15-.01c.41-.08.7-.48.63-.91-.39-2.08,1.61-5.4,2.41-6.5.25-.36.18-.85-.16-1.1-.35-.24-.83-.17-1.09.17-.13.19-3.26,4.54-2.68,7.72.06.38.39.64.75.64ZM22.25,132.38c-.1.41.18.82.59.91.06.01.11.02.16.02.36,0,.68-.25.76-.63.28-1.39-1.41-2.91-1.75-3.19-.33-.28-.82-.24-1.09.08-.28.33-.23.82.1,1.09.68.58,1.28,1.43,1.23,1.71ZM75.43,140.26h6.35l2.93.38c.15.02.3.04.44.04.82,0,1.61-.29,2.24-.82l.44-.38c.89-.76,1.19-2.01.73-3.09l-.76-1.84c-.19-.44-.47-.82-.82-1.13l-3.52-3.05c-.15-.12-.33-.19-.51-.19h-1.32c-1.08,0-2.07.55-2.65,1.45l-1.26,1.95h-1.93c-.86,0-1.67.39-2.2,1.05s-.75,1.53-.57,2.37l.34,1.55c.21.98,1.09,1.71,2.09,1.71ZM21.48,139.85c.39,0,.73-.29.77-.69.04-.41-.25-.8-.68-.86-.02,0-2.58-.35-5.2-3.77-.13-.18-.35-.28-.57-.29h-.11c-.22.01-.42.11-.57.29-2.61,3.38-5.14,3.77-5.19,3.77-.44.05-.74.44-.69.86.05.4.39.69.77.69h.08c.11-.01,2.35-.3,4.89-2.82v3.03c-2.56,3.22-5.01,3.6-5.05,3.6-.42.05-.73.42-.68.86.05.39.37.68.76.68h.1c.11-.01,2.33-.29,4.87-2.81v3.03c-2.55,3.22-4.99,3.6-5.04,3.6-.44.04-.73.42-.69.85.05.4.39.69.77.69h.08c.11-.01,2.35-.3,4.89-2.81v3.03c-2.55,3.22-4.99,3.59-5.05,3.59-.42.05-.73.44-.69.86.06.4.39.69.77.69h.08c.11-.01,2.35-.3,4.89-2.82v3.03c-2.55,3.22-4.99,3.6-5.05,3.6-.41.05-.73.44-.68.86.05.4.37.69.76.69h.1c.11-.02,2.33-.3,4.89-2.82v3.03c-2.55,3.22-4.99,3.6-5.05,3.6-.42.05-.73.42-.69.86.05.39.39.68.77.68h.08c.12-.01,2.35-.29,4.89-2.81v13.19c0,.42.34.76.77.76s.77-.34.77-.76v-13.18c2.54,2.51,4.75,2.79,4.86,2.8.02,0,.05,0,.05-.02.39,0,.73-.29.77-.68.04-.42-.25-.81-.68-.86-.02,0-2.47-.36-5.04-3.57v-3.03c2.54,2.51,4.75,2.79,4.86,2.8h.08c.39,0,.73-.29.77-.68.04-.42-.25-.81-.68-.86-.02,0-2.47-.36-5.04-3.57v-3.04c2.54,2.51,4.75,2.8,4.86,2.81h.08c.39,0,.73-.29.77-.69.04-.41-.25-.8-.68-.86-.02,0-2.47-.35-5.04-3.56v-3.04c2.54,2.51,4.75,2.79,4.86,2.8h.08c.39,0,.73-.29.77-.68.04-.42-.25-.81-.68-.86-.02,0-2.47-.35-5.04-3.57v-3.03c2.54,2.51,4.75,2.79,4.86,2.8h.08c.39,0,.73-.29.77-.68.04-.42-.25-.81-.68-.86-.02,0-2.47-.36-5.04-3.57v-3.04c2.54,2.51,4.75,2.8,4.86,2.81h.08ZM19.41,180.94s.07,0,.11-.01c.44-.06.71-.46.67-.87-.18-1.17,1.66-3.19,2.56-3.97.33-.28.36-.76.08-1.09-.28-.31-.77-.36-1.1-.1-.35.31-3.43,3.05-3.08,5.39.05.38.39.65.76.65ZM27.35,144.37s.06-.01.08-.01l4.9-.52c.19-.01.36-.11.48-.24l1.52-1.64c.85-.9.82-2.28-.05-3.15l-1.15-1.16c-.91-.91-2.3-1.14-3.46-.57l-1.92.96c-.65.31-1.16.87-1.43,1.54l-.6,1.54c-.47,1.2.05,2.54,1.2,3.13l.08.05c.11.06.22.08.34.08ZM26.14,131.99c0,.42.35.78.77.78s.77-.35.77-.78c0-1.65-.48-3.09-1.09-4.25h7.05v3.23c0,.44.35.78.77.78s.77-.34.77-.78v-3.23l10.13-.23-.2.23c-1.44,1.38-2.6,1.56-2.67,1.57-.42.06-.73.44-.68.86.04.4.37.69.76.69h.1c.07-.01,1.58-.21,3.37-1.82v1.7c-1.81,2.25-3.47,2.51-3.56,2.52-.42.06-.71.44-.67.86.04.4.36.69.76.69h.08c.07-.01,1.58-.21,3.39-1.82v1.7c-1.81,2.25-3.47,2.51-3.56,2.52-.42.06-.73.44-.68.86.04.4.37.69.76.69h.08c.08-.01,1.6-.21,3.39-1.82v10.22l-1.25-.17c-.11-.02-.24-.01-.34.02l-4.57,1.44c-.4.12-.63.57-.5.97.1.33.4.55.73.55.08,0,.16-.01.24-.04l4.4-1.39,4.99.7h5.67c.44,0,.77-.35.77-.78s-.4-.78-.82-.78h-5.5l-2.33-.33v-10.43c1.78,1.6,3.29,1.79,3.36,1.8h.1c.39,0,.71-.29.76-.68.05-.42-.25-.81-.68-.87-.07-.01-1.73-.25-3.54-2.5v-1.7c1.79,1.59,3.29,1.79,3.37,1.79h.08c.39,0,.71-.29.76-.68.05-.42-.24-.81-.68-.86-.07-.01-1.72-.27-3.53-2.51v-1.7c1.78,1.6,3.28,1.79,3.36,1.79.02.01.06.01.08.01.39,0,.71-.29.77-.69.04-.42-.25-.8-.68-.86-.06-.01-1.23-.18-2.68-1.57l-.2-.21,7.45-.04v.25c.13.27.39.44.7.44h7.13c.18,0,.35-.06.48-.17h29.05c-.16.13-.27.34-.27.58,0,.42.35.78.77.78h10.08c-.05.1-.07.21-.11.31-.08.3-.13.61-.22.94-.18-.11-.34-.21-.5-.28-.44-.23-.93-.1-1.15.3s-.07.86.35,1.11c.34.21.69.41,1.05.59.24.13.33.29.35.57.04.71.07,1.43.12,2.14-4.17,3.16-11.72,6.49-24.6,9.87-18.86,4.95-28.51,17.84-32.59,25.09-2.08,3.68-2.89,7.84-2.44,11.86h-3.12c-.1-.24-.33-.45-.63-.48-.02,0-2.47-.36-5.03-3.57v-3.04c2.53,2.51,4.74,2.79,4.85,2.8h.08c.39,0,.73-.28.77-.68.05-.41-.25-.8-.68-.86-.02,0-2.47-.36-5.03-3.56v-3.04c2.53,2.51,4.74,2.79,4.85,2.8h.08c.39,0,.73-.29.77-.68.05-.42-.25-.81-.68-.86-.02,0-2.47-.35-5.03-3.57v-3.03c2.53,2.5,4.74,2.79,4.85,2.8h.08c.39,0,.73-.29.77-.69.05-.41-.25-.8-.68-.85-.02,0-2.47-.36-5.03-3.57v-3.04c2.53,2.51,4.74,2.79,4.85,2.8h.08c.39,0,.73-.28.77-.68.05-.41-.25-.8-.68-.86-.02,0-2.58-.36-5.2-3.77-.15-.18-.35-.28-.57-.3h-.11c-.22.02-.42.12-.57.3-2.6,3.38-5.14,3.77-5.19,3.77-.44.05-.73.42-.69.86.05.39.39.68.77.68h.08c.12-.01,2.35-.29,4.89-2.81v3.03c-2.55,3.22-4.99,3.6-5.05,3.6-.42.05-.73.42-.68.85.05.4.37.69.76.69h.08c.12-.01,2.35-.3,4.89-2.81v3.03c-2.55,3.22-4.99,3.59-5.05,3.59-.41.05-.73.44-.68.86.05.4.39.69.77.69h.08c.11-.01,2.33-.3,4.89-2.82v3.03c-2.55,3.22-4.99,3.6-5.05,3.6-.42.05-.73.44-.69.86.05.4.39.69.77.69h.08c.12-.02,2.35-.3,4.89-2.82v3.03c-2.55,3.22-4.99,3.6-5.05,3.6-.42.05-.73.42-.68.86.05.4.37.68.76.68h.1c.11-.01,2.33-.29,4.89-2.81v3.03c-2.56,3.22-5.01,3.6-5.05,3.6-.42.05-.73.42-.68.85.04.4.37.69.76.69h.08c.12-.01,2.35-.29,4.89-2.82v3.04c-2.55,3.22-4.99,3.59-5.05,3.59-.42.05-.73.44-.68.86.05.4.37.69.76.69h.08c.12-.01,2.35-.3,4.89-2.82v12.73c-.62-.07-1.26,0-1.85.21l-6.45,2.17c-1.69-1.72-3.34-3.52-4.89-5.39l1.33-.78c.83-.5,1.25-1.5,1-2.45l-.29-1.1c-.16-.58-.47-1.11-.93-1.51l-4.38-3.85c-.08-.08-.21-.13-.33-.17l-4.09-1.03c-.87-1.47-1.71-2.96-2.49-4.48-5.48-10.65-8.77-22.63-9.25-35.31l2.32-.3c.74-.1,1.4-.52,1.8-1.15.39-.64.48-1.42.24-2.13l-1.22-3.65c-.13-.4-.31-.76-.54-1.09l-2.67-3.82v-9.54h5.41c.31,0,.59-.19.71-.45v-.3s17.8.31,17.8.31c.69,1.09,1.33,2.54,1.33,4.25ZM58.83,139.31c.12-.41-.12-.85-.53-.96-.41-.12-.85.12-.96.52-.04.13-.91,3.23-1.11,4.6-.06.42.24.82.65.88.04,0,.08.01.11.01.39,0,.71-.29.77-.67.17-1.26,1.06-4.37,1.06-4.4ZM36.74,149.78c0-.42-.34-.78-.77-.78h-1.64c-.44,0-.77.35-.77.78s.34.78.77.78h1.64c.44,0,.77-.34.77-.78Z"/>
      <path class="cls-4" d="M11.46,115.19c2.97,0,5.41,2.43,5.41,5.43,0,1.11-.34,2.19-.98,3.11-.24.35-.16.82.21,1.08.08.06.18.1.29.11l-2.08,2.23h-7.28c-.1-.3-.37-.52-.73-.52H.89v-22.17c.42-.08.86-.13,1.28-.13,3.83,0,6.97,3.14,6.97,6.98,0,1.14-.28,2.23-.8,3.23-.01.01-.01.02-.02.04,0,.02-.01.05-.02.07,0,.02-.01.05-.01.07-.02.02-.02.05-.02.07s-.01.05-.01.07v.07s0,.06.01.08c0,.02.01.05.02.07,0,.02.01.05.02.07v.04s.01.02.01.04c.02.02.04.05.05.07.01.01.02.04.04.06s.05.04.06.06c0,.01.01.01.01.02.01.01.04.01.05.02s.02.04.05.05.05.02.06.04.04.02.04.02c.01.01.02.01.04.01.02.01.07.04.1.04.04.01.05.01.06.01.05.02.1.04.16.04h.01c.06-.01.12-.01.18-.04.02,0,.04-.01.05-.01.04-.01.05-.01.07-.02.51-.21,1.04-.34,1.57-.4.18-.01.37-.02.56-.02Z"/>
      <path class="cls-12" d="M3.87,146.79c.08.27.05.57-.1.81s-.41.4-.69.44l-2.16.28c-.01-.57-.02-1.15-.02-1.72v-6.17l1.4,2.01c.15.21.25.45.34.69l1.23,3.66Z"/>
      <path class="cls-5" d="M169.13,135.52l-2.42,3.37c-.28.39-.42.85-.42,1.32v.68c0,.94.76,1.7,1.71,1.7h1.14v-7.06ZM153.51,113.32c.19-.08.4-.16.6-.22,0-.01.01-.01.02-.01.51-.15,1.04-.23,1.6-.23.23,0,.47.01.7.05l.22.04c.16.02.31.05.47.08.07.02.15.05.23.06.01.01.04.02.06.02.12.05.24.08.36.13.06.01.12.05.18.06.04.02.07.04.11.06.11.05.23.11.34.17.05.02.11.05.16.08v-.29c.01-.1.02-.18.02-.28.01-.1.01-.18.02-.28,0-.02,0-.07.01-.11.01-.18.05-.35.07-.52.01-.06.01-.13.04-.18,0-.02.01-.05.01-.07.04-.21.1-.41.16-.61.01-.04.02-.07.02-.11.01-.01.01-.04.01-.04.07-.22.16-.45.24-.65.01-.02.01-.05.04-.07h0c.1-.24.21-.46.31-.67.01-.01.02-.04.02-.05t.01-.02c.11-.19.23-.39.36-.58.01-.02.02-.05.05-.08,0-.01.01-.01.01-.02h-8.25l1.75,4.34h.01ZM131.35,86.76h14l-2.93-3.62h-15.36c1.41.5,2.87,1.09,3.31,1.57.22.23.5.67.97,2.05ZM.92,148.32l2.16-.28c.28-.04.54-.19.69-.44s.18-.55.1-.81l-1.23-3.66c-.08-.24-.19-.48-.34-.69l-1.4-2.01v6.17c0,.57.01,1.15.02,1.72ZM60.49,70.14c.13.1.24.23.29.39l.06.19h16.16l-1.17-2.24-3.16-1.38h-15.55v.68l3.37,2.36ZM169.13,103.82h-19.49l1.48,3.61h10.25c.07-.05.13-.11.19-.17.02-.01.05-.04.07-.05.13-.11.27-.19.39-.29.06-.04.12-.08.18-.13.02-.01.04-.02.06-.04.15-.1.29-.19.45-.27.06-.04.11-.07.17-.11.01-.01.04-.01.06-.02.16-.08.31-.16.48-.23.06-.02.11-.06.17-.08.02-.01.05-.01.06-.02.16-.06.33-.13.5-.18.07-.02.15-.06.21-.07.01-.01.04-.01.05-.01.17-.06.34-.1.51-.15.08-.01.16-.04.23-.05t.05-.01c.18-.04.36-.05.54-.08.07,0,.16-.02.23-.02h.02c.27-.02.54-.05.82-.05s.53.02.79.05c.07,0,.13.01.19.01.27.01.52.06.77.12.19.04.37.08.57.13v-1.88ZM148.08,101.24c.31,0,.59.18.71.48l.22.55h20.12v-2.86l-1.03-.76h-24.02l.44,2.59h3.56ZM143.4,94.73l.41,2.36h22.21l-4.87-3.62h-19.83l1.61.67c.25.11.42.33.47.59ZM77.08,67.54l2.74,5.23,6.06,1.45c.11.02.21.07.29.15l17.44,13.68,3.14-3.4,3.68-11c.05-.17.17-.31.31-.41l11.29-7.03,1.66-1.03s.01-.01.02-.01c.07-.04.16-.07.25-.08,0,0,.01,0,.02-.01.04,0,.07-.01.1-.01h.01c.06,0,.11.01.15.02h.01c.08.01.17.05.24.1,0,.01.01.01.02.01.07.05.15.11.19.18,0,0,.01,0,.01.01l4.5,6.23,1.06,1.48,10.62,5.81c.08.05.17.12.23.19l8.48,10.5,11.95,2.36c.06.01.11.02.16.05.01.01.02.01.04.02.02.02.07.04.1.06h.02l7.27,5.4v-12.14c0-5.22-.47-10.36-1.39-15.38h-6.34c-.44,0-.77-.35-.77-.78,0-.07.01-.13.02-.21.1-.33.39-.57.75-.57h6.05c-1.12-5.56-2.79-10.96-5.01-16.15l.31.18c4.41,10.43,6.89,21.92,6.97,34h.01v58.69c-.02,10.38-1.81,20.32-5.09,29.54l-.31-.11c.64-1.8,1.22-3.65,1.73-5.5,2.01-7.15,3.06-14.69,3.06-22.48v-2.46h-1.14c-1.79,0-3.24-1.45-3.24-3.25v-.68c0-.81.24-1.57.71-2.23l3.66-5.12v-4.68h-5.31c-.37,0-.7-.28-.76-.64h3.63v-.53h-3.53c.13-.22.39-.38.67-.38h5.31v-19.3s-.08-.04-.12-.05c-.08-.02-.16-.05-.23-.07-.13-.04-.28-.07-.41-.11-.08-.02-.16-.04-.24-.05-.15-.04-.29-.06-.45-.07-.07-.01-.13-.02-.21-.04-.23-.01-.45-.04-.67-.04-.23,0-.45.01-.67.04-.07.01-.13.02-.21.04-.15.02-.3.04-.45.07-.07.01-.15.02-.22.05-.13.04-.28.07-.41.11-.07.02-.15.05-.21.07-.15.04-.28.1-.41.13-.06.04-.12.07-.19.11-.13.05-.25.11-.37.17-.07.04-.13.08-.21.12-.12.07-.23.13-.34.21-.08.06-.15.11-.23.16-.1.07-.19.15-.28.22s-.17.13-.24.21c-.08.07-.17.13-.24.21-.07.08-.15.16-.22.23-.08.1-.17.18-.24.27-.05.06-.08.12-.13.17-.08.12-.18.24-.28.38-.02.04-.04.06-.06.1-.1.16-.19.3-.28.46-.02.04-.02.06-.04.07-.08.17-.17.34-.24.51-.01.04-.04.07-.05.1l-.18.51s-.02.11-.05.16c-.04.16-.07.3-.11.46-.01.07-.02.16-.05.24-.01.13-.04.25-.06.39-.01.1-.02.21-.02.31-.01.16-.02.31-.02.47,0,.56.07,1.13.22,1.67v.04s.01.06.01.11v.02h0v.07h0s0,.04-.01.05c0,.02,0,.04-.01.06t-.01.02v.02s0,.02-.01.02c0,.02-.01.04-.01.06t-.02.04s-.01.02-.02.05h-.01s-.01.02-.01.04-.01.01-.01.01c-.01.02-.02.05-.05.07-.01,0-.01.01-.02.01,0,.01-.01.01-.01.02-.01.01-.02.02-.05.04,0,.01-.01.01-.02.02-.02.02-.06.05-.08.06-.01.01-.02.01-.05.02-.01.01-.04.01-.05.01-.04.02-.06.04-.08.04h-.01s-.01,0-.02.01h-.06s-.02.01-.04.01h-.11s-.07-.01-.12-.01c-.01-.01-.02-.01-.05-.01-.01-.01-.02-.01-.05-.01,0,0-.01,0-.01-.01-.05-.01-.08-.04-.13-.06-.01,0-.02-.02-.02-.02-.01,0-.02-.01-.02-.01-.01-.01-.02-.01-.04-.02-.05-.04-.08-.07-.13-.13-.79-.99-1.96-1.57-3.23-1.57-.18,0-.35.02-.52.04-.05.01-.1.02-.15.02-.15.02-.29.06-.44.1-.02,0-.05.01-.07.02-.17.05-.34.1-.5.17-.04.02-.07.04-.11.05-.12.06-.23.13-.35.19-.05.04-.1.06-.13.1-.11.07-.22.15-.31.22-.06.06-.13.11-.19.17s-.12.11-.18.17-.11.12-.16.18-.1.11-.13.16c-.06.07-.11.13-.16.21l-.11.18c-.06.11-.12.21-.17.31-.05.08-.08.18-.13.27-.02.07-.05.12-.06.19-.04.08-.06.17-.08.27-.02.06-.04.12-.05.18-.02.1-.05.21-.06.3-.01.05-.01.11-.02.16-.02.16-.04.31-.04.48,0,.42-.34.78-.77.78-.11,0-.21-.02-.3-.06-.28-.12-.47-.4-.47-.71,0-.21.02-.41.05-.62,0-.07.01-.15.02-.22.02-.12.04-.24.06-.36.02-.1.05-.19.07-.28.02-.1.06-.18.08-.29.04-.1.07-.21.11-.3.04-.07.06-.16.1-.23.05-.11.1-.22.16-.31.02-.06.06-.12.1-.18.06-.11.12-.23.19-.33l.11-.15c.07-.11.16-.22.24-.33.02-.04.06-.07.08-.1.22-.25.46-.5.73-.71l-2.27-5.62v-.02l-2.09-5.16h0s-.23-.56-.23-.56h-3.68c-.37,0-.7-.27-.76-.64l-.7-4.09s-.01-.04-.02-.06l-.44-2.58-4.82-2-5.86-2.42c-.23-.08-.4-.29-.46-.53,0-.01-.34-1.39-.76-2.69-.53-1.66-.77-1.96-.8-2-.05-.05-.13-.1-.25-.16-.77-.44-3-1.24-4.91-1.82-.33-.1-.56-.39-.56-.74v-.68s-.01-.01-.01-.01v-.02l-.06-5.14h0v-.02l-.06-5.15h0s-.06-4.83-.06-4.83l-9.02,5.61-2.53,1.56-3.63,10.89c-.04.11-.1.21-.17.29l-3.72,4.05-6.84,7.5c-.07.07-.16.15-.24.18l-1.68.78s-.02,0-.02.01l-13.39,6.19c-.1.05-.21.07-.31.07s-.21-.02-.29-.05c-.21-.08-.36-.24-.44-.45l-2.39-6.18h0s-3.87-10.03-3.87-10.03l-10.46-2.97c-.24-.07-.44-.25-.52-.5l-4.4-12.89-3.49-2.46c-.21-.15-.34-.38-.34-.63v-6.64l-2.47-3.32c-.1-.13-.16-.29-.16-.46v-12.79l-4.47,6.29c-.13.19-.37.31-.63.31h-3.71l-10.02,15.15c-.1.16-.25.27-.44.33l-10.16,2.79-4.18,7.27c-.15.24-.4.39-.68.39h-2.66L.89,85.79v17.09c.42-.06.86-.1,1.28-.1,4.7,0,8.51,3.82,8.51,8.53,0,.84-.12,1.64-.35,2.42.36-.06.74-.1,1.12-.1,3.83,0,6.95,3.14,6.95,6.98,0,1.44-.44,2.82-1.26,4-.15.22-.39.33-.63.33-.05,0-.1,0-.15-.02-.11-.01-.21-.05-.29-.11-.36-.25-.45-.73-.21-1.08.64-.92.98-2,.98-3.11,0-2.99-2.43-5.43-5.41-5.43-.18,0-.37.01-.56.02-.53.06-1.06.19-1.57.4-.02.01-.04.01-.07.02-.01,0-.02.01-.05.01-.06.02-.12.02-.18.04h-.01c-.06,0-.11-.01-.16-.04-.01,0-.02,0-.06-.01-.02,0-.07-.02-.1-.04-.01,0-.02,0-.04-.01,0,0-.02-.01-.04-.02s-.04-.02-.06-.04-.04-.04-.05-.05-.04-.01-.05-.02c0-.01-.01-.01-.01-.02-.01-.02-.05-.04-.06-.06s-.02-.05-.04-.06c-.01-.02-.02-.05-.05-.07,0-.01,0-.02-.01-.04v-.04s-.02-.05-.02-.07c-.01-.02-.02-.05-.02-.07-.01-.02-.01-.05-.01-.08v-.07s.01-.05.01-.07,0-.05.02-.07c0-.02.01-.05.01-.07.01-.02.02-.05.02-.07.01-.01.01-.02.02-.04.52-1.01.8-2.1.8-3.23,0-3.84-3.13-6.98-6.97-6.98-.42,0-.86.05-1.28.13v22.17h5.41c.35,0,.63.22.73.52v.59c-.13.27-.41.45-.73.45H.89v9.54l2.67,3.82c.23.33.41.69.54,1.09l1.22,3.65c.24.71.15,1.49-.24,2.13-.4.63-1.06,1.05-1.8,1.15l-2.32.3c.48,12.68,3.77,24.66,9.25,35.31l-.48.25C3.52,173.34.01,159.57.01,144.96c0-.52.02-1.03.04-1.55h-.05v-59.67h.1c.46-12.71,3.58-24.73,8.83-35.49l.42.21c-1.27,2.65-2.43,5.37-3.43,8.15h9.88c.25,0,.47.12.62.3.1.13.16.29.16.47,0,.42-.35.78-.77.78H5.38c-2.77,8.14-4.33,16.82-4.47,25.85l14.51-7.98c.12-.06.24-.08.37-.08h2.42l4.12-7.16c.11-.17.27-.3.47-.35l10.18-2.81,10.08-15.25c.15-.22.39-.35.64-.35h3.74l5.63-7.92.02-.02s.06-.06.08-.08t.01-.02s.02-.01.04-.02c.02-.01.05-.04.08-.05.01-.01.02-.02.05-.04.04-.01.06-.02.1-.04.02,0,.04-.01.06-.01.04-.01.06-.01.1-.02.01,0,.02,0,.05-.01h.04s.07.01.1.01c.01,0,.04,0,.05.01.05.01.11.02.16.04h.01s.1.06.13.08l.04.04s.06.05.08.07c0,.01.01.01.01.01l12.44,14.04c.12.13.19.31.19.51v6.35l6.2,2.69h.01s3.56,1.56,3.56,1.56c.16.07.29.19.37.35ZM137.57,91.92h15.94l-4.5-.88c-.17-.05-.33-.13-.45-.28l-1.98-2.46h-14.75c.16.57.3,1.08.39,1.41l5.36,2.22ZM141.17,81.58l-1.15-1.42-4.01-2.19h-10.99l.04,3.61h16.12ZM125,76.42h8.17l-3.78-2.08c-.1-.05-.19-.13-.25-.22l-.96-1.32h-3.23l.05,3.62ZM127.07,71.25l-2.16-3,.04,3h2.13ZM100.52,91.41l2.03-2.24-1.77-1.38h-24.29l1.39,3.62h22.64ZM96.39,95.94l2.71-2.98h-20.61l1.4,3.61h15.1l1.39-.63ZM75.54,86.24h23.28l-4.62-3.62h-29.29l.23.65,10.4,2.97ZM64.38,81.07h27.84l-4.62-3.62h-24.46l1.25,3.62ZM82.19,102.51l9.46-4.37h-11.16l1.71,4.37ZM62.61,75.9h23l-.27-.22-6.23-1.49c-.22-.05-.41-.19-.51-.39l-.8-1.53h-16.45l1.25,3.62ZM57.11,65.55h11.98l-3.25-1.42c-.29-.12-.46-.4-.46-.71v-1.49h-8.27v3.62ZM65.38,60.39v-3.51l-.15-.15c-.07.02-.15.04-.24.04h-10.51v.74l2.15,2.88h8.74ZM63.91,55.22l-3.22-3.62h-6.2v3.62h9.42ZM59.32,50.05l-4.84-5.46v5.46h4.84Z"/>
      <polygon class="cls-4" points="14.1 127.42 7.02 127.44 7.02 127.13 14.3 127.15 14.1 127.42"/>
    </g>
  </g>
</svg>