<?xml version="1.0" encoding="UTF-8"?>
<svg id="Layer_2" data-name="Layer 2" xmlns="http://www.w3.org/2000/svg" viewBox="0 0 223.03 286.23">
  <defs>
    <style>
      .cls-1 {
        fill: #303b49;
      }

      .cls-1, .cls-2, .cls-3, .cls-4, .cls-5, .cls-6, .cls-7, .cls-8, .cls-9, .cls-10, .cls-11, .cls-12, .cls-13, .cls-14, .cls-15 {
        stroke-width: 0px;
      }

      .cls-2 {
        fill: #c1ffff;
      }

      .cls-2, .cls-4, .cls-5, .cls-6, .cls-7, .cls-8, .cls-9, .cls-10, .cls-11, .cls-12, .cls-13, .cls-14, .cls-15 {
        opacity: .65;
      }

      .cls-3 {
        fill: #ed9207;
      }

      .cls-4 {
        fill: #f4f4f2;
      }

      .cls-5 {
        fill: #1200ff;
      }

      .cls-6 {
        fill: #b29966;
      }

      .cls-7 {
        fill: #fff;
      }

      .cls-8 {
        fill: #efc768;
      }

      .cls-9 {
        fill: #92a542;
      }

      .cls-10 {
        fill: #e5e5e5;
      }

      .cls-11 {
        fill: #94b7bf;
      }

      .cls-12 {
        fill: #94938e;
      }

      .cls-13 {
        fill: #1800b9;
      }

      .cls-15 {
        fill: #566431;
      }
    </style>
  </defs>
  <g id="Layer_3" data-name="Layer 3">
    <g>
      <path class="cls-1" d="M223.01,106.67h.03v72.4h-.01c-.12,59.2-50,107.16-111.5,107.16S.01,238.15.01,178.84c0-.64.03-1.28.04-1.91h-.05v-73.61h.11C2.33,45.91,51.35,0,111.52,0s111.09,47.7,111.48,106.67Z"/>
      <path class="cls-12" d="M197.52,162.46v7.21h-1.16c-.96,0-1.74-.77-1.74-1.73v-.69c0-.48.15-.95.43-1.35l2.47-3.44Z"/>
      <path class="cls-12" d="M197.52,130.12v1.92c-.2-.05-.38-.1-.58-.14-.26-.06-.52-.11-.79-.12-.06,0-.12-.01-.2-.01-.26-.02-.53-.05-.8-.05s-.57.02-.84.05h-.02c-.07,0-.16.02-.23.02-.19.04-.37.05-.56.09t-.05.01c-.07.01-.15.04-.23.05-.17.05-.35.09-.52.15-.01,0-.04,0-.05.01-.06.01-.14.05-.21.07-.17.05-.35.12-.51.19-.01.01-.04.01-.06.02-.06.02-.11.06-.17.09-.17.07-.33.15-.49.23-.02.01-.05.01-.06.02-.06.04-.11.07-.17.11-.16.07-.31.17-.46.27-.02.01-.04.02-.06.04-.06.05-.12.1-.19.14-.12.1-.26.19-.4.3-.02.01-.05.04-.07.05-.06.06-.12.12-.2.17h-10.48l-1.51-3.68h19.93Z"/>
      <path class="cls-12" d="M197.52,125.62v2.92h-20.57l-.22-.56c-.12-.31-.41-.49-.73-.49h-3.63l-.44-2.65h24.55l1.05.78Z"/>
      <path class="cls-12" d="M194.35,123.26h-22.71l-.42-2.41c-.05-.27-.22-.49-.48-.61l-1.64-.68h20.27l4.98,3.7Z"/>
      <path class="cls-14" d="M192.04,174.32c.41-.16.87.04,1.03.43.05.11,1.04,2.53,1.04,4.25,0,.44-.36.8-.79.8s-.79-.36-.79-.8c0-1.16-.66-3.03-.91-3.65-.16-.41.02-.88.43-1.04Z"/>
      <path class="cls-14" d="M186.2,190.68c.11-.09,2.73-2.1,5.25-1.17.46.17,2.68,1.31,1.93,6.92-.06.4-.4.69-.79.69h-6.39c-.88,0-1.68-.48-2.08-1.26-.3-.57-.35-1.2-.17-1.79.07-.22.19-.43.32-.63l1.77-2.58c.05-.06.1-.11.16-.17ZM186.2,195.54h5.69c.14-1.84-.06-4.2-.99-4.54-1.48-.56-3.23.57-3.63.87l-1.69,2.46c-.23.36-.11.68-.05.8s.26.41.68.41Z"/>
      <path class="cls-12" d="M187.27,191.87c.41-.3,2.15-1.42,3.63-.87.93.33,1.12,2.69.99,4.54h-5.69c-.42,0-.62-.28-.68-.41s-.19-.44.05-.8l1.69-2.46Z"/>
      <path class="cls-14" d="M189.09,178.92c.05-.43.43-.74.88-.69.16.01,1.55.23,1.8,2.6.06.43-.26.83-.69.88h-.09c-.4,0-.74-.3-.78-.7-.1-.87-.38-1.16-.48-1.21-.41-.07-.68-.44-.64-.87Z"/>
      <path class="cls-12" d="M189.47,210.13c-1.94,4.19-4.23,8.2-6.8,11.98-.31-.36-.69-.93-1.03-1.79-.26-.64.23-2.97,2.42-7.39.37-.75,1.05-1.32,1.87-1.57l2.77-.84s.1-.04.15-.06l.62-.32Z"/>
      <path class="cls-10" d="M178.81,145.91c.44,0,.79-.36.79-.79,0-.17.01-.33.04-.49.01-.05.01-.11.02-.16.01-.1.04-.21.06-.31.01-.06.02-.12.05-.19.02-.1.05-.19.09-.27.01-.07.04-.12.06-.2.05-.09.09-.19.14-.27.05-.11.11-.21.17-.32l.11-.19c.05-.07.1-.14.16-.21.04-.05.09-.1.14-.16s.1-.12.16-.19.12-.11.19-.17.14-.11.2-.17c.1-.07.21-.15.32-.22.04-.04.09-.06.14-.1.12-.06.23-.14.36-.2.04-.01.07-.02.11-.05.16-.07.33-.12.51-.17.02-.01.05-.02.07-.02.15-.04.3-.07.44-.1.05,0,.1-.01.15-.02.17-.01.35-.04.53-.04,1.3,0,2.5.59,3.3,1.61.05.06.09.1.14.14.01.01.02.01.04.02,0,0,.01.01.02.01,0,0,.01.02.02.02.05.02.09.05.14.06,0,.01.01.01.01.01.02,0,.04,0,.05.01.02,0,.04,0,.05.01.05,0,.09.01.12.01h.11s.02-.01.04-.01h.06s.01-.01.02-.01h.01s.05-.01.09-.04c.01,0,.04,0,.05-.01.02-.01.04-.01.05-.02.02-.01.06-.04.09-.06.01-.01.02-.01.02-.02.02-.01.04-.02.05-.04,0-.01.01-.01.01-.02.01,0,.01-.01.02-.01.02-.02.04-.05.05-.07,0,0,.01,0,.01-.01s.01-.01.01-.02h.01s.02-.05.02-.06t.02-.04s.01-.04.01-.06c.01,0,.01-.01.01-.02v-.02s.01-.01.01-.02c.01-.02.01-.04.01-.06t.01-.04h0v-.07h0v-.04s0-.09-.01-.11v-.04c-.15-.56-.22-1.14-.22-1.71,0-.16.01-.32.02-.48,0-.11.01-.22.02-.32.02-.14.05-.26.06-.4.02-.09.04-.17.05-.25.04-.16.07-.31.11-.47.02-.05.04-.11.05-.16l.19-.52s.04-.06.05-.1c.07-.17.16-.35.25-.52.01-.01.01-.04.04-.07.09-.16.19-.31.28-.47.02-.04.04-.06.06-.1.1-.14.2-.26.28-.38.05-.05.09-.11.14-.17.07-.09.16-.17.25-.27.07-.07.15-.15.22-.23.07-.07.16-.14.25-.21.07-.07.16-.14.25-.21s.19-.15.28-.22c.09-.05.15-.1.23-.16.11-.07.22-.14.35-.21.07-.04.14-.09.21-.12.12-.06.25-.12.38-.17.07-.04.14-.07.2-.11.14-.04.27-.1.42-.14.06-.02.14-.05.21-.07.14-.04.28-.07.42-.11.07-.02.15-.04.22-.05.15-.04.31-.05.46-.07.07-.01.14-.02.21-.04.22-.02.44-.04.68-.04.22,0,.44.02.68.04.07.01.14.02.21.04.16.01.31.04.46.07.09.01.16.02.25.05.14.04.28.07.42.11.07.02.15.05.23.07.04.01.07.04.12.05v19.69h-5.43c-.28,0-.54.16-.68.38h-4.93c-.19-.63-.63-1.82-1.47-3.05-1.19-1.78-3.94-1.14-5.38-.47-.09.05-.17.11-.25.19l-1.47,1.56-1.08-2.95,1.66-3.2c.1.04.2.06.31.06Z"/>
      <path class="cls-12" d="M185.92,139.75c-.12-.05-.25-.09-.37-.14-.02,0-.05-.01-.06-.02-.09-.01-.16-.04-.23-.06-.16-.04-.32-.06-.48-.09l-.22-.04c-.23-.04-.48-.05-.72-.05-.57,0-1.11.09-1.63.23-.01,0-.02,0-.02.01-.21.06-.42.14-.62.22h-.01l-1.79-4.43h8.43s-.01.01-.01.02c-.02.04-.04.06-.05.09-.14.2-.26.4-.37.59t-.01.02s-.01.04-.02.05c-.11.21-.22.43-.32.67h0s-.02.06-.04.09c-.09.21-.17.44-.25.67,0,0,0,.02-.01.04,0,.04-.01.07-.02.11-.06.2-.12.41-.16.62,0,.02-.01.05-.01.07-.02.05-.02.12-.04.19-.02.17-.06.35-.07.53-.01.04-.01.09-.01.11-.01.1-.01.19-.02.28,0,.1-.01.19-.02.28v.3s-.11-.06-.16-.09c-.11-.06-.23-.12-.35-.17-.04-.02-.07-.04-.11-.06-.06-.01-.12-.05-.19-.06Z"/>
      <path class="cls-14" d="M178.48,153.74c3.04,1.59,5.45.8,6.44.33-.2-.57-.57-1.5-1.21-2.46-.58-.87-2.56-.26-3.28.04l-1.95,2.09ZM177.35,153.65h-.88c.02-.1.09-.2.17-.28l1.27-1.36,1.47-1.56c.07-.07.16-.14.25-.19,1.43-.67,4.19-1.31,5.38.47.84,1.24,1.29,2.42,1.47,3.05h-.68v.54h.83c.05.28-.07.59-.32.77-.11.07-1.73,1.17-4.21,1.17-1.36,0-2.98-.33-4.75-1.35v-1.27Z"/>
      <path class="cls-8" d="M191.6,175.36c.26.62.91,2.48.91,3.65,0,.44.36.8.79.8s.79-.36.79-.8c0-1.72-.99-4.14-1.04-4.25-.16-.4-.62-.59-1.03-.43s-.59.63-.43,1.04ZM189.09,178.92c-.04.42.23.79.64.87.1.05.38.35.48,1.21.04.41.38.7.78.7h.09c.43-.05.75-.44.69-.88-.26-2.36-1.64-2.58-1.8-2.6-.44-.05-.83.26-.88.69ZM168.65,166.64c.01-.07.02-.15.01-.22-.05-.46-.42-.77-.93-.74-.33.01-.67.06-1.05.1.04-.64.07-1.25.1-1.84.11-2.42.22-4.83.32-7.26.01-.25.11-.35.33-.37.31-.04.62-.07.91-.14.53-.11.8-.44.78-.89h8.22v-.36c1.77,1.01,3.39,1.35,4.75,1.35,2.48,0,4.1-1.1,4.21-1.17.25-.17.37-.48.32-.77h4.68c.06.37.4.66.78.66h5.43v4.77l-3.75,5.23c-.48.67-.73,1.45-.73,2.27v.69c0,1.83,1.48,3.31,3.31,3.31h1.16v2.51c0,7.95-1.08,15.65-3.13,22.94l-1.01-.28c.75-5.61-1.47-6.75-1.93-6.92-2.52-.93-5.14,1.09-5.25,1.17-.06.06-.11.11-.16.17l-1.77,2.58c-.14.2-.25.41-.32.63l-1.11-.33c.31-.96.49-1.98.58-3.03.1-1.15.16-2.3.22-3.45.01-.22.07-.36.28-.44.41-.17.8-.37,1.19-.58.44-.23.59-.7.4-1.11-.21-.42-.67-.58-1.12-.38-.19.09-.36.17-.57.26,0-.17-.01-.31,0-.43.1-1.69.21-3.39.31-5.07.11-1.72.22-3.44.31-5.15.02-.37.12-.62.47-.8.47-.25.9-.56,1.35-.84.42-.28.53-.75.3-1.15s-.74-.52-1.19-.26c-.23.14-.46.28-.73.46v-.32c.06-1.1.14-2.19.2-3.29.14-2.39-.78-4.28-2.66-5.72l-.3-.22c.12-.22.23-.42.35-.61s.22-.38.33-.57c.28-.51.19-.99-.26-1.24-.43-.25-.89-.09-1.17.4-.26.43-.52.87-.77,1.3-1.88-.51-3.66-.38-5.32.61-1.64.99-2.66,2.45-3.09,4.35-.21-.14-.38-.25-.56-.36-.46-.3-.96-.22-1.22.17-.1.15-.15.3-.15.46l-1.37-.06Z"/>
      <path class="cls-7" d="M180.43,151.65c.72-.3,2.69-.9,3.28-.04.64.96,1.01,1.89,1.21,2.46-.99.47-3.4,1.26-6.44-.33l1.95-2.09Z"/>
      <path class="cls-14" d="M179.8,174.94c-.44-.4-.87-.82-1.26-1.26-.27-.3-.21-.77.07-1.05.28-.3.74-.37,1.05-.11.44.4.87.83,1.27,1.26.1.11.12.3.22.54-.15.21-.27.48-.49.66-.26.2-.61.19-.87-.04Z"/>
      <path class="cls-14" d="M178.76,184.74c.31-.16.62-.12.87.1.38.35.75.7,1.09,1.1.28.31.23.79-.05,1.09-.3.3-.77.35-1.09.06-.4-.35-.77-.73-1.12-1.11-.11-.12-.14-.32-.17-.41.01-.44.19-.68.48-.83Z"/>
      <path class="cls-14" d="M176.87,181.19c-.43-.01-.69-.15-.84-.46-.14-.31-.15-.63.09-.88.37-.41.77-.8,1.17-1.17.32-.28.79-.23,1.09.05s.35.79.07,1.1c-.37.41-.77.8-1.17,1.17-.12.11-.32.15-.41.19Z"/>
      <path class="cls-14" d="M177.27,193.96c-.36.33-.87.33-1.19.02-.33-.32-.35-.82-.01-1.19.31-.32.63-.64.96-.95.27-.26.59-.31.93-.15.31.14.46.4.49.85-.06.11-.15.33-.28.49-.28.32-.59.62-.9.91Z"/>
      <path class="cls-12" d="M176.5,116.79c.12.15.28.23.46.28l4.6.9h-16.29l-5.48-2.26c-.09-.33-.23-.85-.4-1.43h15.08l2.03,2.51Z"/>
      <path class="cls-14" d="M176.72,168.82c-.35.32-.8.27-1.12-.04-.31-.31-.35-.78-.04-1.12.4-.43.82-.85,1.26-1.25.12-.12.33-.17.42-.21.44.01.7.16.85.47s.14.64-.11.9c-.41.43-.82.85-1.26,1.25Z"/>
      <path class="cls-14" d="M169.35,92.23c.2.37.04.85-.33,1.06-.12.06-.25.09-.37.09-.28,0-.56-.15-.68-.42-.48-.91-.72-1.9-.72-2.94,0-3.49,2.83-6.33,6.32-6.33.54,0,1.09.07,1.61.21-.01-.23-.02-.48-.02-.73,0-4.94,4.02-8.97,8.95-8.97,1.21,0,2.39.23,3.49.7.4.17.59.63.42,1.04h0c-.17.41-.64.59-1.04.42-.9-.38-1.87-.58-2.87-.58-4.07,0-7.38,3.31-7.38,7.39,0,.61.07,1.2.22,1.78,0,.02,0,.04.01.05v.25s-.01.05-.01.07c-.01.02-.01.06-.01.07-.01.04-.04.06-.05.09,0,.01,0,.02-.01.05t-.01.01s-.04.04-.05.07c-.02.01-.02.04-.05.05-.01.01-.02.04-.05.05s-.04.04-.06.06c-.01.01-.04.02-.05.02-.04.02-.05.04-.07.05s-.04.01-.06.02c-.02,0-.06.01-.09.02h-.01s-.02.01-.04.01c-.04.01-.09.02-.14.02h-.05c-.07,0-.15-.02-.22-.05-.01,0-.02-.01-.02-.01-.05-.01-.07-.02-.1-.05-.68-.36-1.46-.56-2.24-.56-2.61,0-4.75,2.13-4.75,4.75,0,.78.19,1.52.54,2.21Z"/>
      <path class="cls-14" d="M171.33,225.78c-.43-.05-.74-.44-.68-.88.27-2.06,1.4-4.19,2.08-4.86.32-.32.82-.31,1.12,0,.31.3.31.8,0,1.11-.36.36-1.4,2.1-1.63,3.94-.05.41-.4.69-.78.69-.05,0-.07,0-.11-.01Z"/>
      <path class="cls-12" d="M170.22,109.02l2.99,3.7h-14.31c-.48-1.41-.77-1.85-.99-2.09-.46-.49-1.94-1.1-3.39-1.61h15.7Z"/>
      <path class="cls-14" d="M172.93,200.33c-.26.23-.57.31-.9.15-.32-.16-.48-.41-.49-.9.06-.09.12-.3.27-.46.31-.33.64-.67.98-.99.38-.36.87-.37,1.21-.04.35.35.35.82-.02,1.2-.33.36-.68.7-1.04,1.04Z"/>
      <path class="cls-4" d="M169.02,93.29c.37-.21.53-.69.33-1.06-.36-.69-.54-1.43-.54-2.21,0-2.62,2.14-4.75,4.75-4.75.78,0,1.56.2,2.24.56.02.02.05.04.1.05,0,0,.01.01.02.01.07.02.15.05.22.05h.05s.1-.01.14-.02c.01,0,.02,0,.04-.01h.01s.06-.02.09-.02c.02-.01.04-.01.06-.02s.04-.02.07-.05c.01,0,.04-.01.05-.02.02-.02.04-.05.06-.06s.04-.04.05-.05c.02-.01.02-.04.05-.05.01-.04.04-.05.05-.07t.01-.01s.01-.04.01-.05c.01-.02.04-.05.05-.09,0-.01,0-.05.01-.07,0-.02.01-.05.01-.07v-.25s-.01-.02-.01-.05c-.15-.58-.22-1.17-.22-1.78,0-4.08,3.31-7.39,7.38-7.39,1,0,1.97.2,2.87.58.4.17.87-.01,1.04-.41h0s2.69,1.57,2.69,1.57c2.26,5.29,3.97,10.8,5.12,16.48h-6.18c-.37,0-.67.25-.77.58l-20.22-1.11v-.09c.12,0,.25-.02.37-.09Z"/>
      <polygon class="cls-12" points="167.76 105.98 168.93 107.42 152.46 107.42 152.42 103.74 163.66 103.74 167.76 105.98"/>
      <path class="cls-13" d="M168.34,154.54c.42.02.72.27.78.66.01.02.01.06.01.09h-.79v-.74Z"/>
      <path class="cls-8" d="M173.01,191.75c.09,2.24-1.62,4.25-3.83,4.56-.77.1-1.52.19-2.27.27-.54.07-1.09.12-1.67.19.01-.4.02-.73.05-1.08.01-.32.04-.66.05-.98,1.15-.14,1.46-.3,1.45-.82-.02-.89-.72-.89-1.37-.89.23-4.87.46-9.7.69-14.56.36.05.66.07.94.11.61.1,1.06-.19,1.12-.72.06-.49-.3-.88-.9-.94-.35-.04-.7-.09-1.08-.12,0-.14-.01-.25,0-.35.07-1.67.15-3.34.22-4.99.06-1.2.14-2.39.16-3.57.01-.35.16-.44.47-.46.27-.01.53-.05.8-.07.42-.05.73-.33.8-.69l1.37.06c0,.27.16.56.46.75.35.25.69.49,1.06.7.27.16.36.37.37.67.12,2.61.25,5.22.38,7.82.02.64.06,1.29.09,1.98-.21-.11-.37-.21-.54-.28-.43-.21-.89-.07-1.11.31-.25.41-.12.87.3,1.14.28.17.57.38.88.49.51.2.62.56.64,1.05.07,2.1.2,4.21.3,6.32.02.61,0,1.21,0,1.83-.16-.09-.35-.19-.54-.28-.52-.27-1-.17-1.25.26-.25.44-.06.93.47,1.22.42.23.85.44,1.25.69.12.07.23.25.25.37Z"/>
      <path class="cls-9" d="M178.61,172.63c-.28.28-.35.75-.07,1.05.4.44.82.87,1.26,1.26.26.22.61.23.87.04.22-.17.35-.44.49-.66-.1-.25-.12-.43-.22-.54-.41-.43-.83-.87-1.27-1.26-.31-.26-.77-.19-1.05.11ZM178.45,185.97c.36.38.73.77,1.12,1.11.32.28.79.23,1.09-.06.28-.3.33-.78.05-1.09-.33-.4-.7-.75-1.09-1.1-.25-.22-.56-.26-.87-.1-.3.15-.47.38-.48.83.04.09.06.28.17.41ZM166,199.68c-.3-.25-.75-.14-1.01.15s-.31.74-.06,1.04c.27.32.58.63.9.9.26.21.61.23.87.04.22-.16.35-.43.52-.66-.02-.02-.05-.05-.06-.07-.05-.14-.05-.31-.14-.4-.32-.35-.64-.7-1.01-1ZM173.95,165.65c.98-2.08,3.24-3.19,5.51-2.68,2.14.47,3.76,2.47,3.7,4.71-.05,1.92-.2,3.83-.32,5.74l-.26,4.19c-.19,2.83-.36,5.67-.54,8.52-.1,1.59-.15,3.2-.32,4.8-.37,3.45-1.92,6.3-4.52,8.57-2.48,2.15-5.38,3.23-8.66,3.25-.87.01-1.74,0-2.61,0-1.11,0-2.22,0-3.34.01-.26,0-.41-.09-.51-.32-.43-1-.47-2.03-.07-3.05.17-.43.51-.63.99-.68,2.14-.22,4.28-.42,6.4-.73,3.28-.47,5.49-3.34,5.3-6.71-.17-3.04-.3-6.07-.46-9.11-.21-4.38-.44-8.76-.67-13.14-.05-1.14-.12-2.27.38-3.35ZM175.6,168.78c.32.31.78.36,1.12.04.44-.4.85-.82,1.26-1.25.25-.26.26-.59.11-.9s-.41-.46-.85-.47c-.09.04-.3.09-.42.21-.44.4-.87.82-1.26,1.25-.31.35-.27.82.04,1.12ZM176.12,179.86c-.23.25-.22.57-.09.88.15.31.41.44.84.46.09-.04.28-.07.41-.19.41-.37.8-.77,1.17-1.17.27-.31.22-.82-.07-1.1s-.77-.33-1.09-.05c-.41.37-.8.77-1.17,1.17ZM176.07,192.8c-.33.37-.32.87.01,1.19.32.31.83.31,1.19-.02.31-.3.62-.59.9-.91.14-.16.22-.38.28-.49-.04-.46-.19-.72-.49-.85-.33-.16-.66-.11-.93.15-.33.31-.66.63-.96.95ZM172.02,200.47c.33.16.64.09.9-.15.36-.33.7-.68,1.04-1.04.37-.38.37-.85.02-1.2-.35-.33-.83-.32-1.21.04-.33.32-.67.66-.98.99-.15.16-.21.37-.27.46.01.49.17.74.49.9Z"/>
      <path class="cls-14" d="M164.99,199.83c.26-.28.72-.4,1.01-.15.37.3.69.66,1.01,1,.09.09.09.26.14.4.01.02.04.05.06.07-.17.22-.3.49-.52.66-.26.2-.61.17-.87-.04-.32-.27-.63-.58-.9-.9-.25-.3-.2-.75.06-1.04Z"/>
      <path class="cls-14" d="M160.91,64.06c.44,0,.79.36.79.79s-.35.79-.79.79h-3.58c-.44,0-.79-.36-.79-.79s.35-.79.79-.79h3.58Z"/>
      <path class="cls-12" d="M156.64,99.81c.06.09.16.17.26.22l3.87,2.13h-8.36l-.05-3.7h3.3l.98,1.35Z"/>
      <path class="cls-14" d="M154.74,64.06c.43,0,.79.36.79.79s-.36.79-.79.79h-6.93c-.44,0-.79-.36-.79-.79s.35-.79.79-.79h6.93Z"/>
      <polygon class="cls-12" points="152.31 93.81 154.52 96.88 152.35 96.88 152.31 93.81"/>
      <path class="cls-9" d="M159.84,185.69c-.1,3.03-.19,6.06-.27,9.09-.02.56.27.91.73.96.51.05.9-.3.91-.83.06-1.26.1-2.53.15-3.79.2-6.55.4-13.09.59-19.64.12-3.97.23-7.94.33-11.92.14-5.33.26-10.65.4-15.98.01-.53.01-1.06-.01-1.59-.01-.25.06-.37.3-.46.4-.14.77-.31,1.14-.48.48-.22.67-.68.47-1.12-.2-.42-.66-.59-1.12-.41-.3.12-.59.26-.94.41-.27-1.59-.67-3.13-1.58-4.57.2.09.32.12.42.19,3.24,1.9,4.85,4.7,4.7,8.47-.12,2.87-.26,5.72-.4,8.58-.21,4.3-.42,8.6-.62,12.9-.14,2.86-.26,5.71-.4,8.58-.19,4.08-.37,8.16-.57,12.25-.15,3.24-.31,6.49-.46,9.73-.02.3-.05.59-.06.93-.26.02-.49.07-.73.09-1.38.07-2.15.9-2.52,2.11-.38,1.27-.32,2.56.2,3.79.41.98,1.08,1.57,2.21,1.46.15-.01.3,0,.49,0-.37,7.94-.74,15.85-1.11,23.77h-1.87c0-.66-.02-1.29,0-1.92.11-3.83.25-7.65.36-11.48.09-2.71.17-5.4.26-8.11.01-.51-.17-.83-.57-.95-.33-.11-.73,0-.91.32-.11.17-.16.41-.16.62-.09,2.01-.15,4.04-.22,6.06,0,.11-.01.22-.02.38-.14-.07-.25-.12-.36-.19-.41-.21-.88-.07-1.11.31-.21.37-.11.85.25,1.1.31.22.64.4.94.62.11.09.23.26.22.4-.12,4.24-.26,8.48-.4,12.72,0,.02-.01.05-.02.11h-2.69c-.02-.3-.05-.59-.06-.9-.11-3.5-.22-7.01-.33-10.51-.14-4.41-.28-8.83-.42-13.24-.12-3.71-.23-7.43-.35-11.14-.17-5.5-.36-10.99-.52-16.49-.12-3.82-.22-7.63-.33-11.45-.01-.38-.1-.7-.43-.89-.57-.33-1.25.07-1.24.77,0,.93.05,1.85.07,2.79.04,1.4.09,2.79.12,4.21-.15-.05-.27-.1-.38-.14-.42-.1-.8.07-.98.43-.19.37-.09.79.26,1.04.31.21.64.38.95.59.11.09.21.23.21.36.11,3.13.21,6.24.31,9.36v.31c-.14-.06-.22-.1-.31-.15-.44-.23-.9-.12-1.15.28-.23.38-.12.87.3,1.15.31.2.63.41.95.59.2.11.28.25.28.49.07,2.78.16,5.56.25,8.34.07,2.51.16,5.02.25,7.53v.43c-.19-.04-.32-.09-.46-.11-.41-.04-.74.17-.88.56-.14.37,0,.77.35.96.25.15.49.28.77.4.21.09.3.21.31.46.06,2.21.14,4.43.21,6.64.01.7,0,1.42,0,2.15-.06-.02-.16-.07-.26-.12-.41-.17-.84-.04-1.08.35-.21.36-.12.82.22,1.06.33.23.69.42,1,.67.12.09.25.27.25.42.12,3.42.22,6.86.32,10.28.02.83.01,1.66.01,2.51h-1.84c-.04-.59-.06-1.19-.09-1.78-.23-4.92-.47-9.84-.7-14.77-.16-3.57-.32-7.16-.49-10.74-.17-3.94-.36-7.89-.54-11.83-.23-4.96-.47-9.93-.7-14.88-.22-4.61-.46-9.23-.67-13.84-.17-3.6-.32-7.18-.48-10.78-.09-1.87-.21-3.72-.27-5.59-.14-3.76,1.47-6.56,4.72-8.45.09-.05.2-.09.22-.1-.35.93-.77,1.88-1.05,2.86-.49,1.73-.57,3.52-.54,5.32.04,1.69.07,3.39.11,5.08v.47c-.17-.1-.28-.17-.41-.23-.41-.21-.9-.09-1.12.28-.22.36-.12.84.23,1.11.33.23.67.47,1.03.68.25.15.35.32.35.62.06,2.57.14,5.13.21,7.69.02.58.44.93.96.84.46-.07.7-.4.69-.93-.04-1.5-.09-2.99-.12-4.5-.09-4.09-.16-8.17-.27-12.26-.01-.54.12-.87.67-1.01.32-.09.63-.26.93-.41.46-.21.63-.66.44-1.09s-.64-.61-1.11-.42c-.2.07-.4.16-.66.27.21-1.32.57-2.52,1.29-3.6.52-.75,1.15-1.38,2.06-1.61.28-.07.64-.01.91.1.96.4,1.59,1.16,2.08,2.06.75,1.41,1.1,2.94,1.14,4.51.05,2.6-.02,5.18-.05,7.76,0,.04-.01.07-.04.16-.14-.09-.26-.16-.4-.23-.42-.26-.9-.16-1.16.22-.25.36-.15.88.25,1.16.28.2.57.42.88.57.35.19.42.43.41.82-.1,3.02-.17,6.03-.25,9.04-.01.1-.02.19-.02.28-.17-.02-.32-.06-.47-.06-.41-.02-.75.23-.84.61-.09.41.09.79.46.96l.07.04c.73.3.74.3.72,1.09-.07,2.51-.15,5.02-.23,7.53,0,.06-.01.11-.02.21-.12-.06-.22-.11-.33-.16-.41-.17-.87-.01-1.08.36-.21.38-.11.83.27,1.09.28.2.61.36.89.56.1.07.21.25.2.36-.07,3.18-.17,6.34-.27,9.51,0,.07-.02.14-.04.26-.15-.09-.26-.16-.38-.22-.43-.23-.9-.11-1.15.28-.22.38-.12.85.27,1.12.3.2.58.4.89.56.25.14.33.3.32.58Z"/>
      <path class="cls-14" d="M150.27,44.03c-.28-.32-.26-.83.06-1.11l1.25-1.14c.32-.3.83-.27,1.12.05.28.33.26.83-.06,1.12l-1.25,1.14c-.16.14-.35.2-.53.2-.21,0-.43-.09-.59-.26Z"/>
      <path class="cls-8" d="M148.43,184.63h.53v.56h-.51s-.01-.11-.01-.16c0-.14,0-.26-.01-.4Z"/>
      <path class="cls-14" d="M182.67,222.1c2.57-3.78,4.86-7.79,6.8-11.98l-.62.32s-.1.05-.15.06l-2.77.84c-.82.25-1.5.82-1.87,1.57-2.19,4.43-2.68,6.75-2.42,7.39.33.87.72,1.43,1.03,1.79ZM192.95,202.44c-7.94,22.42-24.46,40.63-45.49,50.48l-.36-.74c.52-9.84-8.58-23.03-16.27-26.27-2.82-1.2-5.66-2.73-8.45-4.55-5.7-3.72-9.62-9.28-11.04-15.67-2.6-11.72,3.76-20.88,9.54-26.5,3.6-3.5,6.54-6.39,8.94-8.83.31.2.62.38.91.59.07.05.15.15.2.25-2.46,2.6-5.41,5.6-9,9.09-7.98,7.76-11.04,16.18-9.09,25.02,1.32,5.98,5.01,11.2,10.35,14.7,2.71,1.76,5.48,3.25,8.21,4.4,8.01,3.37,17.3,16.43,17.26,26.98,7.61-3.67,14.6-8.43,20.77-14.05-.61-.63-1.22-1.04-1.45-1-.07.06-.14.1-.21.14l-3.71,1.66c-.1.05-.2.07-.32.07h-10.84c-.43,0-.79-.36-.79-.79s.36-.79.79-.79h10.68l3.46-1.56c.31-.22.69-.33,1.11-.3.9.07,1.84.88,2.42,1.48,4.12-3.91,7.84-8.21,11.12-12.84-.47-.47-1.09-1.27-1.58-2.56-.52-1.36.31-4.28,2.48-8.66.57-1.15,1.59-2.01,2.83-2.39l2.69-.82,2.35-1.22c.78-1.78,1.5-3.58,2.15-5.43l.32.11Z"/>
      <path class="cls-14" d="M147.69,84.43c.31-.31.8-.31,1.11,0l1.98,1.98c.31.31.31.8,0,1.11-.15.16-.36.23-.56.23s-.41-.07-.56-.23l-1.98-1.97c-.31-.31-.31-.82,0-1.12Z"/>
      <path class="cls-14" d="M142.31,70.95c.21-.38.69-.53,1.08-.32l4.14,2.27c.4.2.53.68.32,1.08-.15.26-.42.41-.69.41-.14,0-.26-.04-.38-.1l-4.14-2.26c-.38-.21-.53-.69-.32-1.08Z"/>
      <path class="cls-8" d="M141.18,175.53c.05-.83.09-1.57.14-2.31.12-2.61.25-5.2.4-7.8,0-.15.15-.35.28-.43.42-.27.87-.49,1.31-.74.49-.28.67-.78.42-1.21-.25-.42-.74-.52-1.25-.23-.22.11-.43.22-.67.36v-.32c.07-1.53.17-3.05.21-4.57.01-.32,0-.62-.04-.91.25-.48.4-.85.49-1.16h3.49c.15.02.3.05.46.07.74.12.67-.05.7.79.14,2.72.26,5.43.38,8.15.01.19,0,.37,0,.58-.33-.04-.63-.07-.93-.1-.58-.04-.95.23-.99.73-.05.53.27.87.87.93.37.04.75.09,1.16.14.15,3.13.28,6.21.43,9.3-.37.05-.68.1-1,.12-.7.06-1.06.42-.99.98.06.53.53.79,1.19.68.27-.04.56-.05.89-.09.1,2.06.19,4.12.28,6.17h-1.92c-.09-.37-.41-.62-.89-.68-.44-.05-.89-.1-1.35-.16-1.72-.26-3.19-1.84-3.26-3.6-.02-.83.04-1.66.07-2.48.01-.1.14-.23.23-.3.46-.3.94-.54,1.4-.84.43-.26.54-.74.31-1.14-.22-.4-.7-.52-1.15-.28-.21.11-.42.23-.69.38Z"/>
      <path class="cls-14" d="M145.73,156.14c-.44-.11-.68-.48-.62-.93.05-.28.22-.51.46-.61h1.04c.06,0,.12.01.19.02.36.07.61.38.61.77,0,.43-.35.79-.79.79h-.64c-.09-.01-.16-.02-.23-.05Z"/>
      <path class="cls-8" d="M146.51,184.91c.01-.1.01-.2,0-.28h1.92c.01.14.01.26.01.4l-1.93-.09v-.02Z"/>
      <path class="cls-8" d="M148.45,185.18h-2.03s.01-.04.02-.06c.02-.06.04-.12.05-.19h.01l1.93.09s0,.11.01.16Z"/>
      <path class="cls-8" d="M146.45,185.12c.02-.06.04-.12.05-.19-.01.06-.02.12-.05.19Z"/>
      <path class="cls-8" d="M146.45,185.12s-.01.04-.02.06h-.01s.02-.04.04-.06Z"/>
      <path class="cls-7" d="M146.41,185.18h.01s-.05.1-.09.14c.02-.04.05-.09.07-.14Z"/>
      <path class="cls-14" d="M145.57,154.6c.11-.06.25-.09.4-.07.22.01.44.04.64.07h-1.04Z"/>
      <path class="cls-8" d="M146.41,185.18h-.67v-.56h.77c.01.09.01.19,0,.28v.02h-.01c-.01.06-.02.12-.05.19-.01.02-.02.04-.04.06Z"/>
      <path class="cls-14" d="M144.56,59.51c-.3,0-.59-.17-.73-.48-.16-.41.02-.87.43-1.04l1.31-.54c.4-.17.87.02,1.03.42.16.42-.02.88-.43,1.04l-1.3.54c-.1.05-.2.06-.31.06Z"/>
      <path class="cls-14" d="M141.99,157.35c-.12-1.04-.51-1.94-1.12-2.74h4.71c-.23.1-.41.32-.46.61-.06.44.17.82.62.93.07.02.15.04.23.05h-3.49c-.1.31-.25.68-.49,1.16Z"/>
      <path class="cls-14" d="M139.94,167.25v-.05c.01-.28.02-.56.04-.84.05-1.1.1-2.19.16-3.29.04-.87.09-1.74.14-2.61,0-.11,0-.21.01-.32h0c.83-1.19,1.36-2.09,1.71-2.79.04.3.05.59.04.91-.04,1.52-.14,3.04-.21,4.57v.32c.23-.14.44-.25.67-.36.51-.28,1-.19,1.25.23.25.43.07.93-.42,1.21-.44.25-.89.47-1.31.74-.14.09-.28.28-.28.43-.15,2.6-.27,5.19-.4,7.8-.05.74-.09,1.48-.14,2.31.27-.15.48-.27.69-.38.44-.23.93-.11,1.15.28.23.4.12.88-.31,1.14-.46.3-.94.54-1.4.84-.1.06-.22.2-.23.3-.04.83-.1,1.66-.07,2.48.07,1.76,1.55,3.34,3.26,3.6.46.06.9.11,1.35.16.48.06.8.31.89.68h-.77v.56h.67s-.05.1-.07.14-.07.09-.11.11c-.19.16-.46.22-.78.17-.85-.15-1.74-.21-2.53-.51-.14-.05-.27-.1-.4-.16-.26-.12-.51-.26-.74-.41-.11-.07-.22-.16-.33-.25-.22-.17-.42-.36-.62-.56-.96-1.04-1.53-2.44-1.5-3.93.04-1.74.15-3.49.23-5.23.12-2.31.23-4.62.35-6.93.01-.14.01-.26.02-.38Z"/>
      <path class="cls-14" d="M141.32,215.24c.37-.25.87-.14,1.09.25.1.15,2.3,3.66,2.83,9.06.05.44-.27.83-.7.88h-.07c-.4,0-.74-.3-.79-.72-.49-5.01-2.57-8.34-2.6-8.38-.22-.37-.12-.87.25-1.09Z"/>
      <path class="cls-14" d="M141.41,113.7c-.41-.15-.61-.59-.46-1.01l3.16-8.43c.15-.41.61-.62,1.01-.47s.62.61.46,1.03l-3.15,8.43c-.12.32-.42.52-.74.52-.1,0-.2-.01-.28-.06Z"/>
      <path class="cls-14" d="M140.37,158.52c.02-.37,0-.74-.06-1.09.23-.49.42-.89.54-1.21h-.95c-.33-.66-.82-1.21-1.41-1.62h2.37c.62.8,1,1.71,1.12,2.74-.35.7-.88,1.61-1.71,2.78.02-.53.06-1.08.09-1.61Z"/>
      <path class="cls-14" d="M140.39,52.99c-.28-.33-.26-.83.06-1.12l7.84-7.1c.32-.3.82-.26,1.11.06.28.32.26.82-.06,1.11l-7.84,7.11c-.15.12-.33.2-.53.2-.21,0-.42-.09-.58-.26Z"/>
      <path class="cls-14" d="M140.31,185.8c.25-.31.69-.43,1-.2.4.31.74.7,1.09,1.08.09.09.09.23.09.26.02.46-.14.7-.43.87-.31.16-.63.14-.9-.1-.31-.27-.59-.57-.87-.88-.26-.3-.23-.73.02-1.03Z"/>
      <path class="cls-14" d="M123.89,206.67l1.05.23c.16.04.32.14.43.26l.88,1.04h7.75c.63,0,1.26-.14,1.84-.38l4.44-1.95-.74-4.46c-.07-.47-.36-.87-.77-1.09l-2.2-1.17c-.09-.05-.17-.12-.23-.2l-1.53-1.84c-.44-.53-1.19-.74-1.84-.49l-7.13,2.57c-.51.19-.91.57-1.12,1.08l-1.83,4.47c-.16.4-.14.84.06,1.21.2.38.54.64.95.73ZM139.53,198.9c.83.47,1.42,1.3,1.57,2.24l.84,5.08c.06.36-.12.7-.46.85l-5.01,2.18c-.78.36-1.62.53-2.47.53h-8.11c-.23,0-.46-.1-.61-.28l-.94-1.11-.79-.17c-.87-.2-1.61-.75-2.01-1.55s-.46-1.72-.12-2.53l1.84-4.49c.37-.91,1.12-1.63,2.04-1.97l7.13-2.57c1.29-.47,2.73-.07,3.6.98l1.43,1.72,2.06,1.1Z"/>
      <path class="cls-10" d="M136.15,132.75c1.53,0,3.03.44,4.3,1.29.02.01.04.01.05.02.02.01.06.02.09.04.01.01.04.01.05.01.01.01.02.01.04.02.02,0,.04.01.06.01.02.01.06.01.09.01h.17s.04,0,.05-.01h.04s.11-.04.16-.06c0,0,.01,0,.01-.01.01,0,.02-.01.02-.01.01-.01.04-.02.05-.02l.04-.04s.04-.02.05-.04c0-.01.01-.01.02-.02s.02-.02.04-.05.05-.05.06-.09c.01,0,.01-.01.01-.01,0-.01.01-.02.01-.04.01-.02.04-.05.05-.09,0-.02,0-.04.01-.05t.01-.05s.01-.04.01-.05c.01-.04.01-.06.01-.09v-.05c.1-5.44,4.57-9.86,10.01-9.86,3.58,0,6.91,1.94,8.69,5.03.22.38.7.52,1.09.3.06-.04.12-.09.17-.14l10.8,8.15,4.41,12.2,1.08,2.95-1.27,1.36c-.09.09-.15.19-.17.28h-8.13v.89c-.09-.01-.19-.01-.28,0-.26.02-.53.07-.84.11.05-.89.09-1.74.12-2.6.07-1.78.16-3.57.23-5.35,0-.26.1-.38.36-.46.43-.11.85-.27,1.29-.42.46-.17.68-.62.52-1.06-.15-.44-.58-.66-1.05-.51-.32.09-.63.19-1,.31.25-3.03-.54-5.69-2.46-8.02.31-.3.61-.57.89-.85.37-.38.4-.88.07-1.22-.33-.35-.87-.35-1.24.05-.3.28-.54.62-.77.87-4.77-3.44-9.41-3.44-14.09-.02-.27-.28-.54-.61-.84-.88-.36-.35-.87-.35-1.19-.02-.33.32-.33.83.02,1.21.22.23.44.47.69.68.19.17.16.3.01.48-1.61,2.04-2.37,4.36-2.29,6.96.01.23,0,.48,0,.73-.04,0-.06.01-.09.01-.28-.09-.57-.19-.85-.27-.49-.15-.94.07-1.09.52-.14.47.09.89.59,1.06.35.12.69.27,1.06.35.41.09.51.31.52.7.07,1.76.17,3.51.25,5.27.02.83,0,1.66,0,2.48-.04,0-.07-.01-.11-.01-.06-.01-.12-.02-.19-.02-.2-.04-.42-.06-.64-.07-.15-.01-.28.01-.4.07h-4.71c-.28-.38-.62-.73-1.01-1.06-.19-.15-.37-.28-.58-.43.19-.33.36-.66.53-.96.22-.46.11-.91-.3-1.15-.43-.25-.89-.12-1.16.33-.16.27-.31.53-.44.82-.11.25-.25.28-.52.22-2.34-.52-4.66.42-6.01,2.24h-9.99v-.35h-31.07v-.07s-.01-.07-.01-.12c.01-.14.01-.28-.06-.43-.28-.68-.42-1.41-.42-2.16,0-3.04,2.47-5.53,5.53-5.53,1.59,0,3.11.68,4.17,1.89.02.01.04.02.05.04l.02.02c.07.06.15.1.22.14,0,0,.01.01.02.01.09.02.17.04.26.04h.01s.04.01.06.01t.01-.01s.05,0,.09-.01c.02,0,.04-.01.07-.01.01,0,.04-.01.06-.02s.05-.01.07-.04c.02-.01.04-.02.05-.04.02-.01.06-.04.07-.05s.01-.01.02-.01c0-.01.01-.02.04-.04.01-.02.04-.05.05-.06.02-.02.04-.05.05-.06l.04-.07s.02-.04.04-.06.01-.05.02-.07c0-.02.01-.05.01-.07s.01-.05.01-.07v-.14c-.01-.17-.02-.35-.02-.52,0-4.51,3.67-8.18,8.17-8.18,2.72,0,5.27,1.36,6.79,3.63.01.02.04.06.06.09l.02.02c.07.07.15.12.23.17t.01.01c.1.04.19.05.28.06h.01c.1,0,.2-.02.28-.05h.01c.06-.02.11-.05.16-.09.04-.01.06-.05.09-.07t.01-.01c1.48-1.4,3.42-2.18,5.45-2.18,1.64,0,3.21.51,4.56,1.45,2.05,1.45,3.26,3.72,3.34,6.22.01.43.37.77.79.77h.02c.44-.01.79-.37.77-.8-.07-2.83-1.45-5.49-3.67-7.21.06-4.31,3.57-7.8,7.9-7.8Z"/>
      <path class="cls-14" d="M139.76,76.51c.31-.31.82-.31,1.12,0l5.66,5.67c.31.31.31.8,0,1.11-.15.16-.36.23-.56.23s-.41-.07-.56-.23l-5.67-5.67c-.31-.31-.31-.8,0-1.11Z"/>
      <path class="cls-14" d="M140.31,157.43c-.07-.43-.21-.84-.41-1.21h.95c-.12.32-.31.72-.54,1.21Z"/>
      <path class="cls-9" d="M139.9,156.22c.2.37.33.78.41,1.21-.44.85-1.1,1.99-2.09,3.45-1.2,1.77-3.03,3.91-5.78,6.81-.1-1.8-.21-3.6-.33-5.4.74-.56,1.4-1.1,1.98-1.59.19-.01.37-.1.54-.25.32-.3.63-.61.93-.93.12-.15.19-.35.23-.46,0-.01.01-.01.01-.02,1.2-1.25,1.85-2.24,2.16-2.82h1.94Z"/>
      <path class="cls-7" d="M139.97,166.36c-.01.28-.02.56-.04.84l-.02-.23.06-.61Z"/>
      <path class="cls-12" d="M138.77,200.31c.41.22.69.62.77,1.09l.74,4.46-4.44,1.95c-.58.25-1.21.38-1.84.38h-7.75l-.88-1.04c-.11-.12-.27-.22-.43-.26l-1.05-.23c-.41-.09-.75-.35-.95-.73-.2-.37-.22-.82-.06-1.21l1.83-4.47c.21-.51.62-.89,1.12-1.08l7.13-2.57c.66-.25,1.4-.04,1.84.49l1.53,1.84c.06.07.15.15.23.2l2.2,1.17Z"/>
      <path class="cls-14" d="M138.34,151.33c.27-.46.73-.58,1.16-.33.41.23.52.69.3,1.15-.17.31-.35.63-.53.96.21.15.4.28.58.43.4.33.73.68,1.01,1.06h-2.37c-.68-.46-1.51-.73-2.41-.72-.87.01-1.66.27-2.32.72h-2.39c1.35-1.82,3.67-2.76,6.01-2.24.27.06.41.02.52-.22.14-.28.28-.54.44-.82Z"/>
      <path class="cls-14" d="M138.03,219.58c.37-.25.87-.16,1.11.21.21.3,2.06,3.08,2.15,4.99.02.43-.31.8-.74.83h-.05c-.42,0-.77-.33-.79-.77-.05-1.24-1.37-3.44-1.88-4.17-.25-.37-.15-.85.2-1.1Z"/>
      <path class="cls-15" d="M136.08,153.89c.9-.01,1.73.26,2.41.72h-4.73c.67-.44,1.46-.7,2.32-.72Z"/>
      <path class="cls-14" d="M137.61,44.63c.4.2.57.67.38,1.06l-1.17,2.47c-.12.3-.42.46-.72.46-.11,0-.22-.02-.33-.07-.4-.17-.57-.66-.37-1.05l1.16-2.48c.19-.4.66-.56,1.05-.38Z"/>
      <path class="cls-14" d="M138.3,167.38c-.33.19-.66.14-.94-.1-.31-.27-.59-.57-.87-.88-.23-.26-.26-.59-.11-.9.16-.31.41-.46.79-.44h.04c.46.04,1.5,1.08,1.52,1.52.02.35-.12.62-.43.8Z"/>
      <path class="cls-14" d="M137.86,84.69c.16.4-.02.87-.42,1.04-.1.04-.21.06-.31.06-.31,0-.61-.19-.73-.48l-.41-.96c-.16-.41.02-.87.42-1.04.41-.16.88.02,1.04.42l.41.96Z"/>
      <path class="cls-14" d="M138.11,179.88c.27.32.23.73-.02,1.04-.23.27-.69.43-.98.21-.43-.36-.82-.78-1.2-1.2-.07-.07-.07-.21-.1-.32l-.07-.07c.19-.23.32-.51.56-.68.26-.2.61-.15.87.07.33.3.66.62.95.95Z"/>
      <path class="cls-9" d="M134.16,173.89c.15.31.41.46.84.46.07-.02.26-.05.38-.15.35-.31.68-.63.99-.99.25-.28.19-.79-.09-1.06s-.78-.33-1.09-.06c-.33.28-.64.61-.94.93-.22.26-.23.57-.1.88ZM140.28,186.83c.27.31.56.61.87.88.27.23.59.26.9.1.3-.16.46-.41.43-.87,0-.02,0-.17-.09-.26-.35-.37-.69-.77-1.09-1.08-.31-.23-.75-.11-1,.2-.26.3-.28.73-.02,1.03ZM139.91,167.63c-.11,2.31-.22,4.62-.35,6.93-.09,1.74-.2,3.49-.23,5.23-.04,1.5.53,2.89,1.5,3.93.2.2.4.38.62.56.11.09.22.17.33.25.23.15.48.28.74.41.12.06.26.11.4.16.79.3,1.68.36,2.53.51.32.05.59-.01.78-.17.04-.02.09-.07.11-.11.04-.04.06-.09.09-.14h2.03c.06,1.32.12,2.63.19,3.96.01.15.01.28.02.43-.16.01-.25.02-.33.02-1.14,0-2.27.01-3.41,0-1.47-.02-2.92-.27-4.28-.84-3.98-1.68-6.48-4.62-7.33-8.87-.23-1.16-.25-2.36-.32-3.55l-.44-6.86c3.88-4.2,6.27-7.21,7.74-9.33-.01.11-.01.21-.01.32-.05.87-.1,1.74-.14,2.61-.06,1.1-.11,2.19-.16,3.29l-.06.61.02.23v.05c-.01.12-.01.25-.02.38ZM137.37,167.29c.28.23.61.28.94.1.31-.19.46-.46.43-.8-.02-.44-1.06-1.48-1.52-1.52h-.04c-.38-.01-.63.14-.79.44-.15.31-.12.64.11.9.27.31.56.61.87.88ZM138.08,180.92c.26-.31.3-.72.02-1.04-.3-.33-.62-.66-.95-.95-.26-.22-.61-.27-.87-.07-.23.17-.37.44-.56.68l.07.07c.02.11.02.25.1.32.38.42.77.84,1.2,1.2.28.22.74.06.98-.21Z"/>
      <path class="cls-3" d="M128.52,54.62c5.64,0,10.22,4.6,10.22,10.25s-4.59,10.23-10.22,10.23-10.21-4.6-10.21-10.23,4.57-10.25,10.21-10.25Z"/>
      <path class="cls-9" d="M132.35,156.19h3.72c-.36.53-.89,1.26-1.64,2.11h-.01c-.33.33-.67.66-.99,1-.06.07-.11.15-.15.22t-.01.02c-.38.36-.8.75-1.26,1.15-.05-.8-.11-1.61-.14-2.41-.02-.75.15-1.48.48-2.1Z"/>
      <path class="cls-14" d="M135,174.34c-.43,0-.69-.15-.84-.46-.14-.31-.12-.62.1-.88.3-.32.61-.64.94-.93.31-.27.8-.22,1.09.06s.33.78.09,1.06c-.31.36-.64.68-.99.99-.12.1-.31.12-.38.15Z"/>
      <path class="cls-9" d="M139.9,156.22h-1.94c-.31.58-.96,1.57-2.16,2.82-.02-.44-.17-.7-.48-.85-.32-.16-.63-.11-.89.11.75-.85,1.29-1.58,1.64-2.11h-3.72c.32-.64.82-1.19,1.41-1.58h4.73c.59.41,1.08.96,1.41,1.62Z"/>
      <path class="cls-14" d="M134.14,77.92c.4-.17.87.01,1.04.42l1.38,3.28c.16.4-.01.87-.43,1.04-.1.04-.2.06-.3.06-.31,0-.61-.19-.73-.48l-1.38-3.28c-.17-.41.01-.87.42-1.04Z"/>
      <path class="cls-14" d="M134.08,160.7c.67-.59,1.24-1.14,1.71-1.63-.05.11-.11.31-.23.46-.3.32-.61.63-.93.93-.17.15-.36.23-.54.25Z"/>
      <path class="cls-14" d="M134.08,160.7c-.23.01-.47-.07-.64-.25-.25-.26-.31-.59-.17-.9t.01-.02c.42-.43.8-.84,1.14-1.21h.01c.26-.23.57-.28.89-.12.31.15.46.41.48.85,0,.01-.01.01-.01.02-.47.49-1.04,1.04-1.71,1.63Z"/>
      <path class="cls-14" d="M133.42,159.3c.32-.35.66-.67.99-.99-.33.37-.72.78-1.14,1.21.04-.07.09-.15.15-.22Z"/>
      <path class="cls-14" d="M131.37,154.6h2.39c-.59.4-1.09.94-1.41,1.58h-1.82c.2-.58.48-1.11.84-1.58Z"/>
      <path class="cls-9" d="M132,160.7c.46-.4.88-.79,1.26-1.15-.14.31-.07.64.17.9.17.17.41.26.64.25-.58.49-1.24,1.04-1.98,1.59v-.06c-.02-.51-.06-1.03-.1-1.53Z"/>
      <path class="cls-9" d="M140.28,160.14c-1.47,2.13-3.86,5.13-7.74,9.33-.02-.46-.06-.93-.09-1.38-.01-.14-.01-.26-.02-.4,2.76-2.9,4.59-5.04,5.78-6.81.99-1.46,1.64-2.6,2.09-3.45.06.35.09.72.06,1.09-.02.53-.06,1.08-.09,1.61h0Z"/>
      <path class="cls-14" d="M133.42,120.75c-.15.26-.41.4-.68.4-.14,0-.27-.02-.4-.1-.38-.22-.52-.72-.3-1.09l1.46-2.5c.22-.38.7-.52,1.08-.3.37.23.51.7.28,1.09l-1.45,2.5Z"/>
      <path class="cls-14" d="M132.46,168.09c.02.46.06.93.09,1.38-.51.56-1.04,1.12-1.61,1.73-.05-.1-.12-.2-.2-.25-.3-.21-.61-.4-.91-.59.95-.96,1.82-1.85,2.61-2.67.01.14.01.26.02.4Z"/>
      <path class="cls-14" d="M160.29,195.74c-.46-.05-.75-.41-.73-.96.09-3.03.17-6.06.27-9.09.01-.28-.07-.44-.32-.58-.31-.16-.59-.36-.89-.56-.4-.27-.49-.74-.27-1.12.25-.4.72-.52,1.15-.28.12.06.23.14.38.22.01-.12.04-.19.04-.26.1-3.16.2-6.33.27-9.51.01-.11-.1-.28-.2-.36-.28-.2-.61-.36-.89-.56-.38-.26-.48-.7-.27-1.09.21-.37.67-.53,1.08-.36.11.05.21.1.33.16.01-.1.02-.15.02-.21.09-2.51.16-5.02.23-7.53.02-.79.01-.79-.72-1.09l-.07-.04c-.37-.17-.54-.56-.46-.96.09-.37.43-.63.84-.61.15,0,.3.04.47.06,0-.1.01-.19.02-.28.07-3,.15-6.02.25-9.04.01-.38-.06-.63-.41-.82-.31-.15-.59-.37-.88-.57-.4-.28-.49-.8-.25-1.16.26-.38.74-.48,1.16-.22.14.07.26.15.4.23.02-.09.04-.12.04-.16.02-2.58.1-5.17.05-7.76-.04-1.57-.38-3.1-1.14-4.51-.48-.9-1.11-1.67-2.08-2.06-.27-.11-.63-.17-.91-.1-.91.22-1.55.85-2.06,1.61-.72,1.08-1.08,2.27-1.29,3.6.26-.11.46-.2.66-.27.47-.19.93-.01,1.11.42s.01.88-.44,1.09c-.3.15-.61.32-.93.41-.54.15-.68.47-.67,1.01.11,4.09.19,8.17.27,12.26.04,1.51.09,3,.12,4.5.01.53-.23.85-.69.93-.52.09-.94-.26-.96-.84-.07-2.56-.15-5.12-.21-7.69,0-.3-.1-.47-.35-.62-.36-.21-.69-.44-1.03-.68-.36-.27-.46-.75-.23-1.11.22-.37.72-.49,1.12-.28.12.06.23.14.41.23v-.47c-.04-1.69-.07-3.39-.11-5.08-.02-1.79.05-3.58.54-5.32.28-.98.7-1.93,1.05-2.86-.02.01-.14.05-.22.1-3.25,1.89-4.86,4.7-4.72,8.45.06,1.87.19,3.72.27,5.59.16,3.6.31,7.18.48,10.78.21,4.61.44,9.23.67,13.84.23,4.96.47,9.93.7,14.88.19,3.94.37,7.89.54,11.83.17,3.58.33,7.17.49,10.74.23,4.93.47,9.85.7,14.77.02.59.05,1.19.09,1.78h1.84c0-.85.01-1.68-.01-2.51-.1-3.42-.2-6.86-.32-10.28,0-.15-.12-.33-.25-.42-.31-.25-.67-.43-1-.67-.35-.25-.43-.7-.22-1.06.23-.38.67-.52,1.08-.35.1.05.2.1.26.12,0-.73.01-1.45,0-2.15-.07-2.21-.15-4.43-.21-6.64-.01-.25-.1-.37-.31-.46-.27-.11-.52-.25-.77-.4-.35-.2-.48-.59-.35-.96.14-.38.47-.59.88-.56.14.02.27.07.46.11v-.43c-.09-2.51-.17-5.02-.25-7.53-.09-2.78-.17-5.56-.25-8.34,0-.25-.09-.38-.28-.49-.32-.19-.64-.4-.95-.59-.42-.28-.53-.77-.3-1.15.25-.41.7-.52,1.15-.28.09.05.17.09.31.15v-.31c-.1-3.11-.2-6.23-.31-9.36,0-.12-.1-.27-.21-.36-.31-.21-.64-.38-.95-.59-.35-.25-.44-.67-.26-1.04.17-.36.56-.53.98-.43.11.04.23.09.38.14-.04-1.42-.09-2.82-.12-4.21-.02-.94-.07-1.87-.07-2.79-.01-.69.67-1.1,1.24-.77.33.19.42.51.43.89.11,3.82.21,7.63.33,11.45.16,5.5.35,10.99.52,16.49.11,3.71.22,7.43.35,11.14.14,4.41.28,8.83.42,13.24.11,3.5.22,7.01.33,10.51.01.31.04.61.06.9h2.69c.01-.06.02-.09.02-.11.14-4.24.27-8.48.4-12.72.01-.14-.11-.31-.22-.4-.3-.22-.63-.4-.94-.62-.36-.25-.46-.73-.25-1.1.23-.38.7-.52,1.11-.31.11.06.22.11.36.19.01-.16.02-.27.02-.38.07-2.01.14-4.04.22-6.06,0-.21.05-.44.16-.62.19-.32.58-.43.91-.32.4.12.58.44.57.95-.09,2.71-.17,5.4-.26,8.11-.11,3.83-.25,7.65-.36,11.48-.02.63,0,1.26,0,1.92h1.87c.37-7.92.74-15.83,1.11-23.77-.2,0-.35-.01-.49,0-1.14.11-1.8-.48-2.21-1.46-.52-1.24-.58-2.52-.2-3.79.37-1.21,1.14-2.04,2.52-2.11.23-.01.47-.06.73-.09.01-.33.04-.63.06-.93.15-3.24.31-6.49.46-9.73.2-4.09.38-8.17.57-12.25.14-2.87.26-5.72.4-8.58.2-4.3.41-8.6.62-12.9.14-2.86.27-5.71.4-8.58.15-3.77-1.46-6.56-4.7-8.47-.1-.06-.22-.1-.42-.19.91,1.45,1.31,2.98,1.58,4.57.35-.15.64-.28.94-.41.47-.19.93-.01,1.12.41.2.44.01.9-.47,1.12-.37.17-.74.35-1.14.48-.23.09-.31.21-.3.46.02.53.02,1.06.01,1.59-.14,5.33-.26,10.65-.4,15.98-.1,3.98-.21,7.95-.33,11.92-.2,6.55-.4,13.09-.59,19.64-.05,1.26-.09,2.53-.15,3.79-.01.53-.41.88-.91.83ZM168.53,202.74c3.29-.02,6.18-1.1,8.66-3.25,2.61-2.26,4.15-5.12,4.52-8.57.17-1.59.22-3.2.32-4.8.19-2.84.36-5.69.54-8.52l.26-4.19c.12-1.9.27-3.82.32-5.74.06-2.24-1.56-4.24-3.7-4.71-2.27-.51-4.54.61-5.51,2.68-.51,1.08-.43,2.21-.38,3.35.22,4.38.46,8.76.67,13.14.16,3.04.28,6.07.46,9.11.19,3.37-2.03,6.24-5.3,6.71-2.13.31-4.26.51-6.4.73-.48.05-.82.25-.99.68-.4,1.03-.36,2.05.07,3.05.1.23.25.32.51.32,1.11-.01,2.22-.01,3.34-.01.87,0,1.74.01,2.61,0ZM140.11,192.38c-.42-.2-.58-.67-.38-1.12.12-.3.26-.58.41-.89-1.46-.59-2.77-1.36-3.93-2.35s-2.13-2.15-2.93-3.47c-.38.14-.74.27-1.11.41-.49.17-.96.01-1.14-.42-.2-.47.02-.93.56-1.14.3-.12.59-.23.9-.35-.2-.62-.46-1.17-.57-1.77-.21-1.1-.41-2.2-.49-3.33-.19-2.19-.28-4.39-.42-6.58,0-.06-.02-.11-.06-.17.57-.61,1.1-1.17,1.61-1.73l.44,6.86c.07,1.19.09,2.39.32,3.55.85,4.25,3.35,7.19,7.33,8.87,1.36.57,2.81.82,4.28.84,1.14.01,2.27,0,3.41,0,.09,0,.17-.01.33-.02-.01-.15-.01-.28-.02-.43-.06-1.32-.12-2.63-.19-3.96h.51v-.56h-.53c-.1-2.05-.19-4.1-.28-6.17-.33.04-.62.05-.89.09-.66.11-1.12-.15-1.19-.68-.07-.56.28-.91.99-.98.32-.02.63-.07,1-.12-.15-3.09-.28-6.17-.43-9.3-.41-.05-.79-.1-1.16-.14-.59-.06-.91-.4-.87-.93.04-.49.41-.77.99-.73.3.02.59.06.93.1,0-.21.01-.4,0-.58-.12-2.72-.25-5.43-.38-8.15-.04-.84.04-.67-.7-.79-.16-.02-.31-.05-.46-.07h.64c.44,0,.79-.36.79-.79,0-.38-.25-.69-.61-.77.04,0,.07.01.11.01,0-.83.02-1.66,0-2.48-.07-1.76-.17-3.51-.25-5.27-.01-.4-.11-.62-.52-.7-.37-.07-.72-.22-1.06-.35-.51-.17-.73-.59-.59-1.06.15-.44.59-.67,1.09-.52.28.09.57.19.85.27.02,0,.05-.01.09-.01,0-.25.01-.49,0-.73-.09-2.6.68-4.92,2.29-6.96.15-.19.17-.31-.01-.48-.25-.21-.47-.44-.69-.68-.36-.38-.36-.89-.02-1.21.32-.32.83-.32,1.19.02.3.27.57.59.84.88,4.68-3.41,9.32-3.41,14.09.02.22-.25.47-.58.77-.87.37-.4.9-.4,1.24-.05.32.35.3.84-.07,1.22-.28.28-.58.56-.89.85,1.92,2.34,2.71,4.99,2.46,8.02.37-.12.68-.22,1-.31.47-.15.9.06,1.05.51.16.44-.06.89-.52,1.06-.43.15-.85.31-1.29.42-.26.07-.36.2-.36.46-.07,1.78-.16,3.57-.23,5.35-.04.85-.07,1.71-.12,2.6.31-.04.58-.09.84-.11.1-.01.2-.01.28,0v.74h.79c.02.44-.25.78-.78.89-.3.06-.61.1-.91.14-.22.02-.32.12-.33.37-.1,2.42-.21,4.83-.32,7.26-.02.59-.06,1.2-.1,1.84.38-.04.72-.09,1.05-.1.51-.02.88.28.93.74.01.07,0,.15-.01.22-.07.36-.38.64-.8.69-.27.02-.53.06-.8.07-.31.01-.46.11-.47.46-.02,1.19-.1,2.37-.16,3.57-.07,1.66-.15,3.33-.22,4.99-.01.1,0,.21,0,.35.37.04.73.09,1.08.12.61.06.96.44.9.94-.06.53-.52.82-1.12.72-.28-.04-.58-.06-.94-.11-.23,4.86-.46,9.69-.69,14.56.66,0,1.35,0,1.37.89.01.52-.3.68-1.45.82-.01.32-.04.66-.05.98-.02.35-.04.68-.05,1.08.58-.06,1.12-.11,1.67-.19.75-.09,1.51-.17,2.27-.27,2.21-.31,3.92-2.32,3.83-4.56-.01-.12-.12-.3-.25-.37-.4-.25-.83-.46-1.25-.69-.53-.3-.72-.78-.47-1.22.25-.43.73-.53,1.25-.26.2.1.38.2.54.28,0-.62.02-1.22,0-1.83-.1-2.1-.22-4.21-.3-6.32-.02-.49-.14-.85-.64-1.05-.31-.11-.59-.32-.88-.49-.42-.27-.54-.73-.3-1.14.22-.38.68-.52,1.11-.31.17.07.33.17.54.28-.02-.69-.06-1.33-.09-1.98-.14-2.61-.26-5.22-.38-7.82-.01-.3-.1-.51-.37-.67-.37-.21-.72-.46-1.06-.7-.3-.2-.46-.48-.46-.75,0-.16.05-.31.15-.46.26-.4.77-.47,1.22-.17.17.11.35.22.56.36.43-1.9,1.45-3.36,3.09-4.35,1.66-.99,3.44-1.11,5.32-.61.25-.43.51-.87.77-1.3.28-.48.74-.64,1.17-.4.44.25.54.73.26,1.24-.11.19-.22.38-.33.57s-.22.38-.35.61l.3.22c1.88,1.45,2.79,3.34,2.66,5.72-.06,1.1-.14,2.19-.2,3.29v.32c.27-.17.49-.32.73-.46.44-.26.95-.14,1.19.26s.12.87-.3,1.15c-.44.28-.88.59-1.35.84-.35.19-.44.43-.47.8-.09,1.72-.2,3.44-.31,5.15-.1,1.68-.21,3.37-.31,5.07-.01.12,0,.26,0,.43.21-.09.38-.17.57-.26.46-.2.91-.04,1.12.38.2.41.05.88-.4,1.11-.38.21-.78.41-1.19.58-.21.09-.27.22-.28.44-.06,1.15-.12,2.3-.22,3.45-.09,1.05-.27,2.06-.58,3.03-.59,2.04-1.63,3.88-3.08,5.55-.1.12-.2.23-.32.38.28.23.56.47.83.7.41.36.47.88.16,1.24-.3.36-.83.38-1.24.04-.31-.25-.59-.51-.89-.75-.02-.01-.05-.02-.11-.05-2.56,2.13-5.51,3.33-8.91,3.56v1.04c-.01.53-.33.87-.83.87-.48-.01-.8-.33-.8-.85-.01-.33-.01-.67-.01-1.04-.89,0-1.74,0-2.6.01-.06,0-.17.11-.17.19-.05.99-.09,1.99-.14,3.03.31,0,.58-.01.87,0,.51.01.83.35.83.83s-.32.78-.82.8c-.31.02-.75-.06-.91.11-.16.19-.07.61-.09.93-.11,2.24-.22,4.47-.32,6.71-.01.11,0,.23,0,.41h.57c.58,0,.96.33.98.83,0,.49-.38.83-.95.84h-.69c-.15,3.04-.28,6.04-.43,9.11h4.73c.61,0,.95.31.94.83,0,.51-.33.82-.91.82h-21.98c-.58,0-.93-.32-.93-.82-.01-.51.35-.83.94-.83h3.93c-.15-3.04-.28-6.04-.43-9.11h-.74c-.53-.01-.9-.35-.91-.82,0-.47.38-.84.93-.85.19-.01.38,0,.63,0v-.43c-.11-2.45-.22-4.88-.33-7.33-.01-.28-.09-.43-.4-.4-.22.02-.44.01-.67,0-.42-.04-.74-.37-.77-.79-.01-.42.32-.8.75-.84.31-.02.62,0,.96,0-.16-3.41-.31-6.76-.47-10.16-.38,0-.73,0-1.08-.01-.53-.01-.89-.33-.89-.82.01-.48.37-.82.89-.82h.99c-.06-1.55-.14-3.04-.21-4.59h-.48c-1.58-.04-3.16-.05-4.73-.1-.48-.01-.95-.12-1.42-.22-.25-.06-.4-.04-.49.23s-.25.54-.38.8c-.22.43-.7.61-1.11.41Z"/>
      <path class="cls-11" d="M116.41,177.22c.17,0,.36-.06.49-.17,1.35-1.09,2.26-1.68,2.29-1.69.36-.23.46-.73.22-1.1-.23-.36-.73-.47-1.09-.23-.05.04-.99.64-2.4,1.78-.35.28-.4.78-.12,1.11.15.21.37.31.61.31ZM92.35,202.54c0,.12-.15,3.33,1.62,7.53.12.3.42.48.73.48.1,0,.21-.02.31-.07.4-.16.59-.62.42-1.03-1.61-3.83-1.5-6.79-1.5-6.84.01-.44-.31-.8-.75-.83-.43-.02-.8.31-.83.75ZM132.47,237.64c.19,0,.36-.06.51-.19.33-.27.38-.77.11-1.11-1.58-1.9-2.84-2.84-2.89-2.88-.35-.26-.84-.19-1.1.17-.26.35-.19.84.17,1.1.01,0,1.16.87,2.6,2.62.16.19.38.28.61.28ZM87.58,191.73c.22-.37.12-.87-.25-1.1s-.85-.12-1.09.25c-.16.25-3.92,6.21-3.49,13.49.01.42.36.74.78.74h.05c.43-.02.77-.4.74-.83-.38-6.75,3.21-12.48,3.25-12.55ZM84.87,211.89c.73,1.35,1.66,2.65,2.76,3.86.16.16.37.26.58.26.2,0,.4-.07.54-.21.32-.3.33-.79.05-1.11-1.03-1.12-1.88-2.31-2.55-3.55-.21-.38-.69-.53-1.08-.31-.38.2-.53.68-.31,1.06ZM109.96,241.14c.41,0,.75-.32.79-.73.75-9.98-1.74-16.38-8.6-22.09-1.57-1.3-2.94-2.74-4.1-4.29-.26-.36-.75-.42-1.1-.16s-.42.75-.16,1.1c1.24,1.66,2.69,3.19,4.36,4.57,6.42,5.34,8.74,11.36,8.02,20.74-.02.44.3.82.73.85h.06ZM108.28,251.84c.37,0,.69-.26.77-.62.33-1.53.61-2.92.84-4.25.07-.42-.21-.83-.64-.9-.42-.07-.83.21-.91.64-.22,1.3-.49,2.67-.82,4.18-.1.42.17.84.59.93.06.02.12.02.17.02ZM104.33,191.43c-.12.42.12.87.54.99.07.02.15.02.22.02.33,0,.66-.22.75-.57,1.12-3.84,3.71-7.87,7.48-11.63.32-.3.32-.8.01-1.12-.31-.3-.8-.3-1.12,0-4.02,4-6.67,8.15-7.89,12.31ZM147.11,252.18c-2.51,1.15-5.09,2.19-7.74,3.09.02-4.93-.94-9.52-2.89-13.6-.19-.38-.66-.56-1.05-.36-.4.19-.56.66-.37,1.05,1.92,4,2.84,8.52,2.73,13.42-7.76,2.51-15.99,3.92-24.54,4.09,5.1-6.56,4.05-12.5,4-12.76-.09-.43-.49-.72-.93-.63-.42.07-.7.49-.63.93.01.05,1.04,6.12-4.52,12.48-8.28-.04-16.29-1.25-23.88-3.5,1.95-2.32,6.48-8.55,5.77-15.66-.49-4.93-3.41-9.27-8.69-12.88-5.4-3.7-9.28-7.85-11.53-12.36-2.66-5.33-2.45-11.68.54-17.01,4.05-7.17,13.62-19.94,32.35-24.84,12.18-3.2,19.93-6.98,24.78-10.25.07,1.2.15,2.41.22,3.62.04.64.07,1.3.11,2-.2-.11-.33-.2-.46-.27-.48-.28-.96-.2-1.24.21-.26.42-.14.9.35,1.2.11.07.21.14.32.2-2.4,2.44-5.34,5.33-8.94,8.83-5.78,5.62-12.14,14.78-9.54,26.5,1.42,6.39,5.34,11.95,11.04,15.67,2.79,1.82,5.64,3.35,8.45,4.55,7.69,3.24,16.79,16.43,16.27,26.27Z"/>
      <path class="cls-14" d="M132.1,162.23v.06c-.49.36-1.01.73-1.58,1.11-.04-.47-.06-.94-.09-1.4.19-.15.37-.28.54-.43.36-.3.7-.58,1.03-.88.04.51.07,1.03.1,1.53Z"/>
      <path class="cls-14" d="M131.37,154.6c-.36.47-.64,1-.84,1.58h-10.31c-.43,0-.79-.36-.79-.79,0-.25.11-.46.27-.59h1.68v-.2h9.99Z"/>
      <path class="cls-8" d="M118.33,194.66h2.67c.67,0,1.33-.17,1.92-.53l2.79-1.71c1.19-.72,1.82-2.13,1.57-3.49l-.23-1.3c-.07-.38-.41-.66-.79-.66h-3.19c-1,0-1.99.35-2.77.99-4.08,3.3-4.13,3.86-4.18,4.25-.07.61.12,1.22.54,1.69s1.03.74,1.67.74ZM121.54,206.67c.41.79,1.15,1.35,2.01,1.55l.79.17.94,1.11c.15.19.37.28.61.28h8.11c.85,0,1.69-.17,2.47-.53l5.01-2.18c.33-.15.52-.49.46-.85l-.84-5.08c-.15-.94-.74-1.77-1.57-2.24l-2.06-1.1-1.43-1.72c-.87-1.05-2.31-1.45-3.6-.98l-7.13,2.57c-.91.33-1.67,1.05-2.04,1.97l-1.84,4.49c-.33.82-.28,1.74.12,2.53ZM141.07,216.33s2.1,3.37,2.6,8.38c.05.42.4.72.79.72h.07c.43-.05.75-.43.7-.88-.53-5.4-2.73-8.91-2.83-9.06-.22-.38-.72-.49-1.09-.25-.37.22-.47.72-.25,1.09ZM136.2,188.01c1.16.99,2.47,1.76,3.93,2.35-.15.31-.28.59-.41.89-.2.46-.04.93.38,1.12.41.2.89.02,1.11-.41.14-.26.28-.53.38-.8s.25-.3.49-.23c.47.1.94.21,1.42.22,1.57.05,3.15.06,4.73.1h.48c.07,1.55.15,3.04.21,4.59h-.99c-.52,0-.88.33-.89.82,0,.48.36.8.89.82.35.01.69.01,1.08.01.16,3.4.31,6.75.47,10.16-.35,0-.66-.02-.96,0-.43.04-.77.42-.75.84.02.42.35.75.77.79.22.01.44.02.67,0,.31-.04.38.11.4.4.11,2.45.22,4.88.33,7.33v.43c-.25,0-.44-.01-.63,0-.54.01-.93.38-.93.85.01.47.38.8.91.82h.74c.15,3.07.28,6.07.43,9.11h-3.93c-.59,0-.95.32-.94.83,0,.49.35.82.93.82h21.98c.58,0,.91-.31.91-.82.01-.52-.33-.83-.94-.83h-4.73c.15-3.07.28-6.07.43-9.11h.69c.57-.01.95-.35.95-.84-.01-.49-.4-.83-.98-.83h-.57c0-.17-.01-.3,0-.41.1-2.24.21-4.47.32-6.71.01-.32-.07-.74.09-.93.16-.17.61-.09.91-.11.49-.02.82-.33.82-.8s-.32-.82-.83-.83c-.28-.01-.56,0-.87,0,.05-1.04.09-2.04.14-3.03,0-.07.11-.19.17-.19.85-.01,1.71-.01,2.6-.01,0,.37,0,.7.01,1.04,0,.52.32.84.8.85.49,0,.82-.33.83-.87v-1.04c3.4-.23,6.35-1.43,8.91-3.56.06.02.09.04.11.05.3.25.58.51.89.75.41.35.94.32,1.24-.04.31-.36.25-.88-.16-1.24-.27-.23-.54-.47-.83-.7.12-.15.22-.26.32-.38,1.45-1.67,2.48-3.51,3.08-5.55l1.11.33c-.17.59-.12,1.22.17,1.79.4.78,1.2,1.26,2.08,1.26h6.39c.4,0,.73-.3.79-.69l1.01.28c-.52,1.89-1.11,3.77-1.77,5.61s-1.37,3.65-2.15,5.43l-2.35,1.22-2.69.82c-1.24.37-2.26,1.24-2.83,2.39-2.18,4.39-3,7.31-2.48,8.66.49,1.29,1.11,2.09,1.58,2.56-3.29,4.64-7.01,8.94-11.12,12.84-.58-.61-1.52-1.41-2.42-1.48-.42-.04-.8.07-1.11.3l-3.46,1.56h-10.68c-.43,0-.79.35-.79.79s.36.79.79.79h10.84c.12,0,.22-.02.32-.07l3.71-1.66c.07-.04.14-.07.21-.14.22-.04.84.37,1.45,1-6.17,5.62-13.15,10.38-20.77,14.05.05-10.56-9.25-23.61-17.26-26.98-2.73-1.15-5.5-2.65-8.21-4.4-5.34-3.5-9.02-8.71-10.35-14.7-1.95-8.84,1.1-17.26,9.09-25.02,3.58-3.49,6.54-6.49,9-9.09.04.06.06.11.06.17.14,2.19.23,4.39.42,6.58.09,1.12.28,2.22.49,3.33.11.59.37,1.15.57,1.77-.31.11-.61.22-.9.35-.53.21-.75.67-.56,1.14.17.43.64.59,1.14.42.37-.14.73-.27,1.11-.41.8,1.32,1.77,2.48,2.93,3.47ZM137.84,220.68c.51.73,1.83,2.93,1.88,4.17.02.43.37.77.79.77h.05c.43-.02.77-.4.74-.83-.09-1.92-1.94-4.7-2.15-4.99-.25-.37-.74-.46-1.11-.21-.35.25-.44.73-.2,1.1ZM173.85,221.15c.31-.31.31-.82,0-1.11-.31-.31-.8-.32-1.12,0-.68.67-1.8,2.79-2.08,4.86-.06.43.25.83.68.88.04.01.06.01.11.01.38,0,.73-.28.78-.69.23-1.84,1.27-3.58,1.63-3.94Z"/>
      <path class="cls-14" d="M132.1,162.29c.12,1.8.23,3.6.33,5.4-.79.82-1.66,1.71-2.61,2.67-.11-.06-.21-.12-.32-.2-.48-.3-.61-.78-.35-1.2.27-.41.75-.49,1.24-.21.12.07.26.16.46.27-.04-.7-.07-1.36-.11-2-.07-1.21-.15-2.42-.22-3.62.57-.38,1.09-.75,1.58-1.11Z"/>
      <path class="cls-14" d="M132.98,237.46c-.15.12-.32.19-.51.19-.22,0-.44-.1-.61-.28-1.43-1.76-2.58-2.62-2.6-2.62-.36-.26-.43-.75-.17-1.1.26-.36.75-.43,1.1-.17.05.04,1.31.98,2.89,2.88.27.35.22.84-.11,1.11Z"/>
      <polygon class="cls-12" points="129.47 115.17 127.39 117.46 104.25 117.46 102.83 113.76 127.66 113.76 129.47 115.17"/>
      <path class="cls-14" d="M128.52,157.5c.22-.41.73-.54,1.17-.31.16.07.32.17.51.28.09-.35.14-.66.22-.96.04-.11.06-.22.11-.32h1.82c-.33.62-.51,1.35-.48,2.1.02.8.09,1.61.14,2.41-.32.3-.67.58-1.03.88-.17.15-.36.28-.54.43-.05-.73-.09-1.46-.12-2.19-.02-.28-.11-.44-.36-.58-.37-.19-.73-.4-1.08-.61-.43-.26-.58-.73-.36-1.14Z"/>
      <path class="cls-14" d="M129.31,36.89v2.88c0,.44-.35.8-.79.8s-.78-.37-.78-.8v-2.88c0-.44.35-.8.78-.8s.79.36.79.8Z"/>
      <path class="cls-14" d="M127.74,89.91c0-.44.35-.79.78-.79s.79.35.79.79v4.86c0,.44-.35.79-.79.79s-.78-.35-.78-.79v-4.86Z"/>
      <path class="cls-14" d="M128.52,84.53c.44,0,.79.36.79.79v.7c0,.43-.35.78-.79.78s-.78-.35-.78-.78v-.7c0-.43.35-.79.78-.79Z"/>
      <path class="cls-14" d="M118.32,193.08h2.67c.38,0,.77-.11,1.1-.31l2.79-1.71c.63-.37.96-1.12.83-1.84l-.11-.66h-2.53c-.64,0-1.27.22-1.78.63-2.45,2-3.4,2.97-3.6,3.28,0,.19.09.32.15.4.12.12.3.21.48.21ZM126.25,186.99c.38,0,.72.27.79.66l.23,1.3c.25,1.36-.38,2.77-1.57,3.49l-2.79,1.71c-.58.36-1.25.53-1.92.53h-2.67c-.64,0-1.25-.27-1.67-.74s-.62-1.09-.54-1.69c.05-.4.1-.95,4.18-4.25.78-.64,1.77-.99,2.77-.99h3.19Z"/>
      <polygon class="cls-12" points="125.93 119.04 123.16 122.08 121.74 122.73 106.3 122.73 104.87 119.04 125.93 119.04"/>
      <path class="cls-12" d="M125.71,189.23c.14.72-.2,1.47-.83,1.84l-2.79,1.71c-.33.2-.72.31-1.1.31h-2.67c-.19,0-.36-.09-.48-.21-.06-.07-.15-.21-.15-.4.2-.31,1.15-1.27,3.6-3.28.51-.41,1.14-.63,1.78-.63h2.53l.11.66Z"/>
      <polygon class="cls-12" points="125.65 112.18 101.85 112.18 91.22 109.15 90.99 108.49 120.93 108.49 125.65 112.18"/>
      <path class="cls-14" d="M122.54,130.41c-.31-.31-.31-.82,0-1.12l7.53-7.53c.3-.31.8-.31,1.11,0s.31.8,0,1.11l-7.53,7.54c-.15.15-.35.23-.56.23-.2,0-.41-.09-.56-.23Z"/>
      <path class="cls-14" d="M121.61,48.85c.4-.17.87.01,1.04.41l1.32,3.04c.17.4-.01.87-.41,1.04-.11.05-.21.07-.32.07-.31,0-.59-.19-.72-.48l-1.33-3.04c-.17-.4.02-.87.42-1.04Z"/>
      <path class="cls-5" d="M121.38,154.6v.2h-1.68c.14-.12.32-.2.52-.2h1.16Z"/>
      <path class="cls-14" d="M121.32,48.22c-.1.05-.2.06-.31.06-.31,0-.59-.17-.73-.47l-.93-2.14c-.17-.41.01-.87.42-1.04.4-.17.87,0,1.04.41l.93,2.14c.17.4-.01.87-.42,1.04Z"/>
      <path class="cls-14" d="M120.37,80.01c.2-.4.66-.57,1.05-.4.4.19.57.66.4,1.05l-1.68,3.7c-.12.3-.42.47-.72.47-.11,0-.21-.01-.32-.06-.41-.19-.58-.66-.4-1.05l1.67-3.71Z"/>
      <polygon class="cls-12" points="118.9 106.9 90.44 106.9 89.17 103.21 114.18 103.21 118.9 106.9"/>
      <polygon class="cls-12" points="118.32 124.32 108.65 128.78 106.91 124.32 118.32 124.32"/>
      <path class="cls-14" d="M116.41,177.22c-.23,0-.46-.1-.61-.31-.27-.33-.22-.83.12-1.11,1.41-1.14,2.35-1.74,2.4-1.78.36-.23.85-.12,1.09.23.23.37.14.87-.22,1.1-.02.01-.94.61-2.29,1.69-.14.11-.32.17-.49.17Z"/>
      <path class="cls-14" d="M109.41,157.01c.19,0,.37.07.52.2l3.6,3.11c.36.31.64.7.84,1.15l.78,1.88c.47,1.1.17,2.37-.74,3.15l-.44.38c-.64.54-1.45.84-2.29.84-.14,0-.3-.01-.44-.04l-2.99-.38h-6.49c-1.03,0-1.93-.74-2.14-1.74l-.35-1.58c-.19-.87.04-1.74.58-2.42s1.37-1.08,2.25-1.08h1.98l1.29-1.99c.59-.93,1.61-1.48,2.71-1.48h1.35ZM101.74,165.74h6.64l3.04.4c.54.07,1.09-.09,1.5-.44l.46-.38c.38-.33.52-.88.32-1.33l-.79-1.88c-.1-.21-.23-.41-.42-.57l-3.37-2.92h-1.05c-.56,0-1.08.28-1.38.75l-1.51,2.36c-.15.22-.4.36-.67.36h-2.41c-.41,0-.77.17-1.03.48-.25.31-.35.72-.26,1.11l.33,1.57c.06.28.32.49.61.49Z"/>
      <path class="cls-14" d="M114.93,59.76l-1.29-.53c-.4-.17-.58-.64-.42-1.04.17-.41.63-.59,1.03-.42l1.29.54c.41.16.59.63.43,1.03-.14.3-.43.49-.73.49-.11,0-.21-.04-.31-.07Z"/>
      <path class="cls-14" d="M118.31,64.87c0,5.64,4.57,10.23,10.21,10.23s10.22-4.6,10.22-10.23-4.59-10.25-10.22-10.25-10.21,4.6-10.21,10.25ZM138.81,75.56c-.15.15-.36.23-.56.23s-.41-.09-.56-.23l-1.62-1.62c-.67.56-1.4,1.04-2.18,1.45l.15.33c.17.41-.01.87-.42,1.04-.1.04-.21.06-.31.06-.31,0-.61-.17-.73-.47l-.15-.35c-.99.36-2.04.58-3.14.66v6.48c0,.43-.35.79-.79.79s-.78-.36-.78-.79v-6.48c-1.31-.09-2.56-.38-3.71-.87l-1.31,2.88c-.12.28-.42.46-.72.46-.11,0-.22-.01-.33-.06-.4-.19-.57-.66-.4-1.05l1.33-2.93c-.94-.54-1.78-1.21-2.53-1.98l-3.57,3.78c-.15.16-.36.25-.57.25-.19,0-.4-.07-.53-.21-.32-.31-.35-.8-.04-1.12l3.68-3.89c-.51-.68-.94-1.42-1.29-2.2l-2.62,1.05c-.1.05-.2.06-.3.06-.31,0-.61-.19-.73-.49-.16-.41.02-.87.43-1.03l2.66-1.08c-.23-.82-.4-1.68-.46-2.57h-3.3c-.44,0-.8-.35-.8-.79s.36-.79.8-.79h3.3c.07-1.14.31-2.22.68-3.25l-.4-.16c-.4-.17-.59-.63-.42-1.04.17-.4.63-.59,1.03-.42l.43.17c.46-.88,1.04-1.69,1.69-2.44l-7.28-6.11c-.33-.28-.37-.79-.1-1.12.28-.33.78-.37,1.11-.1l7.42,6.22c1.87-1.58,4.21-2.6,6.81-2.77v-10.14c0-.43.35-.79.79-.79s.79.36.79.79v10.14c1.1.07,2.16.31,3.16.66l1.89-4.02c.19-.4.66-.56,1.05-.38.4.2.57.67.38,1.06l-1.87,3.98c.78.41,1.51.89,2.18,1.46l1.72-1.56c.32-.28.82-.27,1.11.06.3.32.27.83-.06,1.11l-1.63,1.48c.84.91,1.53,1.98,2.05,3.13l2.83-1.16c.41-.17.87.02,1.04.42.16.41-.02.88-.43,1.04l-2.88,1.2c.23.82.38,1.66.44,2.53h5.04c.43,0,.79.36.79.79s-.36.79-.79.79h-5.04c-.06,1.03-.27,2.01-.58,2.97l1.32.72c.38.21.52.69.31,1.08-.14.26-.42.41-.69.41-.12,0-.26-.02-.38-.09l-1.16-.64c-.51,1.01-1.14,1.93-1.89,2.74l1.59,1.59c.31.32.31.82,0,1.12Z"/>
      <path class="cls-12" d="M111.42,166.14l-3.04-.4h-6.64c-.28,0-.54-.21-.61-.49l-.33-1.57c-.09-.4.01-.8.26-1.11.26-.31.62-.48,1.03-.48h2.41c.27,0,.52-.14.67-.36l1.51-2.36c.31-.47.83-.75,1.38-.75h1.05l3.37,2.92c.19.16.32.36.42.57l.79,1.88c.2.46.06,1-.32,1.33l-.46.38c-.41.36-.95.52-1.5.44Z"/>
      <path class="cls-14" d="M111.69,80.86c-.32-.31-.35-.8-.04-1.12l1.72-1.83c.3-.32.79-.33,1.11-.02.32.3.33.8.04,1.11l-1.72,1.83c-.16.16-.37.25-.58.25-.19,0-.38-.07-.53-.21Z"/>
      <path class="cls-2" d="M156.54,64.85c0,.43.35.79.79.79h3.58c.44,0,.79-.36.79-.79s-.35-.79-.79-.79h-3.58c-.44,0-.79.36-.79.79ZM150.22,87.76c.2,0,.41-.07.56-.23.31-.31.31-.8,0-1.11l-1.98-1.98c-.31-.31-.8-.31-1.11,0s-.31.82,0,1.12l1.98,1.97c.15.16.36.23.56.23ZM150.27,44.03c.16.17.38.26.59.26.19,0,.37-.06.53-.2l1.25-1.14c.32-.3.35-.79.06-1.12-.3-.32-.8-.35-1.12-.05l-1.25,1.14c-.32.28-.35.79-.06,1.11ZM136.41,83.31c-.4.17-.58.63-.42,1.04l.41.96c.12.3.42.48.73.48.1,0,.21-.02.31-.06.4-.17.58-.64.42-1.04l-.41-.96c-.16-.4-.63-.58-1.04-.42ZM135.77,48.55c.11.05.22.07.33.07.3,0,.59-.16.72-.46l1.17-2.47c.19-.4.01-.87-.38-1.06-.4-.17-.87-.01-1.05.38l-1.16,2.48c-.2.4-.02.88.37,1.05ZM135.1,82.23c.12.3.42.48.73.48.1,0,.2-.02.3-.06.42-.17.59-.64.43-1.04l-1.38-3.28c-.17-.41-.64-.59-1.04-.42-.41.17-.59.63-.42,1.04l1.38,3.28ZM128.52,84.53c-.43,0-.78.36-.78.79v.7c0,.43.35.78.78.78s.79-.35.79-.78v-.7c0-.43-.35-.79-.79-.79ZM127.74,94.77c0,.44.35.79.78.79s.79-.35.79-.79v-4.86c0-.44-.35-.79-.79-.79s-.78.35-.78.79v4.86ZM127.74,39.77c0,.43.35.8.78.8s.79-.36.79-.8v-2.88c0-.44-.35-.8-.79-.8s-.78.36-.78.8v2.88ZM121.61,48.85c-.4.17-.59.64-.42,1.04l1.33,3.04c.12.3.41.48.72.48.11,0,.21-.02.32-.07.4-.17.58-.64.41-1.04l-1.32-3.04c-.17-.4-.64-.58-1.04-.41ZM121.01,48.28c.11,0,.21-.01.31-.06.41-.17.59-.64.42-1.04l-.93-2.14c-.17-.41-.64-.58-1.04-.41-.41.17-.59.63-.42,1.04l.93,2.14c.14.3.42.47.73.47ZM121.42,79.61c-.4-.17-.85,0-1.05.4l-1.67,3.71c-.19.4-.01.87.4,1.05.11.05.21.06.32.06.3,0,.59-.17.72-.47l1.68-3.7c.17-.4,0-.87-.4-1.05ZM114.25,57.77c-.4-.17-.85.01-1.03.42-.16.4.02.87.42,1.04l1.29.53c.1.04.2.07.31.07.3,0,.59-.2.73-.49.16-.4-.02-.87-.43-1.03l-1.29-.54ZM111.75,64.85c0-.43-.36-.79-.79-.79h-6.12c-.44,0-.79.36-.79.79s.35.79.79.79h6.12c.43,0,.79-.36.79-.79ZM112.22,81.07c.21,0,.42-.09.58-.25l1.72-1.83c.3-.31.28-.82-.04-1.11-.32-.31-.82-.3-1.11.02l-1.72,1.83c-.31.32-.28.82.04,1.12.15.14.35.21.53.21ZM111.48,58.24c.31,0,.59-.17.73-.48.16-.4-.02-.87-.42-1.04l-1.38-.58c-.4-.17-.87.02-1.04.42-.16.41.02.88.42,1.04l1.38.58c.1.05.21.06.31.06ZM147.02,64.85c0,.43.35.79.79.79h6.93c.43,0,.79-.36.79-.79s-.36-.79-.79-.79h-6.93c-.44,0-.79.36-.79.79ZM145.44,83.29c.15.16.36.23.56.23s.41-.07.56-.23c.31-.31.31-.8,0-1.11l-5.66-5.67c-.31-.31-.82-.31-1.12,0s-.31.8,0,1.11l5.67,5.67ZM143.83,59.03c.14.31.43.48.73.48.11,0,.21-.01.31-.06l1.3-.54c.41-.16.59-.62.43-1.04-.16-.4-.63-.59-1.03-.42l-1.31.54c-.41.17-.59.63-.43,1.04ZM62.29,72.71c.31,0,.61-.19.73-.48.31-.72.46-1.48.46-2.26,0-3.2-2.6-5.8-5.78-5.8-.54,0-1.08.07-1.58.21-.02-5.07-4.15-9.18-9.22-9.18-.2,0-.4.01-.59.02,15.78-18.42,39.17-30.1,65.25-30.1,22.95,0,44.55,8.96,60.81,25.24.88.89,1.73,1.78,2.56,2.69h-8.78c-.44,0-.8.35-.8.79s.36.79.8.79h10.2c6.03,6.9,10.85,14.61,14.36,22.88l-2.69-1.58c.17-.41-.02-.87-.42-1.04-1.1-.47-2.27-.7-3.49-.7-4.93,0-8.95,4.03-8.95,8.97,0,.25.01.49.02.73-.52-.14-1.06-.21-1.61-.21-3.49,0-6.32,2.84-6.32,6.33,0,1.04.23,2.03.72,2.94.12.27.4.42.68.42v.09l20.22,1.11c-.01.07-.02.14-.02.21,0,.43.35.79.79.79h6.48c.94,5.13,1.42,10.37,1.42,15.7v12.39l-7.43-5.51h-.02s-.07-.04-.1-.06c-.01-.01-.02-.01-.04-.02-.05-.02-.1-.04-.16-.05l-12.21-2.41-8.66-10.72c-.06-.07-.15-.15-.23-.2l-10.85-5.93-1.09-1.51-4.6-6.35s-.01-.01-.01-.01c-.05-.07-.12-.14-.2-.19-.01,0-.02,0-.02-.01-.07-.05-.16-.09-.25-.1h-.01s-.09-.02-.15-.02h-.01s-.06.01-.1.01c-.01.01-.02.01-.02.01-.1.01-.19.05-.26.09t-.02.01l-1.69,1.05-11.54,7.17c-.15.1-.27.25-.32.42l-3.76,11.22-3.21,3.47-17.82-13.96c-.09-.07-.19-.12-.3-.15l-6.19-1.48-2.81-5.34c-.09-.16-.22-.28-.38-.36l-3.63-1.58h-.01s-6.34-2.76-6.34-2.76v-6.48c0-.2-.07-.38-.2-.52l-12.72-14.33s-.01,0-.01-.01c-.02-.02-.05-.05-.09-.07l-.04-.04s-.1-.06-.14-.07h-.01s-.11-.04-.16-.05c-.01-.01-.04-.01-.05-.01-.02,0-.06-.01-.1-.01h-.04s-.04.01-.05.01c-.04.01-.06.01-.1.02-.02,0-.04.01-.06.01-.04.01-.06.02-.1.04-.02.01-.04.02-.05.04-.04.01-.06.04-.09.05-.01.01-.02.02-.04.02t-.01.02s-.06.05-.09.09l-.02.02-5.76,8.08h-3.82c-.26,0-.51.14-.66.36l-10.31,15.56-10.41,2.87c-.21.05-.37.19-.48.36l-4.21,7.31h-2.47c-.14,0-.26.02-.38.09l-14.83,8.15c.15-9.21,1.74-18.07,4.57-26.38h10.64c.43,0,.79-.36.79-.79,0-.19-.06-.35-.16-.48l13.82-1.85,6.77-7.75c.1.04.19.06.28.06ZM110.1,72.74c.1,0,.2-.04.3-.06l1.15-.47c.4-.16.59-.62.43-1.01-.16-.41-.63-.61-1.03-.44l-1.15.46c-.41.16-.59.63-.43,1.03.12.31.42.51.73.51ZM107.6,45.72c-.28.33-.23.83.1,1.1l2.05,1.73c.15.11.33.17.51.17.22,0,.44-.09.61-.28.28-.33.23-.83-.1-1.11l-2.05-1.72c-.33-.27-.83-.23-1.11.11ZM105.81,45.24c.15.12.32.19.51.19.22,0,.44-.09.61-.28.27-.33.23-.83-.1-1.11l-1.26-1.05c-.33-.28-.83-.23-1.11.1-.27.35-.23.84.1,1.11l1.26,1.05ZM104.52,88.45c.15.14.35.21.53.21.21,0,.43-.09.58-.25l5.36-5.69c.3-.31.27-.82-.04-1.11-.31-.31-.82-.3-1.11.02l-5.36,5.69c-.31.32-.28.83.04,1.12ZM142.31,70.95c-.21.38-.06.87.32,1.08l4.14,2.26c.12.06.25.1.38.1.27,0,.54-.15.69-.41.21-.4.07-.88-.32-1.08l-4.14-2.27c-.38-.21-.87-.06-1.08.32ZM140.46,51.86c-.32.3-.35.79-.06,1.12.16.17.37.26.58.26.2,0,.38-.07.53-.2l7.84-7.11c.32-.3.35-.79.06-1.11-.3-.32-.79-.36-1.11-.06l-7.84,7.1ZM138.26,75.79c.2,0,.41-.09.56-.23.31-.31.31-.8,0-1.12l-1.59-1.59c.75-.82,1.38-1.73,1.89-2.74l1.16.64c.12.06.26.09.38.09.27,0,.56-.15.69-.41.21-.38.07-.87-.31-1.08l-1.32-.72c.31-.95.52-1.94.58-2.97h5.04c.43,0,.79-.35.79-.79s-.36-.79-.79-.79h-5.04c-.06-.88-.21-1.72-.44-2.53l2.88-1.2c.41-.16.59-.63.43-1.04-.17-.4-.63-.59-1.04-.42l-2.83,1.16c-.52-1.15-1.21-2.21-2.05-3.13l1.63-1.48c.33-.28.36-.79.06-1.11-.3-.33-.79-.35-1.11-.06l-1.72,1.56c-.67-.57-1.4-1.05-2.18-1.46l1.87-3.98c.19-.4.01-.87-.38-1.06-.4-.17-.87-.01-1.05.38l-1.89,4.02c-1-.35-2.06-.58-3.16-.66v-10.14c0-.43-.36-.79-.79-.79s-.79.36-.79.79v10.14c-2.6.17-4.94,1.19-6.81,2.77l-7.42-6.22c-.33-.27-.83-.23-1.11.1-.27.33-.23.84.1,1.12l7.28,6.11c-.66.74-1.24,1.56-1.69,2.44l-.43-.17c-.4-.17-.85.02-1.03.42-.17.41.02.87.42,1.04l.4.16c-.37,1.03-.61,2.11-.68,3.25h-3.3c-.44,0-.8.36-.8.79s.36.79.8.79h3.3c.06.89.22,1.76.46,2.57l-2.66,1.08c-.41.16-.59.62-.43,1.03.12.31.42.49.73.49.1,0,.2-.01.3-.06l2.62-1.05c.35.78.78,1.52,1.29,2.2l-3.68,3.89c-.31.32-.28.82.04,1.12.14.14.35.21.53.21.21,0,.42-.09.57-.25l3.57-3.78c.75.77,1.59,1.43,2.53,1.98l-1.33,2.93c-.17.4,0,.87.4,1.05.11.05.22.06.33.06.3,0,.59-.17.72-.46l1.31-2.88c1.15.48,2.4.78,3.71.87v6.48c0,.43.35.79.78.79s.79-.36.79-.79v-6.48c1.1-.07,2.15-.3,3.14-.66l.15.35c.12.3.42.47.73.47.1,0,.21-.02.31-.06.41-.17.59-.63.42-1.04l-.15-.33c.78-.41,1.51-.89,2.18-1.45l1.62,1.62c.15.15.36.23.56.23ZM102.53,64.85c0-.43-.35-.79-.79-.79h-4.82c-.43,0-.79.36-.79.79s.36.79.79.79h4.82c.44,0,.79-.36.79-.79ZM97.71,35.42c0-.44-.36-.8-.79-.8h-14.8c-.44,0-.79.36-.79.8s.35.79.79.79h14.8c.43,0,.79-.36.79-.79ZM80.33,45.36c0-.44-.36-.8-.79-.8h-13.96c-.43,0-.79.36-.79.8s.36.79.79.79h13.96c.43,0,.79-.36.79-.79Z"/>
      <path class="cls-12" d="M105.51,99.88l6.37,1.52.27.22h-23.51l-1.27-3.7h16.81l.82,1.56c.1.2.3.35.52.4Z"/>
      <path class="cls-14" d="M110.96,64.06c.43,0,.79.36.79.79s-.36.79-.79.79h-6.12c-.44,0-.79-.36-.79-.79s.35-.79.79-.79h6.12Z"/>
      <path class="cls-14" d="M110.1,72.74c-.31,0-.61-.2-.73-.51-.16-.4.02-.87.43-1.03l1.15-.46c.4-.16.87.04,1.03.44.16.4-.04.85-.43,1.01l-1.15.47c-.1.02-.2.06-.3.06Z"/>
      <path class="cls-14" d="M109.37,56.56c.17-.4.64-.59,1.04-.42l1.38.58c.4.17.58.64.42,1.04-.14.31-.42.48-.73.48-.1,0-.21-.01-.31-.06l-1.38-.58c-.4-.16-.58-.63-.42-1.04Z"/>
      <path class="cls-14" d="M109.05,251.23c-.07.36-.4.62-.77.62-.05,0-.11,0-.17-.02-.42-.09-.69-.51-.59-.93.32-1.51.59-2.88.82-4.18.09-.43.49-.72.91-.64.43.07.72.48.64.9-.23,1.33-.51,2.72-.84,4.25Z"/>
      <path class="cls-14" d="M107.6,45.72c.28-.35.78-.38,1.11-.11l2.05,1.72c.33.28.38.78.1,1.11-.16.2-.38.28-.61.28-.17,0-.36-.06-.51-.17l-2.05-1.73c-.33-.27-.38-.77-.1-1.1Z"/>
      <path class="cls-14" d="M104.52,88.45c-.32-.3-.35-.8-.04-1.12l5.36-5.69c.3-.32.8-.33,1.11-.02.31.3.33.8.04,1.11l-5.36,5.69c-.15.16-.37.25-.58.25-.19,0-.38-.07-.53-.21Z"/>
      <path class="cls-14" d="M104.87,192.41c-.42-.12-.67-.57-.54-.99,1.21-4.17,3.87-8.31,7.89-12.31.32-.3.82-.3,1.12,0,.31.32.31.83-.01,1.12-3.77,3.76-6.35,7.79-7.48,11.63-.1.35-.42.57-.75.57-.07,0-.15,0-.22-.02Z"/>
      <path class="cls-14" d="M104.45,43.07c.28-.33.78-.38,1.11-.1l1.26,1.05c.33.28.37.78.1,1.11-.16.2-.38.28-.61.28-.19,0-.36-.06-.51-.19l-1.26-1.05c-.33-.27-.37-.77-.1-1.11Z"/>
      <path class="cls-12" d="M102.14,94.06l1.2,2.29h-16.51l-.06-.2c-.05-.16-.16-.3-.3-.4l-3.45-2.41v-.69h15.9l3.23,1.41Z"/>
      <path class="cls-14" d="M101.74,64.06c.44,0,.79.36.79.79s-.35.79-.79.79h-4.82c-.43,0-.79-.36-.79-.79s.36-.79.79-.79h4.82Z"/>
      <path class="cls-14" d="M138.23,131.39s.05.01.07.02c.27.05.56.14.83.23.07.01.14.04.21.06.28.11.57.21.84.35.01.01.02.01.02.01,0-.02.01-.05.02-.07.04-.32.1-.66.16-.96.01-.01.01-.02.01-.05.07-.32.16-.64.26-.96.01,0,.01-.02.01-.02.1-.31.21-.62.33-.91.01-.02.02-.06.04-.09.12-.3.26-.56.41-.84.01-.04.04-.07.06-.11.14-.27.3-.53.46-.78.04-.04.06-.09.09-.12.16-.25.35-.49.52-.73.02-.04.06-.07.09-.11.19-.23.4-.47.59-.68l.09-.09c.21-.22.44-.44.67-.66.02-.01.04-.02.05-.04.25-.22.49-.42.75-.62t.01-.01c.26-.19.52-.36.8-.53.02-.02.05-.04.07-.06.26-.15.53-.31.8-.44.04-.01.07-.04.12-.05.27-.15.54-.26.83-.37.05-.02.09-.04.14-.05.28-.11.57-.21.87-.3.05-.01.1-.02.15-.05.28-.09.59-.16.89-.21.05,0,.09-.02.12-.02.32-.05.64-.1.96-.14h.07c.35-.04.69-.05,1.04-.05,4.13,0,7.98,2.24,10.04,5.82.19.32.14.7-.11.95-.05.05-.11.1-.17.14-.38.22-.87.09-1.09-.3-1.78-3.09-5.1-5.03-8.69-5.03-5.44,0-9.91,4.43-10.01,9.86v.05s0,.05-.01.09c0,.01,0,.04-.01.05t-.01.05s-.01.02-.01.05c-.01.04-.04.06-.05.09,0,.01-.01.02-.01.04,0,0,0,.01-.01.01-.01.04-.05.06-.06.09s-.02.04-.04.05-.02.01-.02.02c-.01.01-.02.02-.05.04l-.04.04s-.04.01-.05.02c0,0-.01.01-.02.01,0,.01-.01.01-.01.01-.05.02-.11.04-.16.06h-.04s-.04.01-.05.01h-.17s-.06,0-.09-.01c-.02,0-.04-.01-.06-.01-.01-.01-.02-.01-.04-.02-.01,0-.04,0-.05-.01-.02-.01-.06-.02-.09-.04-.01-.01-.02-.01-.05-.02-1.27-.84-2.77-1.29-4.3-1.29-4.33,0-7.84,3.49-7.9,7.8,2.22,1.72,3.6,4.38,3.67,7.21.02.43-.32.79-.77.8h-.02c-.42,0-.78-.33-.79-.77-.07-2.5-1.29-4.77-3.34-6.22-1.35-.94-2.92-1.45-4.56-1.45-2.03,0-3.97.78-5.45,2.18t-.01.01s-.05.06-.09.07c-.05.04-.1.06-.16.09h-.01c-.09.02-.19.05-.28.05h-.01c-.1-.01-.19-.02-.28-.06t-.01-.01c-.09-.05-.16-.1-.23-.17l-.02-.02s-.05-.06-.06-.09c-1.52-2.27-4.07-3.63-6.79-3.63-4.5,0-8.17,3.67-8.17,8.18,0,.17.01.35.02.52v.14s-.01.05-.01.07-.01.05-.01.07c-.01.02-.01.05-.02.07s-.02.05-.04.06l-.04.07s-.02.04-.05.06c-.01.01-.04.04-.05.06-.02.01-.04.02-.04.04t-.02.01s-.05.04-.07.05c-.01.01-.02.02-.05.04-.02.02-.05.02-.07.04s-.05.02-.06.02c-.04,0-.05.01-.07.01-.04.01-.06.01-.09.01t-.01.01h-.07c-.09-.01-.17-.02-.26-.05-.01,0-.02-.01-.02-.01-.07-.04-.15-.07-.22-.14l-.02-.02s-.02-.02-.05-.04c-1.05-1.21-2.57-1.89-4.17-1.89-3.05,0-5.53,2.48-5.53,5.53,0,.75.14,1.48.42,2.16.07.15.07.3.06.43,0,.05.01.09.01.12v.07h-2.09v.54h1.79c-.14.11-.31.17-.49.17h-7.29c-.31,0-.58-.17-.7-.44h2.4v-.61h-2.44c.1-.31.4-.53.74-.53h6.28c-.17-.62-.27-1.26-.27-1.93,0-3.92,3.19-7.12,7.12-7.12,1.45,0,2.84.46,4.02,1.26.56-4.85,4.68-8.64,9.68-8.64,2.94,0,5.71,1.33,7.56,3.62,1.66-1.32,3.72-2.04,5.86-2.04,1.51,0,2.95.36,4.28,1.03.54-4.73,4.56-8.41,9.42-8.41.31,0,.63.01.94.05.07,0,.15.01.22.02.3.04.61.09.9.15Z"/>
      <path class="cls-14" d="M109.9,241.14c-.43-.04-.75-.41-.73-.85.72-9.38-1.61-15.4-8.02-20.74-1.67-1.38-3.13-2.92-4.36-4.57-.26-.35-.19-.84.16-1.1s.84-.2,1.1.16c1.16,1.55,2.53,2.99,4.1,4.29,6.86,5.71,9.36,12.11,8.6,22.09-.04.41-.38.73-.79.73h-.06Z"/>
      <path class="cls-14" d="M96.92,34.62c.43,0,.79.36.79.8s-.36.79-.79.79h-14.8c-.44,0-.79-.36-.79-.79s.35-.8.79-.8h14.8Z"/>
      <path class="cls-14" d="M92.35,202.54c.02-.44.4-.78.83-.75.44.02.77.38.75.83,0,.05-.11,3,1.5,6.84.17.41-.02.87-.42,1.03-.1.05-.21.07-.31.07-.31,0-.61-.19-.73-.48-1.77-4.2-1.62-7.4-1.62-7.53Z"/>
      <path class="cls-14" d="M94.21,129.63c.4-.19.87-.02,1.06.36l1.3,2.67c.19.4.02.88-.36,1.06-.11.06-.23.07-.35.07-.3,0-.58-.16-.72-.43l-1.31-2.67c-.19-.4-.02-.88.37-1.06Z"/>
      <path class="cls-12" d="M91.47,88.89c0,.32.17.61.47.73l3.33,1.45h-12.25v-3.7h8.45v1.52Z"/>
      <path class="cls-12" d="M91.47,82.22v3.58h-8.94l-2.2-2.94v-.75h10.74c.1,0,.17-.01.25-.04l.15.15Z"/>
      <polygon class="cls-12" points="86.67 76.83 89.96 80.53 80.33 80.53 80.33 76.83 86.67 76.83"/>
      <path class="cls-14" d="M86.9,171.5c-.37,0-.7-.27-.77-.66-.59-3.24,2.61-7.68,2.74-7.87.26-.35.75-.42,1.11-.17.35.26.42.75.16,1.12-.82,1.12-2.86,4.51-2.46,6.64.07.43-.22.84-.64.93-.05,0-.1.01-.15.01Z"/>
      <path class="cls-14" d="M86.24,190.88c.23-.37.72-.48,1.09-.25s.47.73.25,1.1c-.04.06-3.63,5.8-3.25,12.55.02.43-.31.8-.74.83h-.05c-.42,0-.77-.32-.78-.74-.43-7.28,3.33-13.24,3.49-13.49Z"/>
      <path class="cls-14" d="M85.18,210.83c.38-.22.87-.07,1.08.31.67,1.24,1.52,2.42,2.55,3.55.28.32.27.82-.05,1.11-.15.14-.35.21-.54.21-.21,0-.42-.1-.58-.26-1.1-1.21-2.03-2.51-2.76-3.86-.22-.38-.07-.87.31-1.06Z"/>
      <polygon class="cls-12" points="80.33 69.67 85.28 75.25 80.33 75.25 80.33 69.67"/>
      <path class="cls-14" d="M85.03,113.76l1.98,5.45,3.87,1.46c.21.07.37.23.46.44l1.53,3.79c.16.41-.02.88-.43,1.04-.1.04-.2.06-.3.06-.31,0-.61-.2-.73-.51l-1.42-3.49-3.88-1.46c-.21-.07-.38-.25-.47-.47l-2.1-5.8c-.14-.42.07-.87.48-1.01s.87.06,1.01.48Z"/>
      <path class="cls-14" d="M84.23,165.36c.42.11.67.56.54.98,0,.02-.91,3.2-1.09,4.49-.06.38-.4.68-.79.68-.02,0-.07-.01-.11-.01-.42-.06-.73-.47-.67-.9.21-1.4,1.1-4.56,1.14-4.7.11-.41.56-.66.98-.53Z"/>
      <path class="cls-14" d="M84.87,238.54c.3.32.27.83-.06,1.11-1.69,1.51-4.28,4.51-3.97,6.11.09.43-.2.85-.62.94-.05,0-.1.01-.16.01-.36,0-.69-.26-.77-.63-.61-3,3.94-7.14,4.46-7.6.32-.3.83-.27,1.11.06Z"/>
      <path class="cls-14" d="M79.54,44.56c.43,0,.79.36.79.8s-.36.79-.79.79h-13.96c-.43,0-.79-.36-.79-.79s.36-.8.79-.8h13.96Z"/>
      <path class="cls-14" d="M78.22,233.07c.43,0,.79.36.79.8s-.36.78-.79.78h-2.45c-.43,0-.79-.35-.79-.78s.36-.8.79-.8h2.45Z"/>
      <path class="cls-14" d="M70.41,174.18l1.27.17v-10.43c-1.83,1.64-3.37,1.84-3.46,1.85h-.09c-.4,0-.74-.3-.78-.7-.05-.43.26-.82.69-.88.09-.01,1.78-.27,3.63-2.57v-1.73c-1.84,1.64-3.39,1.84-3.46,1.85h-.09c-.41,0-.74-.3-.78-.7-.05-.43.25-.82.68-.88.09-.01,1.78-.27,3.63-2.57v-1.73c-1.83,1.64-3.37,1.84-3.45,1.85h-.1c-.4,0-.74-.3-.78-.7-.05-.43.26-.82.69-.88.07-.01,1.26-.2,2.73-1.61l.22-.24,2.93.02.2.22c1.48,1.42,2.68,1.59,2.74,1.61.43.06.73.44.69.88-.06.41-.4.7-.79.7-.02,0-.06,0-.09-.01-.09,0-1.62-.2-3.44-1.83v1.73c1.85,2.29,3.54,2.55,3.61,2.56.44.05.74.44.69.88-.05.4-.38.69-.78.69h-.09c-.09,0-1.62-.21-3.45-1.83v1.73c1.85,2.29,3.55,2.53,3.62,2.55.43.06.74.46.69.89-.05.4-.38.69-.78.69h-.1c-.07-.01-1.62-.21-3.44-1.84v10.64l2.39.33h5.62c.43,0,.84.36.84.79s-.35.79-.79.79h-5.8l-5.1-.72-4.5,1.42c-.09.02-.16.04-.25.04-.33,0-.64-.22-.74-.56-.14-.41.1-.87.51-.99l4.67-1.47c.1-.04.23-.05.35-.02Z"/>
      <path class="cls-14" d="M76.37,249.35c-.28,0-.57-.16-.69-.43-1.22-2.45,1.56-6.85,1.88-7.33.25-.37.73-.47,1.1-.22.36.22.46.73.22,1.09-1.01,1.57-2.41,4.51-1.79,5.75.2.4.04.87-.36,1.06-.11.06-.22.09-.36.09Z"/>
      <path class="cls-14" d="M76.12,97.15v6.98c0,.43-.36.79-.79.79s-.79-.36-.79-.79v-6.98c0-.44.36-.8.79-.8s.79.36.79.8Z"/>
      <path class="cls-14" d="M73.78,120.4c-.42-.04-.74-.43-.69-.87l1.46-12.71c.04-.43.43-.75.87-.69.43.05.74.44.69.88l-1.45,12.69c-.04.4-.4.7-.79.7-.01,0-.05,0-.09-.01Z"/>
      <path class="cls-14" d="M72.22,127.32c-.42-.11-.67-.54-.57-.96l.8-3.04c.11-.42.54-.67.96-.57.42.12.67.54.56.96l-.79,3.04c-.1.35-.41.59-.77.59-.06,0-.12-.01-.2-.02Z"/>
      <path class="cls-14" d="M73.21,86.85c-.15,0-.3-.05-.43-.14-.37-.23-.46-.73-.22-1.09l1.05-1.59c.25-.36.73-.46,1.1-.22.36.25.47.74.22,1.1l-1.06,1.59c-.14.22-.4.35-.66.35Z"/>
      <path class="cls-14" d="M71.8,149.35c.15-.19.36-.28.57-.3h.12c.22.01.43.11.58.3,1.9,2.48,3.71,2.74,3.77,2.76.44.06.74.46.69.88-.05.41-.38.7-.78.7h-.1c-.07-.01-1.62-.21-3.42-1.84v1.74c.1.11.19.22.28.33h-2.16c.1-.11.2-.23.31-.37v-1.72c-1.83,1.64-3.37,1.84-3.46,1.85h-.09c-.4,0-.74-.31-.79-.7-.04-.43.27-.82.69-.88.1-.01,1.88-.28,3.78-2.76Z"/>
      <path class="cls-15" d="M79.3,246.08c.07.37.41.63.77.63.06,0,.11-.01.16-.01.42-.09.7-.51.62-.94-.31-1.59,2.27-4.6,3.97-6.11.33-.28.36-.79.06-1.11-.28-.33-.79-.36-1.11-.06-.52.46-5.07,4.6-4.46,7.6ZM76.37,249.35c.14,0,.25-.02.36-.09.4-.2.56-.67.36-1.06-.62-1.24.78-4.18,1.79-5.75.23-.36.14-.87-.22-1.09-.37-.25-.85-.15-1.1.22-.32.48-3.1,4.88-1.88,7.33.12.27.41.43.69.43ZM70.74,249.56c-7-3.78-13.4-8.5-19.05-13.99l5.82-1.98c.61-.2,1.27-.2,1.88.01l4.04,1.42c.09.02.17.04.26.04h8.43c.44,0,.79-.35.79-.78s-.35-.79-.79-.79h-8.28l-3.34-1.19v-13.4c2.58,2.56,4.85,2.84,4.96,2.86h.09c.4,0,.74-.28.79-.69.05-.42-.26-.82-.69-.88-.02,0-2.52-.37-5.14-3.63v-3.1c2.58,2.56,4.85,2.84,4.96,2.86h.09c.4,0,.74-.3.79-.69.05-.43-.26-.83-.69-.88-.02,0-2.52-.37-5.14-3.65v-3.09c2.58,2.55,4.85,2.84,4.96,2.86h.09c.4,0,.74-.3.79-.69.01-.14,0-.26-.05-.37h3.19c.26,2.19.89,4.36,1.9,6.39,2.37,4.75,6.43,9.11,12.05,12.95,4.88,3.34,7.58,7.27,8.02,11.72.69,7.06-4.47,13.45-5.86,15.02-4.52-1.43-8.9-3.24-13.07-5.36-.15-1.88-1.52-4.28-1.69-4.57-.22-.37-.7-.51-1.08-.28-.38.22-.51.72-.28,1.09.41.69.95,1.82,1.26,2.82ZM79.01,233.87c0-.44-.36-.8-.79-.8h-2.45c-.43,0-.79.36-.79.8s.36.78.79.78h2.45c.43,0,.79-.35.79-.78Z"/>
      <path class="cls-6" d="M31.09,117.98c.14,0,.28-.04.43-.12l12.1-7.91c.37-.25.47-.74.23-1.1-.23-.37-.73-.47-1.09-.23l-12.13,7.91c-.36.25-.47.73-.22,1.1.15.23.4.36.67.36ZM95.87,133.8c.11,0,.23-.01.35-.07.38-.19.54-.67.36-1.06l-1.3-2.67c-.2-.38-.67-.54-1.06-.36s-.56.67-.37,1.06l1.31,2.67c.14.27.42.43.72.43ZM132.74,121.14c.27,0,.53-.14.68-.4l1.45-2.5c.22-.38.09-.85-.28-1.09-.37-.22-.85-.09-1.08.3l-1.46,2.5c-.22.37-.09.87.3,1.09.12.07.26.1.4.1ZM123.1,130.65c.21,0,.41-.09.56-.23l7.53-7.54c.31-.31.31-.8,0-1.11s-.82-.31-1.11,0l-7.53,7.53c-.31.31-.31.82,0,1.12.15.15.36.23.56.23ZM86.11,120.56l3.88,1.46,1.42,3.49c.12.31.42.51.73.51.1,0,.2-.02.3-.06.41-.16.59-.63.43-1.04l-1.53-3.79c-.09-.21-.25-.37-.46-.44l-3.87-1.46-1.98-5.45c-.15-.42-.61-.63-1.01-.48s-.62.59-.48,1.01l2.1,5.8c.09.22.26.4.47.47ZM49.52,131.7c.26,0,.52-.14.67-.37,2.45-3.93,5.27-8.24,5.75-8.73.33-.26.41-.74.16-1.09-.26-.35-.75-.43-1.1-.17-.69.49-4.15,5.93-6.16,9.15-.22.37-.11.85.26,1.09.14.09.28.12.42.12ZM59.52,106.9c.27,0,.54-.14.69-.38l5.74-9.65,5.76-6.59c.3-.33.26-.83-.07-1.11-.32-.3-.83-.26-1.11.06l-5.81,6.66s-.06.07-.09.11l-5.77,9.7c-.22.37-.1.85.27,1.09.12.07.27.11.4.11ZM141.69,113.76c.32,0,.62-.2.74-.52l3.15-8.43c.16-.42-.05-.88-.46-1.03s-.87.06-1.01.47l-3.16,8.43c-.15.42.05.87.46,1.01.09.05.19.06.28.06ZM46.35,108.49c.2,0,.4-.07.54-.21l3.16-3.02c.31-.3.33-.79.02-1.11-.3-.31-.8-.33-1.11-.02l-3.16,2.99c-.31.31-.33.8-.02,1.12.16.16.36.25.57.25ZM74.54,104.13c0,.43.36.79.79.79s.79-.36.79-.79v-6.98c0-.44-.36-.8-.79-.8s-.79.36-.79.8v6.98ZM81.48,153.92h-7.96c-.1-.11-.19-.22-.28-.33v-1.74c1.8,1.63,3.35,1.83,3.42,1.84h.1c.4,0,.73-.3.78-.7.05-.42-.25-.82-.69-.88-.06-.01-1.87-.27-3.77-2.76-.15-.19-.36-.28-.58-.3h-.12c-.21.01-.42.11-.57.3-1.9,2.47-3.68,2.74-3.78,2.76-.42.06-.73.44-.69.88.05.4.4.7.79.7h.09c.09-.01,1.63-.21,3.46-1.85v1.72c-.11.14-.21.26-.31.37h-10.74v-6.33c1.82,1.63,3.35,1.83,3.44,1.83h.09c.4,0,.74-.28.78-.69.01-.44-.3-.84-.73-.9-.07,0-1.77-.26-3.62-2.55v-1.73c1.82,1.63,3.36,1.83,3.45,1.83.02.01.05.01.09.01.4,0,.73-.31.78-.7.05-.43-.25-.82-.69-.88-.07-.01-1.76-.27-3.61-2.56v-1.73c1.82,1.63,3.35,1.83,3.44,1.83.04.01.06.01.09.01.4,0,.73-.3.78-.7.06-.43-.25-.82-.68-.88-.07-.01-1.77-.27-3.62-2.55v-1.74c1.82,1.64,3.36,1.83,3.44,1.84h.1c.4,0,.73-.28.78-.69.05-.43-.26-.83-.68-.88-.07-.01-1.88-.28-3.78-2.77-.15-.19-.36-.28-.57-.3h-.14c-.21.01-.42.11-.57.3-1.9,2.48-3.7,2.76-3.78,2.77-.43.05-.73.43-.68.87.04.41.37.7.78.7h.09c.07-.01,1.63-.21,3.46-1.85v1.73c-1.85,2.3-3.55,2.56-3.63,2.58-.43.05-.74.43-.69.87.04.41.38.7.78.7h.09c.09-.01,1.63-.21,3.46-1.85v1.73c-1.85,2.3-3.55,2.56-3.63,2.58-.43.05-.74.43-.69.87.05.41.38.7.79.7h.09c.07-.01,1.63-.2,3.45-1.85v1.73c-1.85,2.3-3.54,2.56-3.63,2.58-.42.05-.73.43-.68.87.04.41.38.7.78.7h.1c.07-.01,1.62-.2,3.45-1.84v6.34h-7.54c-1.03-1.67-2.2-2.66-2.29-2.73-.35-.27-.84-.22-1.11.1-.28.35-.23.84.1,1.12.01.01.67.56,1.37,1.51h-10.31l2.13-2.27s.1.02.15.02c.25,0,.49-.11.64-.33.84-1.2,1.29-2.61,1.29-4.08,0-3.92-3.19-7.12-7.11-7.12-.4,0-.78.04-1.15.1.23-.8.36-1.62.36-2.47,0-4.81-3.89-8.7-8.7-8.7-.43,0-.88.04-1.31.1v-17.44l15.44-8.5h2.72c.28,0,.54-.15.69-.4l4.28-7.42,10.38-2.84c.19-.06.35-.17.44-.33l10.25-15.46h3.79c.26,0,.51-.12.64-.32l4.57-6.42v13.05c0,.17.06.33.16.47l2.52,3.39v6.77c0,.26.14.49.35.64l3.57,2.51,4.5,13.15c.09.25.28.43.53.51l10.69,3.03,3.96,10.22h0s2.45,6.32,2.45,6.32c.07.21.23.37.44.46.09.02.19.05.3.05s.22-.02.32-.07l13.68-6.32s.01-.01.02-.01l1.72-.79c.09-.04.17-.11.25-.19l7-7.65,3.81-4.13c.07-.09.14-.19.17-.3l3.71-11.11,2.58-1.59,9.22-5.72.06,4.92h0s.06,5.27.06,5.27h0v.02l.06,5.24v.02h0s.01.7.01.7c0,.36.23.66.57.75,1.95.59,4.23,1.41,5.02,1.85.12.06.21.11.26.16.02.04.27.35.82,2.04.43,1.32.78,2.73.78,2.74.06.25.23.46.47.54l5.99,2.47,4.93,2.04.44,2.63s.01.04.02.06l.72,4.18c.06.38.4.66.78.66h3.76l.23.56h0s2.14,5.28,2.14,5.28v.02l2.32,5.74c-.27.22-.52.47-.74.73-.02.02-.06.06-.09.1-.09.11-.17.22-.25.33l-.11.15c-.07.1-.14.22-.2.33-.04.06-.07.12-.1.19-.06.1-.11.21-.16.32-.04.07-.06.16-.1.23-.04.1-.07.21-.11.31-.02.11-.06.2-.09.3-.02.09-.05.19-.07.28-.02.12-.04.25-.06.37-.01.07-.02.15-.02.22-.02.21-.05.42-.05.63,0,.32.2.61.48.73l-1.66,3.2-4.41-12.2-10.8-8.15c.25-.25.3-.63.11-.95-2.05-3.58-5.91-5.82-10.04-5.82-.35,0-.69.01-1.04.05h-.07c-.32.04-.64.09-.96.14-.04,0-.07.02-.12.02-.3.05-.61.12-.89.21-.05.02-.1.04-.15.05-.3.09-.58.19-.87.3-.05.01-.09.02-.14.05-.28.11-.56.22-.83.37-.05.01-.09.04-.12.05-.27.14-.54.3-.8.44-.02.02-.05.04-.07.06-.28.17-.54.35-.8.53t-.01.01c-.26.2-.51.4-.75.62-.01.01-.02.02-.05.04-.22.21-.46.43-.67.66l-.09.09c-.2.21-.41.44-.59.68-.02.04-.06.07-.09.11-.17.23-.36.48-.52.73-.02.04-.05.09-.09.12-.16.25-.32.51-.46.78-.02.04-.05.07-.06.11-.15.28-.28.54-.41.84-.01.02-.02.06-.04.09-.12.3-.23.61-.33.91,0,0,0,.02-.01.02-.1.32-.19.64-.26.96,0,.02,0,.04-.01.05-.06.31-.12.64-.16.96-.01.02-.02.05-.02.07,0,0-.01,0-.02-.01-.27-.14-.56-.23-.84-.35-.07-.02-.14-.05-.21-.06-.27-.1-.56-.19-.83-.23-.02-.01-.05-.02-.07-.02-.3-.06-.61-.11-.9-.15-.07-.01-.15-.02-.22-.02-.31-.04-.63-.05-.94-.05-4.86,0-8.87,3.67-9.42,8.41-1.32-.67-2.77-1.03-4.28-1.03-2.14,0-4.2.72-5.86,2.04-1.85-2.29-4.62-3.62-7.56-3.62-4.99,0-9.12,3.79-9.68,8.64-1.17-.8-2.57-1.26-4.02-1.26-3.93,0-7.12,3.2-7.12,7.12,0,.67.1,1.31.27,1.93h-6.28c-.35,0-.64.22-.74.53ZM73.87,120.41c.4,0,.75-.31.79-.7l1.45-12.69c.05-.43-.26-.83-.69-.88-.43-.06-.83.26-.87.69l-1.46,12.71c-.05.43.27.83.69.87.04.01.07.01.09.01ZM72.78,86.72c.14.09.28.14.43.14.26,0,.52-.12.66-.35l1.06-1.59c.25-.36.14-.85-.22-1.1-.37-.23-.85-.14-1.1.22l-1.05,1.59c-.23.36-.15.85.22,1.09ZM72.22,127.32c.07.01.14.02.2.02.36,0,.67-.25.77-.59l.79-3.04c.11-.42-.14-.84-.56-.96-.42-.1-.85.15-.96.57l-.8,3.04c-.1.42.15.85.57.96Z"/>
      <path class="cls-4" d="M46.89,56.78c4.2,0,7.61,3.42,7.64,7.63l-.07,1.14c-.02.28.12.57.36.73.25.15.56.16.8.01.64-.36,1.33-.53,2.08-.53,2.31,0,4.2,1.89,4.2,4.21,0,.57-.1,1.11-.32,1.64-.17.41.01.87.42,1.04h.01l-6.77,7.75-13.82,1.85c-.15-.19-.37-.31-.63-.31h-10.1c1.03-2.84,2.21-5.61,3.51-8.32,2.89-5.92,6.44-11.47,10.54-16.54.69-.2,1.41-.31,2.15-.31Z"/>
      <path class="cls-14" d="M61.4,176.23c.44,0,.79.36.79.79s-.35.79-.79.79h-1.68c-.44,0-.79-.35-.79-.79s.35-.79.79-.79h1.68Z"/>
      <path class="cls-14" d="M60.62,154.53v3.3c0,.44-.36.79-.79.79s-.79-.35-.79-.79v-3.3h1.58Z"/>
      <path class="cls-14" d="M70.52,89.23c.28-.32.79-.36,1.11-.06.33.28.37.78.07,1.11l-5.76,6.59-5.74,9.65c-.15.25-.42.38-.69.38-.12,0-.27-.04-.4-.11-.37-.23-.49-.72-.27-1.09l5.77-9.7s.05-.09.09-.11l5.81-6.66Z"/>
      <path class="cls-14" d="M60.43,133c1.9,2.48,3.71,2.76,3.78,2.77.42.05.73.44.68.88-.05.41-.38.69-.78.69h-.1c-.07-.01-1.62-.2-3.44-1.84v1.74c1.85,2.27,3.55,2.53,3.62,2.55.43.06.74.44.68.88-.05.41-.38.7-.78.7-.02,0-.05,0-.09-.01-.09,0-1.62-.2-3.44-1.83v1.73c1.85,2.29,3.54,2.55,3.61,2.56.44.06.74.44.69.88-.05.4-.38.7-.78.7-.04,0-.06,0-.09-.01-.09,0-1.63-.2-3.45-1.83v1.73c1.85,2.29,3.55,2.55,3.62,2.55.43.06.74.46.73.9-.04.41-.38.69-.78.69h-.09c-.09,0-1.62-.2-3.44-1.83v6.33h-1.58v-6.34c-1.83,1.64-3.37,1.83-3.45,1.84h-.1c-.4,0-.74-.3-.78-.7-.05-.43.26-.82.68-.87.1-.02,1.78-.28,3.63-2.58v-1.73c-1.82,1.66-3.37,1.84-3.45,1.85h-.09c-.41,0-.74-.3-.79-.7-.05-.43.26-.82.69-.87.09-.02,1.78-.28,3.63-2.58v-1.73c-1.83,1.64-3.37,1.84-3.46,1.85h-.09c-.4,0-.74-.3-.78-.7-.05-.43.26-.82.69-.87.09-.02,1.78-.28,3.63-2.58v-1.73c-1.83,1.64-3.39,1.84-3.46,1.85h-.09c-.41,0-.74-.3-.78-.7-.05-.43.25-.82.68-.87.09-.01,1.88-.28,3.78-2.77.15-.19.36-.28.57-.3h.14c.21.01.42.11.57.3Z"/>
      <path class="cls-12" d="M55.69,165.48c.2-.1.43-.16.66-.16.38,0,.78.15,1.06.44l1.17,1.17c.27.28.28.73.01,1.03l-1.36,1.46-4.46.47c-.37-.25-.52-.72-.36-1.14l.63-1.56c.12-.33.37-.59.67-.75l1.98-.96Z"/>
      <path class="cls-14" d="M52.68,171.49s-.05.01-.09.01c-.12,0-.23-.02-.35-.09l-.09-.05c-1.17-.59-1.71-1.97-1.22-3.19l.62-1.57c.27-.68.79-1.25,1.46-1.57l1.97-.98c1.19-.58,2.61-.35,3.54.58l1.17,1.19c.89.89.91,2.3.05,3.21l-1.56,1.67c-.12.14-.3.23-.49.25l-5.01.53ZM58.59,167.97c.27-.3.26-.74-.01-1.03l-1.17-1.17c-.28-.3-.68-.44-1.06-.44-.22,0-.46.06-.66.16l-1.98.96c-.3.16-.54.42-.67.75l-.63,1.56c-.16.42-.01.89.36,1.14l4.46-.47,1.36-1.46Z"/>
      <path class="cls-14" d="M52.15,159.66c-.43,0-.79-.36-.79-.79,0-1.74-.66-3.23-1.36-4.34h1.83c.62,1.19,1.11,2.66,1.11,4.34,0,.43-.36.79-.79.79Z"/>
      <path class="cls-14" d="M51.69,235.57c5.65,5.49,12.05,10.21,19.05,13.99-.31-1-.85-2.13-1.26-2.82-.22-.37-.1-.87.28-1.09.37-.22.85-.09,1.08.28.17.3,1.55,2.69,1.69,4.57,4.17,2.13,8.54,3.93,13.07,5.36,1.38-1.57,6.55-7.96,5.86-15.02-.44-4.45-3.14-8.38-8.02-11.72-5.62-3.84-9.68-8.21-12.05-12.95-1.01-2.03-1.64-4.2-1.9-6.4-.46-4.1.37-8.34,2.5-12.1,4.17-7.39,14.03-20.54,33.31-25.6,13.16-3.45,20.88-6.85,25.14-10.07.02.46.05.93.09,1.4-4.86,3.26-12.61,7.05-24.78,10.25-18.73,4.91-28.29,17.68-32.35,24.84-2.99,5.33-3.2,11.68-.54,17.01,2.25,4.51,6.13,8.66,11.53,12.36,5.28,3.61,8.2,7.95,8.69,12.88.7,7.11-3.82,13.34-5.77,15.66,7.59,2.25,15.6,3.46,23.88,3.5,5.56-6.37,4.54-12.43,4.52-12.48-.07-.43.21-.85.63-.93.43-.09.84.2.93.63.05.26,1.1,6.19-4,12.76,8.54-.17,16.77-1.58,24.54-4.09.11-4.91-.82-9.42-2.73-13.42-.19-.4-.02-.87.37-1.05.4-.2.87-.02,1.05.36,1.95,4.08,2.92,8.66,2.89,13.6,2.65-.9,5.23-1.94,7.74-3.09l.36.74c-10.98,5.14-23.19,8.01-36.06,8.01-23.39,0-44.61-9.47-60.21-24.87l.49-.49Z"/>
      <path class="cls-14" d="M49.1,131.58c-.37-.23-.48-.72-.26-1.09,2-3.21,5.46-8.65,6.16-9.15.35-.26.84-.17,1.1.17.25.35.17.83-.16,1.09-.48.48-3.3,4.8-5.75,8.73-.15.23-.41.37-.67.37-.14,0-.28-.04-.42-.12Z"/>
      <path class="cls-14" d="M48.1,151.29c.27-.32.77-.37,1.11-.1.09.07,1.26,1.06,2.29,2.73h-1.93c-.7-.95-1.36-1.5-1.37-1.51-.33-.28-.38-.78-.1-1.12Z"/>
      <path class="cls-14" d="M44.48,208.82c-.38,0-.73-.28-.78-.67-.36-2.39,2.79-5.18,3.15-5.5.33-.27.84-.22,1.12.1.28.33.25.83-.09,1.11-.93.8-2.81,2.86-2.62,4.05.05.42-.23.83-.68.89-.04.01-.07.01-.11.01Z"/>
      <path class="cls-14" d="M46.02,156.41c.27-.33.78-.37,1.11-.09.35.28,2.08,1.83,1.79,3.25-.09.38-.41.64-.78.64-.05,0-.1-.01-.16-.02-.42-.09-.7-.51-.61-.93.05-.28-.57-1.15-1.26-1.74-.33-.27-.38-.78-.1-1.11Z"/>
      <path class="cls-14" d="M46.35,108.49c-.21,0-.41-.09-.57-.25-.31-.32-.28-.82.02-1.12l3.16-2.99c.31-.31.82-.28,1.11.02.31.32.28.82-.02,1.11l-3.16,3.02c-.15.14-.35.21-.54.21Z"/>
      <path class="cls-12" d="M45.58,224.07c.22.21.38.47.46.77l.3,1.12c.07.27-.05.58-.3.72l-1.57.91c-2.03-2.53-3.92-5.19-5.66-7.94l2.44.61,4.34,3.81Z"/>
      <path class="cls-14" d="M43.86,108.84c.23.36.14.85-.23,1.1l-12.1,7.91c-.15.09-.3.12-.43.12-.27,0-.52-.12-.67-.36-.25-.37-.14-.85.22-1.1l12.13-7.91c.36-.23.85-.14,1.09.23Z"/>
      <path class="cls-14" d="M46.89,55.2c5.07,0,9.2,4.12,9.22,9.18.51-.14,1.04-.21,1.58-.21,3.19,0,5.78,2.6,5.78,5.8,0,.78-.15,1.55-.46,2.26-.12.3-.42.48-.73.48-.1,0-.19-.02-.28-.06h-.01c-.41-.17-.59-.63-.42-1.04.22-.53.32-1.08.32-1.64,0-2.32-1.89-4.21-4.2-4.21-.74,0-1.43.17-2.08.53-.25.15-.56.14-.8-.01-.23-.16-.38-.44-.36-.73l.07-1.14c-.02-4.2-3.44-7.63-7.64-7.63-.74,0-1.46.11-2.15.31-4.1,5.07-7.65,10.62-10.54,16.54l-.43-.21c14.19-29.2,43.62-49.24,77.65-49.24s66.29,22.04,79.61,53.53l-.32-.19c-3.51-8.27-8.33-15.98-14.36-22.88h-10.2c-.44,0-.8-.36-.8-.79s.36-.79.8-.79h8.78c-.83-.91-1.68-1.8-2.56-2.69-16.27-16.28-37.86-25.24-60.81-25.24-26.08,0-49.47,11.68-65.25,30.1.2-.01.4-.02.59-.02Z"/>
      <path class="cls-14" d="M41.53,167.12c2.63,3.28,5.13,3.65,5.15,3.65.43.05.73.44.69.88-.05.4-.4.69-.79.69h-.09c-.11-.01-2.37-.3-4.97-2.86v3.09c2.63,3.29,5.13,3.65,5.15,3.65.43.05.73.44.69.88-.05.4-.4.69-.79.69h-.09c-.11-.01-2.37-.3-4.97-2.86v3.1c2.63,3.28,5.13,3.63,5.15,3.63.43.06.73.46.69.88-.05.41-.4.7-.79.7h-.09c-.11-.01-2.37-.31-4.97-2.87v3.1c2.63,3.28,5.13,3.65,5.15,3.65.43.05.73.44.69.88-.05.4-.4.69-.79.69h-.09c-.11-.01-2.37-.3-4.97-2.86v3.09c2.63,3.28,5.13,3.65,5.15,3.65.43.05.73.44.69.88-.05.4-.4.69-.79.69,0,.02-.02.02-.05.02-.11-.01-2.37-.3-4.97-2.86v13.45c0,.43-.36.78-.79.78s-.79-.35-.79-.78v-13.46c-2.6,2.57-4.87,2.86-4.99,2.87h-.09c-.4,0-.74-.3-.79-.69-.04-.44.27-.83.7-.88.06,0,2.56-.38,5.17-3.67v-3.09c-2.61,2.57-4.88,2.86-4.99,2.88h-.1c-.4,0-.73-.3-.78-.7-.05-.43.27-.83.69-.88.06,0,2.56-.38,5.17-3.67v-3.09c-2.6,2.57-4.88,2.87-4.99,2.88h-.09c-.4,0-.73-.3-.79-.7-.04-.43.27-.83.7-.88.06,0,2.56-.37,5.17-3.66v-3.09c-2.6,2.56-4.88,2.86-4.99,2.87h-.09c-.4,0-.74-.3-.79-.7-.04-.43.26-.83.7-.87.05,0,2.55-.38,5.15-3.67v-3.09c-2.6,2.57-4.87,2.86-4.98,2.87h-.1c-.4,0-.73-.3-.78-.69-.05-.44.26-.83.69-.88.05,0,2.55-.38,5.17-3.67v-3.09c-2.6,2.57-4.88,2.87-4.99,2.88h-.09c-.4,0-.74-.3-.79-.7-.05-.43.26-.83.7-.88.05,0,2.63-.4,5.3-3.84.15-.19.36-.28.58-.3h.11c.22.01.44.11.58.3,2.68,3.49,5.29,3.84,5.32,3.84.43.06.73.46.69.88-.05.41-.4.7-.79.7h-.09c-.11-.01-2.37-.31-4.97-2.87v3.1Z"/>
      <path class="cls-14" d="M34.86,207.68c.2-.38.66-.56,1.04-.37.06.04,1.52.73,1.94,2.62.1.42-.17.84-.61.94-.06.01-.11.02-.17.02-.36,0-.68-.26-.77-.62-.25-1.11-1.05-1.52-1.08-1.55-.38-.2-.54-.66-.36-1.05Z"/>
      <path class="cls-14" d="M38.8,219.66c1.74,2.74,3.63,5.4,5.66,7.94l1.57-.91c.25-.14.37-.44.3-.72l-.3-1.12c-.07-.3-.23-.56-.46-.77l-4.34-3.81-2.44-.61ZM50.47,234.33l6.59-2.21c.61-.21,1.26-.28,1.89-.21v-12.99c-2.6,2.57-4.87,2.87-4.99,2.88h-.09c-.4,0-.73-.3-.78-.7-.05-.43.26-.83.69-.88.06,0,2.56-.37,5.17-3.66v-3.1c-2.6,2.58-4.87,2.87-4.99,2.88h-.09c-.4,0-.74-.3-.78-.7-.05-.43.26-.82.69-.87.05,0,2.55-.38,5.17-3.67v-3.09c-2.61,2.57-4.88,2.86-4.99,2.87h-.1c-.4,0-.73-.28-.78-.69-.05-.44.26-.83.69-.88.06,0,2.56-.38,5.17-3.67v-3.09c-2.6,2.57-4.87,2.86-4.99,2.88h-.09c-.4,0-.74-.3-.79-.7-.04-.43.27-.83.7-.88.06,0,2.56-.38,5.17-3.67v-3.09c-2.61,2.57-4.88,2.87-4.99,2.88h-.09c-.4,0-.74-.3-.79-.7-.05-.43.27-.83.69-.88.06,0,2.56-.37,5.17-3.66v-3.09c-2.6,2.56-4.87,2.86-4.99,2.87h-.09c-.4,0-.73-.3-.78-.7-.05-.43.26-.82.69-.87.06,0,2.56-.38,5.17-3.67v-3.09c-2.6,2.57-4.87,2.86-4.99,2.87h-.09c-.4,0-.74-.3-.79-.69-.04-.44.26-.83.7-.88.05,0,2.65-.4,5.3-3.84.15-.19.36-.28.58-.31h.11c.22.02.43.12.58.31,2.68,3.47,5.29,3.84,5.32,3.84.43.06.74.46.69.88-.05.41-.4.69-.79.69h-.09c-.11-.01-2.37-.3-4.96-2.86v3.1c2.62,3.28,5.12,3.65,5.14,3.65.43.05.74.44.69.87-.05.41-.4.7-.79.7h-.09c-.11-.01-2.37-.31-4.96-2.86v3.09c2.62,3.29,5.12,3.65,5.14,3.65.43.05.74.44.69.88-.05.4-.4.69-.79.69h-.09c-.11-.01-2.37-.3-4.96-2.86v3.1c2.62,3.26,5.12,3.63,5.14,3.63.43.06.74.46.69.88-.05.41-.4.69-.79.69h-.09c-.11-.01-2.37-.3-4.96-2.86v3.1c2.62,3.28,5.12,3.65,5.14,3.65.31.04.54.25.64.51.05.11.06.23.05.37-.05.4-.4.69-.79.69h-.09c-.11-.01-2.37-.31-4.96-2.86v3.09c2.62,3.28,5.12,3.65,5.14,3.65.43.05.74.44.69.88-.05.4-.4.69-.79.69h-.09c-.11-.01-2.37-.3-4.96-2.86v3.1c2.62,3.26,5.12,3.63,5.14,3.63.43.06.74.46.69.88-.05.41-.4.69-.79.69h-.09c-.11-.01-2.37-.3-4.96-2.86v13.4l3.34,1.19h8.28c.44,0,.79.35.79.79s-.35.78-.79.78h-8.43c-.09,0-.17-.01-.26-.04l-4.04-1.42c-.61-.21-1.27-.21-1.88-.01l-5.82,1.98-.49.49c-6.65-6.56-12.29-14.2-16.61-22.66l.49-.26c.8,1.56,1.66,3.08,2.55,4.57l4.18,1.05c.12.04.25.09.33.17l4.47,3.93c.47.41.79.95.95,1.55l.3,1.12c.25.96-.17,1.99-1.03,2.5l-1.36.79c1.58,1.9,3.26,3.75,4.99,5.5Z"/>
      <path class="cls-15" d="M35.22,208.73s.83.43,1.08,1.55c.09.36.41.62.77.62.06,0,.11-.01.17-.02.43-.1.7-.52.61-.94-.42-1.89-1.88-2.58-1.94-2.62-.38-.19-.84-.01-1.04.37-.19.4-.02.85.36,1.05ZM86.9,171.5s.1-.01.15-.01c.42-.09.72-.49.64-.93-.4-2.13,1.64-5.51,2.46-6.64.26-.37.19-.87-.16-1.12-.36-.25-.85-.17-1.11.17-.14.2-3.34,4.64-2.74,7.87.06.38.4.66.77.66ZM47.38,159.26c-.1.42.19.84.61.93.06.01.11.02.16.02.37,0,.69-.26.78-.64.28-1.42-1.45-2.97-1.79-3.25-.33-.28-.84-.25-1.11.09-.28.33-.23.84.1,1.11.69.59,1.31,1.46,1.26,1.74ZM101.74,167.31h6.49l2.99.38c.15.02.31.04.44.04.84,0,1.64-.3,2.29-.84l.44-.38c.91-.78,1.21-2.05.74-3.15l-.78-1.88c-.2-.44-.48-.84-.84-1.15l-3.6-3.11c-.15-.12-.33-.2-.52-.2h-1.35c-1.1,0-2.11.56-2.71,1.48l-1.29,1.99h-1.98c-.88,0-1.71.4-2.25,1.08s-.77,1.56-.58,2.42l.35,1.58c.21,1,1.11,1.74,2.14,1.74ZM46.59,166.89c.4,0,.74-.3.79-.7.04-.42-.26-.82-.69-.88-.02,0-2.63-.36-5.32-3.84-.14-.19-.36-.28-.58-.3h-.11c-.22.01-.43.11-.58.3-2.67,3.45-5.25,3.84-5.3,3.84-.44.05-.75.44-.7.88.05.41.4.7.79.7h.09c.11-.01,2.4-.31,4.99-2.88v3.09c-2.62,3.29-5.12,3.67-5.17,3.67-.43.05-.74.43-.69.88.05.4.38.69.78.69h.1c.11-.01,2.39-.3,4.98-2.87v3.09c-2.61,3.29-5.1,3.67-5.15,3.67-.44.04-.74.43-.7.87.05.41.4.7.79.7h.09c.11-.01,2.4-.31,4.99-2.87v3.09c-2.61,3.29-5.1,3.66-5.17,3.66-.43.05-.74.44-.7.88.06.41.4.7.79.7h.09c.11-.01,2.4-.31,4.99-2.88v3.09c-2.61,3.29-5.1,3.67-5.17,3.67-.42.05-.74.44-.69.88.05.41.38.7.78.7h.1c.11-.02,2.39-.31,4.99-2.88v3.09c-2.61,3.29-5.1,3.67-5.17,3.67-.43.05-.74.43-.7.88.05.4.4.69.79.69h.09c.12-.01,2.4-.3,4.99-2.87v13.46c0,.43.35.78.79.78s.79-.35.79-.78v-13.45c2.6,2.56,4.86,2.84,4.97,2.86.02,0,.05,0,.05-.02.4,0,.74-.3.79-.69.04-.43-.26-.83-.69-.88-.02,0-2.52-.37-5.15-3.65v-3.09c2.6,2.56,4.86,2.84,4.97,2.86h.09c.4,0,.74-.3.79-.69.04-.43-.26-.83-.69-.88-.02,0-2.52-.37-5.15-3.65v-3.1c2.6,2.56,4.86,2.86,4.97,2.87h.09c.4,0,.74-.3.79-.7.04-.42-.26-.82-.69-.88-.02,0-2.52-.36-5.15-3.63v-3.1c2.6,2.56,4.86,2.84,4.97,2.86h.09c.4,0,.74-.3.79-.69.04-.43-.26-.83-.69-.88-.02,0-2.52-.36-5.15-3.65v-3.09c2.6,2.56,4.86,2.84,4.97,2.86h.09c.4,0,.74-.3.79-.69.04-.43-.26-.83-.69-.88-.02,0-2.52-.37-5.15-3.65v-3.1c2.6,2.56,4.86,2.86,4.97,2.87h.09ZM44.48,208.82s.07,0,.11-.01c.44-.06.73-.47.68-.89-.19-1.2,1.69-3.25,2.62-4.05.33-.28.37-.78.09-1.11-.28-.32-.79-.37-1.12-.1-.36.32-3.51,3.11-3.15,5.5.05.38.4.67.78.67ZM52.6,171.5s.06-.01.09-.01l5.01-.53c.2-.01.37-.11.49-.25l1.56-1.67c.87-.91.84-2.32-.05-3.21l-1.17-1.19c-.93-.93-2.35-1.16-3.54-.58l-1.97.98c-.67.32-1.19.89-1.46,1.57l-.62,1.57c-.48,1.22.05,2.6,1.22,3.19l.09.05c.11.06.22.09.35.09ZM51.36,158.87c0,.43.36.79.79.79s.79-.36.79-.79c0-1.68-.49-3.15-1.11-4.34h7.21v3.3c0,.44.36.79.79.79s.79-.35.79-.79v-3.3l10.35-.23-.21.23c-1.47,1.41-2.66,1.59-2.73,1.61-.43.06-.74.44-.69.88.04.41.38.7.78.7h.1c.07-.01,1.62-.21,3.45-1.85v1.73c-1.85,2.3-3.55,2.56-3.63,2.57-.43.06-.73.44-.68.88.04.41.37.7.78.7h.09c.07-.01,1.62-.21,3.46-1.85v1.73c-1.85,2.3-3.55,2.56-3.63,2.57-.43.06-.74.44-.69.88.04.41.38.7.78.7h.09c.09-.01,1.63-.21,3.46-1.85v10.43l-1.27-.17c-.11-.02-.25-.01-.35.02l-4.67,1.47c-.41.12-.64.58-.51.99.1.33.41.56.74.56.09,0,.16-.01.25-.04l4.5-1.42,5.1.72h5.8c.44,0,.79-.36.79-.79s-.41-.79-.84-.79h-5.62l-2.39-.33v-10.64c1.82,1.63,3.36,1.83,3.44,1.84h.1c.4,0,.73-.3.78-.69.05-.43-.26-.83-.69-.89-.07-.01-1.77-.26-3.62-2.55v-1.73c1.83,1.62,3.36,1.83,3.45,1.83h.09c.4,0,.73-.3.78-.69.05-.43-.25-.83-.69-.88-.07-.01-1.76-.27-3.61-2.56v-1.73c1.82,1.63,3.35,1.83,3.44,1.83.02.01.06.01.09.01.4,0,.73-.3.79-.7.04-.43-.26-.82-.69-.88-.06-.01-1.26-.19-2.74-1.61l-.2-.22,7.61-.04v.26c.13.27.4.44.71.44h7.29c.19,0,.36-.06.49-.17h29.69c-.16.14-.27.35-.27.59,0,.43.36.79.79.79h10.31c-.05.1-.07.21-.11.32-.09.31-.14.62-.22.96-.19-.11-.35-.21-.51-.28-.44-.23-.95-.1-1.17.31s-.07.88.36,1.14c.35.21.7.42,1.08.61.25.14.33.3.36.58.04.73.07,1.46.12,2.19-4.26,3.23-11.98,6.63-25.14,10.07-19.28,5.06-29.15,18.21-33.31,25.6-2.13,3.76-2.95,8-2.5,12.1h-3.19c-.1-.25-.33-.46-.64-.49-.02,0-2.52-.37-5.14-3.65v-3.1c2.58,2.56,4.85,2.84,4.96,2.86h.09c.4,0,.74-.28.79-.69.05-.42-.26-.82-.69-.88-.02,0-2.52-.37-5.14-3.63v-3.1c2.58,2.56,4.85,2.84,4.96,2.86h.09c.4,0,.74-.3.79-.69.05-.43-.26-.83-.69-.88-.02,0-2.52-.36-5.14-3.65v-3.09c2.58,2.55,4.85,2.84,4.96,2.86h.09c.4,0,.74-.3.79-.7.05-.42-.26-.82-.69-.87-.02,0-2.52-.37-5.14-3.65v-3.1c2.58,2.56,4.85,2.84,4.96,2.86h.09c.4,0,.74-.28.79-.69.05-.42-.26-.82-.69-.88-.02,0-2.63-.37-5.32-3.84-.15-.19-.36-.28-.58-.31h-.11c-.22.02-.43.12-.58.31-2.66,3.45-5.25,3.84-5.3,3.84-.44.05-.74.43-.7.88.05.4.4.69.79.69h.09c.12-.01,2.4-.3,4.99-2.87v3.09c-2.61,3.29-5.1,3.67-5.17,3.67-.43.05-.74.43-.69.87.05.41.38.7.78.7h.09c.12-.01,2.4-.31,4.99-2.87v3.09c-2.61,3.29-5.1,3.66-5.17,3.66-.42.05-.74.44-.69.88.05.41.4.7.79.7h.09c.11-.01,2.39-.31,4.99-2.88v3.09c-2.61,3.29-5.1,3.67-5.17,3.67-.43.05-.74.44-.7.88.05.41.4.7.79.7h.09c.12-.02,2.4-.31,4.99-2.88v3.09c-2.61,3.29-5.1,3.67-5.17,3.67-.43.05-.74.43-.69.88.05.41.38.69.78.69h.1c.11-.01,2.39-.3,4.99-2.87v3.09c-2.62,3.29-5.12,3.67-5.17,3.67-.43.05-.74.43-.69.87.04.41.38.7.78.7h.09c.12-.01,2.4-.3,4.99-2.88v3.1c-2.61,3.29-5.1,3.66-5.17,3.66-.43.05-.74.44-.69.88.05.41.38.7.78.7h.09c.12-.01,2.4-.31,4.99-2.88v12.99c-.63-.07-1.29,0-1.89.21l-6.59,2.21c-1.73-1.76-3.41-3.6-4.99-5.5l1.36-.79c.85-.51,1.27-1.53,1.03-2.5l-.3-1.12c-.16-.59-.48-1.14-.95-1.55l-4.47-3.93c-.09-.09-.21-.14-.33-.17l-4.18-1.05c-.89-1.5-1.74-3.02-2.55-4.57-5.6-10.86-8.96-23.09-9.46-36.03l2.37-.31c.75-.1,1.43-.53,1.84-1.17.4-.66.49-1.45.25-2.18l-1.25-3.72c-.14-.41-.32-.78-.56-1.11l-2.73-3.89v-9.74h5.53c.32,0,.6-.19.73-.46v-.31s18.2.31,18.2.31c.7,1.11,1.36,2.6,1.36,4.34ZM84.77,166.33c.12-.42-.12-.87-.54-.98-.42-.12-.87.12-.98.53-.04.14-.93,3.3-1.14,4.7-.06.43.25.84.67.9.04,0,.09.01.11.01.4,0,.73-.3.79-.68.17-1.29,1.09-4.46,1.09-4.49ZM62.19,177.03c0-.43-.35-.79-.79-.79h-1.68c-.44,0-.79.36-.79.79s.35.79.79.79h1.68c.44,0,.79-.35.79-.79Z"/>
      <path class="cls-10" d="M36.35,141.72c3.04,0,5.53,2.48,5.53,5.54,0,1.14-.35,2.24-1,3.18-.25.36-.16.84.21,1.1.09.06.19.1.3.11l-2.13,2.27h-7.44c-.1-.31-.38-.53-.74-.53h-5.53v-22.62c.43-.09.88-.14,1.31-.14,3.92,0,7.12,3.2,7.12,7.12,0,1.16-.28,2.27-.82,3.3-.01.01-.01.02-.02.04,0,.02-.01.05-.02.07,0,.02-.01.05-.01.07-.02.02-.02.05-.02.07s-.01.05-.01.07v.07s0,.06.01.09c0,.02.01.05.02.07,0,.02.01.05.02.07v.04s.01.02.01.04c.02.02.04.05.05.07.01.01.02.04.04.06s.05.04.06.06c0,.01.01.01.01.02.01.01.04.01.05.02s.02.04.05.05.05.02.06.04.04.02.04.02c.01.01.02.01.04.01.02.01.07.04.1.04.04.01.05.01.06.01.05.02.1.04.16.04h.01c.06-.01.12-.01.19-.04.02,0,.04-.01.05-.01.04-.01.05-.01.07-.02.52-.21,1.06-.35,1.61-.41.19-.01.38-.02.57-.02Z"/>
      <path class="cls-12" d="M28.59,173.97c.09.27.05.58-.1.83s-.42.41-.7.44l-2.21.28c-.01-.58-.02-1.17-.02-1.76v-6.29l1.43,2.05c.15.21.26.46.35.7l1.26,3.73Z"/>
      <path class="cls-14" d="M197.52,162.46l-2.47,3.44c-.28.4-.43.87-.43,1.35v.69c0,.96.78,1.73,1.74,1.73h1.16v-7.21ZM181.55,139.82c.2-.09.41-.16.62-.22,0-.01.01-.01.02-.01.52-.15,1.06-.23,1.63-.23.23,0,.48.01.72.05l.22.04c.16.02.32.05.48.09.07.02.15.05.23.06.01.01.04.02.06.02.12.05.25.09.37.14.06.01.12.05.19.06.04.02.07.04.11.06.11.05.23.11.35.17.05.02.11.05.16.09v-.3c.01-.1.02-.19.02-.28.01-.1.01-.19.02-.28,0-.02,0-.07.01-.11.01-.19.05-.36.07-.53.01-.06.01-.14.04-.19,0-.02.01-.05.01-.07.04-.21.1-.42.16-.62.01-.04.02-.07.02-.11.01-.01.01-.04.01-.04.07-.22.16-.46.25-.67.01-.02.01-.05.04-.07h0c.1-.25.21-.47.32-.68.01-.01.02-.04.02-.05t.01-.02c.11-.2.23-.4.37-.59.01-.02.02-.05.05-.09,0-.01.01-.01.01-.02h-8.43l1.79,4.43h.01ZM158.9,112.71h14.31l-2.99-3.7h-15.7c1.45.51,2.93,1.11,3.39,1.61.22.23.51.68.99,2.09ZM25.58,175.53l2.21-.28c.28-.04.56-.2.7-.44s.19-.56.1-.83l-1.26-3.73c-.09-.25-.2-.49-.35-.7l-1.43-2.05v6.29c0,.58.01,1.17.02,1.76ZM86.46,95.75c.14.1.25.23.3.4l.06.2h16.51l-1.2-2.29-3.23-1.41h-15.9v.69l3.45,2.41ZM197.52,130.12h-19.93l1.51,3.68h10.48c.07-.05.14-.11.2-.17.02-.01.05-.04.07-.05.14-.11.27-.2.4-.3.06-.04.12-.09.19-.14.02-.01.04-.02.06-.04.15-.1.3-.2.46-.27.06-.04.11-.07.17-.11.01-.01.04-.01.06-.02.16-.09.32-.16.49-.23.06-.02.11-.06.17-.09.02-.01.05-.01.06-.02.16-.06.33-.14.51-.19.07-.02.15-.06.21-.07.01-.01.04-.01.05-.01.17-.06.35-.1.52-.15.09-.01.16-.04.23-.05t.05-.01c.19-.04.37-.05.56-.09.07,0,.16-.02.23-.02h.02c.27-.02.56-.05.84-.05s.54.02.8.05c.07,0,.14.01.2.01.27.01.53.06.79.12.2.04.38.09.58.14v-1.92ZM176,127.48c.32,0,.61.19.73.49l.22.56h20.57v-2.92l-1.05-.78h-24.55l.44,2.65h3.63ZM171.22,120.85l.42,2.41h22.71l-4.98-3.7h-20.27l1.64.68c.26.11.43.33.48.61ZM103.42,93.1l2.81,5.34,6.19,1.48c.11.02.21.07.3.15l17.82,13.96,3.21-3.47,3.76-11.22c.05-.17.17-.32.32-.42l11.54-7.17,1.69-1.05s.01-.01.02-.01c.07-.04.16-.07.26-.09,0,0,.01,0,.02-.01.04,0,.07-.01.1-.01h.01c.06,0,.11.01.15.02h.01c.09.01.17.05.25.1,0,.01.01.01.02.01.07.05.15.11.2.19,0,0,.01,0,.01.01l4.6,6.35,1.09,1.51,10.85,5.93c.09.05.17.12.23.2l8.66,10.72,12.21,2.41c.06.01.11.02.16.05.01.01.02.01.04.02.02.02.07.04.1.06h.02l7.43,5.51v-12.39c0-5.33-.48-10.57-1.42-15.7h-6.48c-.44,0-.79-.36-.79-.79,0-.07.01-.14.02-.21.1-.33.4-.58.77-.58h6.18c-1.15-5.67-2.86-11.19-5.12-16.48l.32.19c4.51,10.64,7.05,22.37,7.12,34.7h.01v59.89c-.02,10.59-1.85,20.74-5.2,30.15l-.32-.11c.66-1.84,1.25-3.72,1.77-5.61,2.05-7.29,3.13-14.99,3.13-22.94v-2.51h-1.16c-1.83,0-3.31-1.48-3.31-3.31v-.69c0-.83.25-1.61.73-2.27l3.75-5.23v-4.77h-5.43c-.38,0-.72-.28-.78-.66h3.71v-.54h-3.61c.14-.22.4-.38.68-.38h5.43v-19.69s-.09-.04-.12-.05c-.09-.02-.16-.05-.23-.07-.14-.04-.28-.07-.42-.11-.09-.02-.16-.04-.25-.05-.15-.04-.3-.06-.46-.07-.07-.01-.14-.02-.21-.04-.23-.01-.46-.04-.68-.04-.23,0-.46.01-.68.04-.07.01-.14.02-.21.04-.15.02-.31.04-.46.07-.07.01-.15.02-.22.05-.14.04-.28.07-.42.11-.07.02-.15.05-.21.07-.15.04-.28.1-.42.14-.06.04-.12.07-.2.11-.14.05-.26.11-.38.17-.07.04-.14.09-.21.12-.12.07-.23.14-.35.21-.09.06-.15.11-.23.16-.1.07-.2.15-.28.22s-.17.14-.25.21c-.09.07-.17.14-.25.21-.07.09-.15.16-.22.23-.09.1-.17.19-.25.27-.05.06-.09.12-.14.17-.09.12-.19.25-.28.38-.02.04-.04.06-.06.1-.1.16-.2.31-.28.47-.02.04-.02.06-.04.07-.09.17-.17.35-.25.52-.01.04-.04.07-.05.1l-.19.52s-.02.11-.05.16c-.04.16-.07.31-.11.47-.01.07-.02.16-.05.25-.01.14-.04.26-.06.4-.01.1-.02.21-.02.32-.01.16-.02.32-.02.48,0,.57.07,1.15.22,1.71v.04s.01.06.01.11v.02h0v.07h0s0,.04-.01.05c0,.02,0,.04-.01.06t-.01.02v.02s0,.02-.01.02c0,.02-.01.04-.01.06t-.02.04s-.01.02-.02.05h-.01s-.01.02-.01.04-.01.01-.01.01c-.01.02-.02.05-.05.07-.01,0-.01.01-.02.01,0,.01-.01.01-.01.02-.01.01-.02.02-.05.04,0,.01-.01.01-.02.02-.02.02-.06.05-.09.06-.01.01-.02.01-.05.02-.01.01-.04.01-.05.01-.04.02-.06.04-.09.04h-.01s-.01,0-.02.01h-.06s-.02.01-.04.01h-.11s-.07-.01-.12-.01c-.01-.01-.02-.01-.05-.01-.01-.01-.02-.01-.05-.01,0,0-.01,0-.01-.01-.05-.01-.09-.04-.14-.06-.01,0-.02-.02-.02-.02-.01,0-.02-.01-.02-.01-.01-.01-.02-.01-.04-.02-.05-.04-.09-.07-.14-.14-.8-1.01-2-1.61-3.3-1.61-.19,0-.36.02-.53.04-.05.01-.1.02-.15.02-.15.02-.3.06-.44.1-.02,0-.05.01-.07.02-.17.05-.35.1-.51.17-.04.02-.07.04-.11.05-.12.06-.23.14-.36.2-.05.04-.1.06-.14.1-.11.07-.22.15-.32.22-.06.06-.14.11-.2.17s-.12.11-.19.17-.11.12-.16.19-.1.11-.14.16c-.06.07-.11.14-.16.21l-.11.19c-.06.11-.12.21-.17.32-.05.09-.09.19-.14.27-.02.07-.05.12-.06.2-.04.09-.06.17-.09.27-.02.06-.04.12-.05.19-.02.1-.05.21-.06.31-.01.05-.01.11-.02.16-.02.16-.04.32-.04.49,0,.43-.35.79-.79.79-.11,0-.21-.02-.31-.06-.28-.12-.48-.41-.48-.73,0-.21.02-.42.05-.63,0-.07.01-.15.02-.22.02-.12.04-.25.06-.37.02-.1.05-.2.07-.28.02-.1.06-.19.09-.3.04-.1.07-.21.11-.31.04-.07.06-.16.1-.23.05-.11.1-.22.16-.32.02-.06.06-.12.1-.19.06-.11.12-.23.2-.33l.11-.15c.07-.11.16-.22.25-.33.02-.04.06-.07.09-.1.22-.26.47-.51.74-.73l-2.32-5.74v-.02l-2.14-5.27h0s-.23-.57-.23-.57h-3.76c-.38,0-.72-.27-.78-.66l-.72-4.18s-.01-.04-.02-.06l-.44-2.63-4.93-2.04-5.99-2.47c-.23-.09-.41-.3-.47-.54,0-.01-.35-1.42-.78-2.74-.54-1.69-.79-2-.82-2.04-.05-.05-.14-.1-.26-.16-.79-.44-3.07-1.26-5.02-1.85-.33-.1-.57-.4-.57-.75v-.69s-.01-.01-.01-.01v-.02l-.06-5.24h0v-.02l-.06-5.25h0s-.06-4.93-.06-4.93l-9.22,5.72-2.58,1.59-3.71,11.11c-.04.11-.1.21-.17.3l-3.81,4.13-7,7.65c-.07.07-.16.15-.25.19l-1.72.79s-.02,0-.02.01l-13.68,6.32c-.1.05-.21.07-.32.07s-.21-.02-.3-.05c-.21-.09-.37-.25-.44-.46l-2.45-6.3h0s-3.96-10.23-3.96-10.23l-10.69-3.03c-.25-.07-.44-.26-.53-.51l-4.5-13.15-3.57-2.51c-.21-.15-.35-.38-.35-.64v-6.77l-2.52-3.39c-.1-.14-.16-.3-.16-.47v-13.05l-4.57,6.42c-.14.2-.38.32-.64.32h-3.79l-10.25,15.46c-.1.16-.26.27-.44.33l-10.38,2.84-4.28,7.42c-.15.25-.41.4-.69.4h-2.72l-15.44,8.5v17.44c.43-.06.88-.1,1.31-.1,4.81,0,8.7,3.89,8.7,8.7,0,.85-.12,1.67-.36,2.47.37-.06.75-.1,1.15-.1,3.92,0,7.11,3.2,7.11,7.12,0,1.47-.44,2.88-1.29,4.08-.15.22-.4.33-.64.33-.05,0-.1,0-.15-.02-.11-.01-.21-.05-.3-.11-.37-.26-.46-.74-.21-1.1.66-.94,1-2.04,1-3.18,0-3.05-2.48-5.54-5.53-5.54-.19,0-.38.01-.57.02-.54.06-1.09.2-1.61.41-.02.01-.04.01-.07.02-.01,0-.02.01-.05.01-.06.02-.12.02-.19.04h-.01c-.06,0-.11-.01-.16-.04-.01,0-.02,0-.06-.01-.02,0-.07-.02-.1-.04-.01,0-.02,0-.04-.01,0,0-.02-.01-.04-.02s-.04-.02-.06-.04-.04-.04-.05-.05-.04-.01-.05-.02c0-.01-.01-.01-.01-.02-.01-.02-.05-.04-.06-.06s-.02-.05-.04-.06c-.01-.02-.02-.05-.05-.07,0-.01,0-.02-.01-.04v-.04s-.02-.05-.02-.07c-.01-.02-.02-.05-.02-.07-.01-.02-.01-.05-.01-.09v-.07s.01-.05.01-.07,0-.05.02-.07c0-.02.01-.05.01-.07.01-.02.02-.05.02-.07.01-.01.01-.02.02-.04.53-1.03.82-2.14.82-3.3,0-3.92-3.2-7.12-7.12-7.12-.43,0-.88.05-1.31.14v22.62h5.53c.36,0,.64.22.74.53v.61c-.13.27-.42.46-.74.46h-5.53v9.74l2.73,3.89c.23.33.42.7.56,1.11l1.25,3.72c.25.73.15,1.52-.25,2.18-.41.64-1.09,1.08-1.84,1.17l-2.37.31c.49,12.94,3.86,25.17,9.46,36.03l-.49.26c-6.35-12.34-9.94-26.39-9.94-41.3,0-.53.02-1.05.04-1.58h-.05v-60.89h.1c.47-12.97,3.66-25.24,9.02-36.22l.43.21c-1.3,2.71-2.48,5.48-3.51,8.32h10.1c.26,0,.48.12.63.31.1.14.16.3.16.48,0,.43-.36.79-.79.79h-10.64c-2.83,8.31-4.43,17.17-4.57,26.38l14.83-8.15c.12-.06.25-.09.38-.09h2.47l4.21-7.31c.11-.17.27-.31.48-.36l10.41-2.87,10.31-15.56c.15-.22.4-.36.66-.36h3.82l5.76-8.08.02-.02s.06-.06.09-.09t.01-.02s.02-.01.04-.02c.02-.01.05-.04.09-.05.01-.01.02-.02.05-.04.04-.01.06-.02.1-.04.02,0,.04-.01.06-.01.04-.01.06-.01.1-.02.01,0,.02,0,.05-.01h.04s.07.01.1.01c.01,0,.04,0,.05.01.05.01.11.02.16.04h.01s.1.06.14.09l.04.04s.06.05.09.07c0,.01.01.01.01.01l12.72,14.33c.12.14.2.32.2.52v6.48l6.34,2.74h.01s3.63,1.59,3.63,1.59c.16.07.3.2.38.36ZM165.26,117.98h16.29l-4.6-.9c-.17-.05-.33-.14-.46-.28l-2.03-2.51h-15.08c.16.58.31,1.1.4,1.43l5.48,2.26ZM168.93,107.42l-1.17-1.45-4.1-2.24h-11.24l.04,3.68h16.48ZM152.41,102.16h8.36l-3.87-2.13c-.1-.05-.2-.14-.26-.22l-.98-1.35h-3.3l.05,3.7ZM154.52,96.88l-2.21-3.07.04,3.07h2.18ZM127.39,117.46l2.08-2.29-1.8-1.41h-24.83l1.42,3.7h23.14ZM123.16,122.08l2.77-3.04h-21.06l1.43,3.68h15.44l1.42-.64ZM101.85,112.18h23.79l-4.72-3.7h-29.94l.23.67,10.63,3.03ZM90.44,106.9h28.45l-4.72-3.7h-25.01l1.27,3.7ZM108.65,128.78l9.67-4.46h-11.41l1.74,4.46ZM88.64,101.63h23.51l-.27-.22-6.37-1.52c-.22-.05-.42-.2-.52-.4l-.82-1.56h-16.81l1.27,3.7ZM83.02,91.07h12.25l-3.33-1.45c-.3-.12-.47-.41-.47-.73v-1.52h-8.45v3.7ZM91.47,85.8v-3.58l-.15-.15c-.07.02-.15.04-.25.04h-10.74v.75l2.2,2.94h8.94ZM89.96,80.53l-3.29-3.7h-6.34v3.7h9.63ZM85.28,75.25l-4.94-5.57v5.57h4.94Z"/>
      <polygon class="cls-10" points="39.05 154.2 31.82 154.23 31.82 153.9 39.26 153.92 39.05 154.2"/>
    </g>
  </g>
</svg>